<?xml version="1.0" standalone="no"?>
<!DOCTYPE svg PUBLIC "-//W3C//DTD SVG 1.1//EN" "http://www.w3.org/Graphics/SVG/1.1/DTD/svg11.dtd" >
<svg xmlns="http://www.w3.org/2000/svg">
<metadata>
This is a custom SVG webfont generated by Font Squirrel.
Copyright   : Copyright  1990 1991 2002 Adobe Systems Incorporated  All Rights Reserved  1981 2002 Heidelberger Druckmaschinen AG All rights reserved
Designer    : Unknown
Foundry URL : httpwwwadobecomtype
</metadata>
<defs>
<font id="HelveticaRoundedLTStdBlack" horiz-adv-x="1363" >
<font-face units-per-em="2048" ascent="1501" descent="-547" />
<missing-glyph horiz-adv-x="684" />
<glyph unicode=" "  horiz-adv-x="684" />
<glyph unicode="&#x09;" horiz-adv-x="684" />
<glyph unicode="&#xa0;" horiz-adv-x="684" />
<glyph unicode="!" horiz-adv-x="757" d="M150 217q0 94 66.5 161.5t162.5 67.5t162.5 -67.5t66.5 -161.5t-66.5 -161.5t-162.5 -67.5t-162.5 67.5t-66.5 161.5zM156 1262q0 240 223 239.5t223 -239.5q0 -211 -92 -633q-12 -57 -41 -82t-90.5 -25t-90 24.5t-40.5 82.5q-92 422 -92 633z" />
<glyph unicode="&#x22;" horiz-adv-x="985" d="M160 901v457q0 63 36.5 103t98 40t98.5 -40t37 -103v-457q0 -63 -37 -103t-98.5 -40t-98 40t-36.5 103zM555 901v457q0 63 37 103t98.5 40t98 -40t36.5 -103v-457q0 -63 -36.5 -103t-98 -40t-98.5 40t-37 103z" />
<glyph unicode="#" horiz-adv-x="1368" d="M162 496q0 41 24.5 69.5t73.5 28.5h109l34 242h-79q-49 0 -74 28.5t-25 69.5t24.5 69.5t74.5 28.5h108l43 318q16 106 115 106q39 0 65.5 -22.5t26.5 -55.5q0 -37 -25 -204l-20 -142h184l43 318q16 106 115 106q39 0 65.5 -22.5t26.5 -55.5q0 -37 -24 -204l-21 -142h82 q49 0 73.5 -28.5t24.5 -69.5t-24.5 -69.5t-73.5 -28.5h-109l-34 -242h79q49 0 74 -28.5t25 -69.5t-24.5 -70t-74.5 -29h-108l-43 -317q-16 -106 -115 -107q-39 0 -65.5 22.5t-26.5 55.5q0 37 25 205l20 141h-184l-43 -317q-16 -106 -115 -107q-39 0 -65.5 22.5t-26.5 55.5 q0 37 25 205l20 141h-82q-49 0 -73.5 29t-24.5 70zM575 594h183l35 242h-183z" />
<glyph unicode="$" horiz-adv-x="1368" d="M76 332q0 72 47 119t121 47q45 0 86 -33t70.5 -74t86 -84t125.5 -59v317q-281 80 -400.5 172t-119.5 273q0 143 80 247.5t195.5 151.5t244.5 47v27q0 84 74 84t74 -84v-27q59 0 140 -19.5t164 -55t139.5 -98t56.5 -138.5q0 -66 -46.5 -110t-126.5 -44q-43 0 -87 38 t-104 85t-136 64v-283q279 -70 405.5 -179.5t126.5 -297.5q0 -209 -155.5 -322.5t-376.5 -122.5v-108q0 -84 -74 -84t-74 84v108q-240 0 -388 115t-148 244zM440 1071q0 -59 51.5 -96t120.5 -45v256q-72 -6 -122 -35t-50 -80zM760 244q172 14 172 131q0 121 -172 151v-282z " />
<glyph unicode="%" horiz-adv-x="2048" d="M104 985v98q0 170 86 271.5t268.5 101.5t267.5 -101.5t85 -271.5v-98q0 -154 -90 -257t-262 -103q-174 0 -264.5 103t-90.5 257zM350 1040.5q0 -120.5 20.5 -182t88.5 -61.5q66 0 86 61.5t20 182t-20.5 182t-85.5 61.5q-68 0 -88.5 -61.5t-20.5 -182zM567 0q0 29 27 82 l641 1296q43 88 72.5 113t74.5 25q37 0 68 -30t31 -56q0 -29 -27 -82l-641 -1297q-43 -88 -72.5 -112.5t-74.5 -24.5q-37 0 -68 29.5t-31 56.5zM1237 334v98q0 170 86 271.5t268.5 101.5t267.5 -101.5t85 -271.5v-98q0 -154 -90.5 -257.5t-262.5 -103.5q-174 0 -264 103.5 t-90 257.5zM1483 389q0 -121 20.5 -182.5t87.5 -61.5q66 0 86.5 61.5t20.5 182.5t-20.5 182.5t-86.5 61.5q-68 0 -88 -61.5t-20 -182.5z" />
<glyph unicode="&#x26;" horiz-adv-x="1669" d="M98 426q0 135 84 242.5t228 165.5q-133 125 -134 272q0 164 127 271.5t365 107.5q225 0 367.5 -109.5t142.5 -283.5q0 -125 -62.5 -214.5t-193.5 -170.5l143 -138q111 106 157 134t93 28q57 0 102.5 -43t45.5 -104q0 -55 -31 -103.5t-127 -140.5q117 -102 117 -188 q0 -82 -61.5 -134.5t-133.5 -52.5q-39 0 -84 31t-125 121q-180 -152 -510 -152q-266 0 -388 128t-122 333zM508 416q0 -61 43 -102.5t108 -41.5q113 0 224 82l-224 228q-151 -94 -151 -166zM649 1112q0 -78 127 -170q158 76 158 170q0 55 -40 85t-108 30q-137 0 -137 -115z " />
<glyph unicode="'" horiz-adv-x="528" d="M129 901v457q0 63 37 103t98.5 40t98 -40t36.5 -103v-457q0 -63 -36.5 -103t-98 -40t-98.5 40t-37 103z" />
<glyph unicode="(" horiz-adv-x="720" d="M102 559q0 295 121 670q51 158 97.5 215t121.5 57q80 0 128 -43t48 -119q0 -49 -29.5 -163.5t-59 -279.5t-29.5 -337q0 -217 51 -476t51 -284q0 -84 -45 -133t-129 -49q-80 0 -136 83t-116 306q-74 277 -74 553z" />
<glyph unicode=")" horiz-adv-x="720" d="M102 -221q0 49 30 163.5t59.5 279.5t29.5 337q0 217 -51 476t-51 284q0 84 45 133t129 49q80 0 136 -83t116 -306q74 -276 73 -553q0 -295 -120 -670q-51 -158 -97.5 -215t-121.5 -57q-80 0 -128.5 43t-48.5 119z" />
<glyph unicode="*" horiz-adv-x="1138" d="M121 1145q0 125 112 125q31 0 72 -17l154 -63v174q0 137 110.5 137t110.5 -137v-174l154 63q41 16 71 17q113 0 113 -125q0 -74 -57 -90l-220 -66l93 -117q76 -98 75 -133q0 -45 -37.5 -77.5t-83.5 -32.5q-35 0 -59 16.5t-63 71.5l-97 139l-96 -139q-39 -55 -63.5 -71.5 t-59.5 -16.5q-45 0 -83 32.5t-38 77.5q0 35 76 133l92 117l-219 66q-57 16 -57 90z" />
<glyph unicode="+" horiz-adv-x="1228" d="M35 579.5q0 63.5 39 99.5t104 36h301v301q0 66 36 104.5t99.5 38.5t99.5 -39t36 -104v-301h301q66 0 104.5 -36t38.5 -99.5t-39 -99.5t-104 -36h-301v-301q0 -66 -36 -104.5t-99.5 -38.5t-99.5 39t-36 104v301h-301q-66 0 -104.5 36t-38.5 99.5z" />
<glyph unicode="," horiz-adv-x="684" d="M113 225q0 92 63.5 156.5t159.5 64.5q102 0 175 -78.5t73 -246.5q0 -109 -36 -194t-93.5 -131t-115.5 -69.5t-114 -23.5q-51 0 -76.5 27.5t-25.5 62.5q0 43 26.5 68.5t94.5 40.5q119 27 118 137q-29 -14 -71 -14q-86 0 -132 58t-46 142z" />
<glyph unicode="-" horiz-adv-x="796" d="M39 579.5q0 90.5 48 141.5t144 51h334q96 0 144.5 -51t48.5 -141.5t-48 -141.5t-145 -51h-334q-96 0 -144 51t-48 141.5z" />
<glyph unicode="." horiz-adv-x="684" d="M113 217q0 94 66.5 161.5t162.5 67.5t162.5 -67.5t66.5 -161.5t-66.5 -161.5t-162.5 -67.5t-162.5 67.5t-66.5 161.5z" />
<glyph unicode="/" horiz-adv-x="796" d="M31 106q0 35 57 201l377 1067q29 86 56.5 110.5t94.5 24.5q57 0 103.5 -36.5t46.5 -104.5q0 -35 -57 -201l-377 -1067q-29 -86 -56.5 -110.5t-95.5 -24.5q-57 0 -103 36.5t-46 104.5z" />
<glyph unicode="0" horiz-adv-x="1368" d="M78 721q0 344 156.5 539.5t449.5 195.5t449.5 -195.5t156.5 -539.5q0 -387 -162.5 -567.5t-443.5 -180.5t-443.5 180.5t-162.5 567.5zM500 715q0 -244 44 -333t140 -89t140 89t44 333q0 219 -43 320.5t-141 101.5t-141 -101.5t-43 -320.5z" />
<glyph unicode="1" horiz-adv-x="1062" d="M72 1001q0 78 37.5 110t160.5 52q150 27 242 154q55 78 93 108.5t95 30.5q166 0 166 -143v-1131q0 -104 -57 -156.5t-153.5 -52.5t-154 52.5t-57.5 156.5v674h-221q-151 0 -151 145z" />
<glyph unicode="2" horiz-adv-x="1368" d="M94 170q0 72 22.5 119t110.5 127t275 209l194 135q76 51 107 99t31 112q0 76 -48.5 121t-130.5 45q-63 0 -101 -30t-54.5 -71t-32.5 -83t-54 -71.5t-102 -29.5q-201 0 -200 199q0 160 149.5 282.5t407.5 122.5q158 0 275.5 -40t183 -108.5t97 -147.5t31.5 -169 q0 -127 -64.5 -224t-203.5 -185l-371 -234v-4h488q174 0 174 -172t-174 -172h-836q-78 0 -126 50t-48 120z" />
<glyph unicode="3" horiz-adv-x="1368" d="M90 332q0 88 50 142t139 54q61 0 97 -25.5t52 -61t32.5 -72.5t54.5 -62.5t99 -25.5q109 0 160 44t51 144q0 72 -32.5 100.5t-102.5 32.5q-184 14 -184 129q0 141 168 141q57 0 99 35t42 103q0 139 -190 139q-59 0 -98.5 -24.5t-82.5 -92.5q-31 -49 -62.5 -66.5 t-80.5 -17.5q-88 0 -134 55.5t-46 126.5q0 137 148.5 231.5t406.5 94.5q240 0 388 -109.5t148 -293.5q0 -104 -45 -177t-129 -102v-4q100 -31 154.5 -113t54.5 -192q0 -63 -13 -123.5t-54 -129.5t-106.5 -120t-181.5 -85t-265 -34q-236 0 -386.5 109t-150.5 250z" />
<glyph unicode="4" horiz-adv-x="1368" d="M49 512q0 106 123 254l428 516q90 109 147.5 147.5t135.5 38.5q115 0 177 -58t62 -159v-639q96 0 146.5 -35.5t50.5 -123.5t-49 -124t-148 -36v-98q0 -104 -50 -163t-148.5 -59t-148.5 58.5t-50 163.5v98h-483q-98 0 -145.5 60.5t-47.5 158.5zM385 612h340v441h-4z" />
<glyph unicode="5" horiz-adv-x="1368" d="M115 266q0 74 56 120t140 46q63 0 108.5 -35t91.5 -69.5t112 -34.5q100 0 154 58.5t54 133.5q0 86 -59 146.5t-145 60.5q-55 0 -143.5 -40t-164.5 -40q-72 0 -132 39t-60 135q0 127 74 467q20 102 69 139.5t160 37.5h553q90 0 136 -44.5t46 -122t-46 -121.5t-136 -44 h-467l-39 -219q82 43 139.5 57t151.5 14q203 0 344 -112.5t141 -343.5q0 -264 -180 -392.5t-471 -128.5q-76 0 -154.5 15.5t-156.5 47.5t-127 92t-49 138z" />
<glyph unicode="6" horiz-adv-x="1368" d="M76 698q0 350 160.5 554t502.5 204q59 0 131 -12t152 -40t132 -84t52 -130q0 -78 -48 -125t-124 -47q-70 0 -160 71.5t-149 71.5q-129 0 -178 -94t-49 -254q121 106 299 107q223 0 359 -121t136 -336q0 -223 -148.5 -356.5t-428.5 -133.5q-301 0 -470 188.5t-169 536.5z M516 465q0 -76 50 -130t134 -54t133.5 54t49.5 130q0 84 -48.5 134t-134.5 50q-84 0 -134 -55t-50 -129z" />
<glyph unicode="7" horiz-adv-x="1214" d="M0 1263.5q0 77.5 46 122t136 44.5h799q203 0 203 -181q0 -59 -39 -121.5t-146 -175.5q-76 -80 -170 -285.5t-118 -404.5q-23 -176 -85.5 -232.5t-158.5 -56.5q-70 0 -126 55.5t-56 133.5q0 186 170 505.5t297 430.5h-570q-90 0 -136 44t-46 121.5z" />
<glyph unicode="8" horiz-adv-x="1368" d="M78 436q0 121 54 191.5t175 126.5q-88 39 -139 120.5t-51 188.5q0 61 26.5 123.5t85 126t176 103.5t277.5 40t278.5 -40t178 -103.5t86 -126t26.5 -123.5q0 -106 -51 -188t-139 -121q121 -55 175 -126t54 -192q0 -225 -162.5 -344t-445.5 -119q-281 0 -442.5 119 t-161.5 344zM500 446q0 -88 49 -133t131 -45q88 0 138 45t50 133q0 80 -52 131.5t-134 51.5q-78 0 -130 -51.5t-52 -131.5zM514 1012q0 -74 44 -112t124 -38q172 0 172 149.5t-172 149.5q-168 1 -168 -149z" />
<glyph unicode="9" horiz-adv-x="1368" d="M76 967q0 215 152.5 352t424.5 137q311 0 475 -188.5t164 -536.5q0 -350 -160.5 -554t-502.5 -204q-59 0 -131 12.5t-152 40t-132 84t-52 130.5q0 78 48 125t124 47q70 0 160 -72t149 -72q129 0 178 94.5t49 253.5q-121 -106 -299 -106q-223 0 -359 121t-136 336z M485 965q0 -84 48.5 -134.5t134.5 -50.5q84 0 134 55.5t50 129.5q0 76 -50 130t-134 54t-133.5 -54t-49.5 -130z" />
<glyph unicode=":" horiz-adv-x="684" d="M113 217q0 94 66.5 161.5t162.5 67.5t162.5 -67.5t66.5 -161.5t-66.5 -161.5t-162.5 -67.5t-162.5 67.5t-66.5 161.5zM113 868.5q0 94.5 66.5 162t162.5 67.5t162.5 -67.5t66.5 -162t-66.5 -162t-162.5 -67.5t-162.5 67.5t-66.5 162z" />
<glyph unicode=";" horiz-adv-x="684" d="M113 225q0 92 63.5 156.5t159.5 64.5q102 0 175 -78.5t73 -246.5q0 -109 -36 -194t-93.5 -131t-115.5 -69.5t-114 -23.5q-51 0 -76.5 27.5t-25.5 62.5q0 43 26.5 68.5t94.5 40.5q119 27 118 137q-29 -14 -71 -14q-86 0 -132 58t-46 142zM113 868.5q0 94.5 66.5 162 t162.5 67.5t162.5 -67.5t66.5 -162t-66.5 -162t-162.5 -67.5t-162.5 67.5t-66.5 162z" />
<glyph unicode="&#x3c;" horiz-adv-x="1228" d="M47 579.5q0 79.5 76 116.5l833 383q59 29 113 29q51 0 82 -33t31 -90q0 -88 -97 -129l-659 -276l659 -277q96 -41 97 -129q0 -57 -31 -90t-82 -33q-53 0 -113 29l-833 383q-76 37 -76 116.5z" />
<glyph unicode="=" horiz-adv-x="1228" d="M35 337.5q0 63.5 39 99.5t104 36h873q66 0 104.5 -36t38.5 -99.5t-39 -99t-104 -35.5h-873q-66 0 -104.5 35.5t-38.5 99zM35 821.5q0 63.5 39 99t104 35.5h873q66 0 104.5 -35.5t38.5 -99t-39 -99.5t-104 -36h-873q-66 0 -104.5 36t-38.5 99.5z" />
<glyph unicode="&#x3e;" horiz-adv-x="1228" d="M47 174q0 88 96 129l660 277l-660 276q-96 41 -96 129q0 57 31 90t82 33q53 0 112 -29l834 -383q76 -37 76 -116.5t-76 -116.5l-834 -383q-59 -29 -112 -29q-51 0 -82 33t-31 90z" />
<glyph unicode="?" horiz-adv-x="1214" d="M14 1153q0 123 147.5 239.5t403.5 116.5q274 0 424 -119.5t150 -293.5q0 -96 -39 -169t-96.5 -114t-118 -71.5t-112.5 -63.5t-68 -70q-27 -59 -70 -79.5t-119 -20.5q-162 0 -162 162q0 150 191 245q100 51 130 83t30 92q0 113 -142 112q-115 0 -184 -104 q-45 -70 -80 -90.5t-96 -20.5q-84 0 -136.5 43t-52.5 123zM315 217q0 94 68 161.5t162 67.5t161.5 -67.5t67.5 -161.5t-67.5 -161.5t-161.5 -67.5t-162 67.5t-68 161.5z" />
<glyph unicode="@" horiz-adv-x="1638" d="M61 735q0 330 230.5 552t562.5 222q303 0 513 -173t210 -449q0 -131 -43 -237.5t-104.5 -169t-136 -105.5t-133 -58.5t-101.5 -15.5q-117 0 -123 100h-4q-59 -53 -110.5 -76.5t-129.5 -23.5q-123 0 -204.5 95.5t-81.5 252.5q0 213 118.5 356.5t282.5 143.5 q90 0 148.5 -31t105.5 -98l8 37q16 74 96 73q39 0 63.5 -23.5t24.5 -64.5q0 -23 -39.5 -249t-39.5 -240q0 -43 38 -43q66 0 121.5 83t55.5 236q0 233 -149.5 364.5t-391.5 131.5q-238 0 -401.5 -172t-163.5 -418q0 -266 163.5 -425.5t419.5 -159.5q135 0 229.5 33.5 t142.5 66.5t71 33q33 0 55 -21.5t22 -50.5q0 -45 -71.5 -102.5t-195.5 -100.5t-253 -43q-336 0 -570.5 218t-234.5 552zM639 694q0 -70 38 -114.5t111 -44.5q96 0 152.5 61t56.5 154q0 76 -39.5 120.5t-115.5 44.5q-88 0 -145.5 -65.5t-57.5 -155.5z" />
<glyph unicode="A" horiz-adv-x="1400" d="M14 164q0 66 74 274l313 873q35 96 87.5 143t138.5 47h147q86 0 138.5 -47t86.5 -143l314 -873q74 -209 73 -274q0 -80 -65.5 -135.5t-149.5 -55.5q-63 0 -118.5 30t-71.5 87l-33 109h-495l-33 -109q-16 -57 -71.5 -87t-119.5 -30q-84 0 -149.5 55.5t-65.5 135.5z M539 494h323l-160 538h-4z" />
<glyph unicode="B" horiz-adv-x="1593" d="M162 281v913q0 145 65.5 213t202.5 68h490q276 0 399 -103.5t123 -269.5q0 -250 -209 -305v-4q131 -25 201.5 -121.5t70.5 -237.5q0 -193 -141 -313.5t-412 -120.5h-522q-137 0 -202.5 68t-65.5 213zM621 332h235q88 0 139.5 37t51.5 106q0 141 -191 141h-235v-284z M621 874h231q66 0 104.5 40t38.5 94q0 135 -143 135h-231v-269z" />
<glyph unicode="C" horiz-adv-x="1517" d="M90 737q0 186 63.5 337t171 244t242.5 142t285 49q256 0 433 -126t177 -289q0 -88 -62.5 -145.5t-160.5 -57.5q-66 0 -99.5 22.5t-80.5 100.5q-45 72 -98.5 99.5t-133.5 27.5q-115 0 -190.5 -107.5t-75.5 -296.5q0 -186 74 -294.5t217 -108.5q66 0 110 29.5t113 125.5 q70 98 172 99q94 0 156.5 -58.5t62.5 -148.5q0 -123 -100 -221.5t-238.5 -146.5t-275.5 -48q-152 0 -286 47t-242.5 138.5t-171 241.5t-62.5 345z" />
<glyph unicode="D" horiz-adv-x="1593" d="M141 281v913q0 145 65.5 213t203.5 68h399q350 0 528.5 -206t178.5 -531.5t-178.5 -531.5t-528.5 -206h-399q-137 0 -203 68t-66 213zM600 369h105q195 0 267 90t72 278.5t-72.5 278.5t-266.5 90h-105v-737z" />
<glyph unicode="E" horiz-adv-x="1478" d="M168 281v913q0 145 65.5 213t202.5 68h750q102 0 153.5 -46.5t51.5 -126t-51.5 -126t-153.5 -46.5h-547v-206h438q102 0 153.5 -46.5t51.5 -126t-51 -125.5t-154 -46h-438v-236h569q102 0 153.5 -46t51.5 -126t-51 -126t-154 -46h-772q-137 0 -202.5 68t-65.5 213z" />
<glyph unicode="F" horiz-adv-x="1366" d="M168 227v967q0 145 65.5 213t202.5 68h678q223 0 223 -184.5t-223 -184.5h-475v-232h426q80 0 125 -52t45 -125.5t-45 -126t-125 -52.5h-426v-291q0 -119 -63.5 -186.5t-172 -67.5t-172 67.5t-63.5 186.5z" />
<glyph unicode="G" horiz-adv-x="1705" d="M106 737q0 199 68 353.5t179.5 242.5t237.5 132t257 44q135 0 244.5 -25.5t174 -64.5t108.5 -89t60.5 -92t16.5 -81q0 -78 -61.5 -142.5t-163.5 -64.5q-41 0 -75 19.5t-59.5 47t-54 56.5t-72.5 48.5t-102 19.5q-127 0 -206.5 -101.5t-79.5 -310.5q0 -201 67.5 -304 t237.5 -103q209 0 260 176h-115q-55 0 -97 41t-42 104q0 76 41 119t117 43h303q102 0 161.5 -63.5t59.5 -159.5v-422q0 -195 -164 -195q-70 0 -113 42t-43 104v41h-4q-53 -86 -173 -136.5t-249 -50.5q-133 0 -252.5 39t-228 123t-173.5 240.5t-65 369.5z" />
<glyph unicode="H" horiz-adv-x="1705" d="M152 227v1020q0 119 63.5 186.5t172 67.5t172 -67.5t63.5 -186.5v-278h460v278q0 119 63.5 186.5t172 67.5t172 -67.5t63.5 -186.5v-1020q0 -119 -63.5 -186.5t-172 -67.5t-172 68t-63.5 186v344h-460v-344q0 -119 -63.5 -186.5t-172 -67.5t-172 67.5t-63.5 186.5z" />
<glyph unicode="I" horiz-adv-x="794" d="M162 227v1020q0 119 63.5 186.5t172 67.5t172 -67.5t63.5 -186.5v-1020q0 -119 -63.5 -186.5t-172 -67.5t-172 67.5t-63.5 186.5z" />
<glyph unicode="J" horiz-adv-x="1366" d="M63 397q0 248 226 248q82 0 139 -49t57 -139q0 -135 113 -135q59 0 88 48t29 171v706q0 119 63.5 186.5t172 67.5t172 -67.5t63.5 -186.5v-798q0 -160 -86 -274t-212 -162t-276 -48q-244 0 -396.5 123t-152.5 309z" />
<glyph unicode="K" horiz-adv-x="1554" d="M168 227v1020q0 119 63.5 186.5t172 67.5t172 -67.5t63.5 -186.5v-291l371 406q74 80 116.5 109.5t98.5 29.5q90 0 149.5 -63.5t59.5 -134.5q0 -47 -20.5 -83t-70.5 -87l-221 -244l359 -559q47 -76 47 -140q0 -90 -73 -153.5t-167 -63.5q-129 0 -194 105l-322 497 l-133 -145v-203q0 -119 -63.5 -186.5t-172 -67.5t-172 67.5t-63.5 186.5z" />
<glyph unicode="L" horiz-adv-x="1366" d="M168 281v966q0 119 63.5 186.5t172 67.5t172 -67.5t63.5 -186.5v-866h494q92 0 147 -50t55 -140.5t-55 -140.5t-147 -50h-697q-137 0 -202.5 68t-65.5 213z" />
<glyph unicode="M" horiz-adv-x="1933" d="M141 184v1061q0 117 63.5 186.5t182.5 69.5h133q111 0 166 -43t84 -153l195 -732h4l194 732q29 111 84.5 153.5t165.5 42.5h133q119 0 182.5 -69.5t63.5 -186.5v-1061q0 -102 -56.5 -156.5t-154.5 -54.5t-154.5 54.5t-56.5 156.5v717h-4l-213 -797q-20 -74 -60 -102.5 t-126 -28.5t-126 29t-61 102l-213 797h-4v-717q0 -102 -56 -156.5t-154.5 -54.5t-155 54.5t-56.5 156.5z" />
<glyph unicode="N" horiz-adv-x="1705" d="M152 211v1046q0 121 68.5 186.5t201.5 65.5q172 0 256 -143l414 -709h4v617q0 104 61.5 169.5t168 65.5t167.5 -65.5t61 -169.5v-1084q0 -115 -72.5 -170t-193.5 -55q-96 0 -156.5 38t-125.5 147l-392 643h-4v-582q0 -119 -59 -182.5t-170 -63.5t-170 63.5t-59 182.5z " />
<glyph unicode="O" horiz-adv-x="1703" d="M90 737q0 186 63.5 337t171 244t242.5 142t284.5 49t285 -49t243 -142t171 -243.5t63.5 -337.5q0 -195 -62.5 -345t-171 -241.5t-242.5 -138.5t-286 -47t-286 47t-242.5 138.5t-171 241.5t-62.5 345zM561 737.5q0 -186.5 74 -295t217 -108.5t217 108.5t74 295t-74 295 t-217 108.5t-217 -108.5t-74 -295z" />
<glyph unicode="P" horiz-adv-x="1593" d="M168 219v975q0 145 65.5 213t202.5 68h426q143 0 254 -25t202 -80t139 -157.5t48 -247.5q0 -143 -48 -246t-139 -158t-201.5 -79.5t-254.5 -24.5h-235v-238q0 -119 -59.5 -182.5t-170 -63.5t-170 63.5t-59.5 182.5zM627 813h260q63 0 111.5 39t48.5 111q0 74 -48.5 114.5 t-134.5 40.5h-237v-305z" />
<glyph unicode="Q" horiz-adv-x="1703" d="M90 737q0 186 63.5 337t171 244t242.5 142t284.5 49t285 -49t243 -142t171 -243.5t63.5 -337.5q0 -315 -164 -512l53 -55q90 -92 90 -145.5t-45 -104.5t-118 -51q-57 0 -140 84l-82 86q-164 -74 -356 -74q-152 0 -286 47t-242.5 138.5t-171 241.5t-62.5 345zM561 737.5 q0 -186.5 74 -295t217 -108.5q39 0 66 8l-41 43q-74 78 -74 133q0 61 45 105.5t106 44.5q70 0 129 -62l39 -41q20 70 21 172q0 186 -74 295t-217 109t-217 -108.5t-74 -295z" />
<glyph unicode="R" horiz-adv-x="1593" d="M141 219v975q0 147 69 214t220 67h522q256 0 389.5 -119t133.5 -299q0 -141 -80 -233.5t-219 -118.5v-5q121 -8 189.5 -57t82.5 -160l16 -123q20 -139 21 -206q0 -80 -64.5 -130.5t-146.5 -50.5q-238 0 -260 203l-23 195q-18 154 -207 153h-184v-305q0 -119 -59.5 -182.5 t-170 -63.5t-170 63.5t-59.5 182.5zM600 831h236q102 0 147 34t45 110t-45 109.5t-147 33.5h-236v-287z" />
<glyph unicode="S" horiz-adv-x="1478" d="M106 1032q0 203 142.5 340t431.5 137q113 0 214 -15t198.5 -48t155 -97.5t57.5 -152.5q0 -84 -57.5 -135t-147.5 -51q-51 0 -95 27.5t-73 62.5t-88.5 62.5t-136.5 27.5q-66 0 -110 -25.5t-44 -73t38 -73t120 -47.5l243 -66q203 -55 310.5 -156.5t107.5 -281.5 q0 -246 -178 -374t-434 -128q-176 0 -309.5 36t-203 92.5t-102 113.5t-32.5 112q0 86 56 139.5t142 53.5q55 0 104.5 -34t82 -73.5t94 -73.5t139.5 -34q80 0 131 29.5t51 93.5q0 43 -29.5 65.5t-99.5 42.5l-313 90q-365 105 -365 414z" />
<glyph unicode="T" horiz-adv-x="1478" d="M27 1284q0 190 209 191h1007q209 0 209 -191q0 -88 -48 -139t-144 -51h-285v-867q0 -119 -63.5 -186.5t-172 -67.5t-172 68t-63.5 186v867h-285q-96 0 -144 51t-48 139z" />
<glyph unicode="U" horiz-adv-x="1703" d="M143 571v676q0 119 63.5 186.5t172 67.5t172 -67.5t63.5 -186.5v-672q0 -254 238 -253.5t238 253.5v672q0 119 63.5 186.5t172 67.5t172 -67.5t63.5 -186.5v-676q0 -317 -190.5 -461.5t-518.5 -144.5t-518.5 144.5t-190.5 461.5z" />
<glyph unicode="V" horiz-adv-x="1478" d="M72 1303q0 86 66.5 142t156.5 56q74 0 137.5 -39t83.5 -123l221 -847h4l222 847q20 84 83.5 123t137.5 39q90 0 156.5 -56t66.5 -142q0 -61 -31 -154l-342 -985q-39 -117 -102.5 -154t-192.5 -37t-192.5 37t-102.5 154l-342 985q-30 93 -30 154z" />
<glyph unicode="W" horiz-adv-x="1970" d="M49 1296q0 90 59.5 147.5t153.5 57.5q195 0 223 -188l129 -803h4l130 764q20 125 70 176t167 51t167 -51t71 -176l129 -764h4l129 803q29 188 223 188q94 0 153.5 -57.5t59.5 -147.5q0 -63 -51 -272l-207 -840q-51 -211 -246 -211h-71q-100 0 -154.5 53.5t-75.5 163.5 l-129 684h-4l-129 -684q-20 -111 -74.5 -164t-154.5 -53h-72q-195 0 -246 211l-207 840q-51 209 -51 272z" />
<glyph unicode="X" horiz-adv-x="1290" d="M31 182q0 57 55 142l287 438l-262 397q-43 66 -43 127q0 94 64.5 154.5t152.5 60.5q133 0 190 -104l170 -310l170 310q57 104 191 104q88 0 152.5 -60.5t64.5 -154.5q0 -61 -43 -127l-262 -397l286 -438q55 -84 56 -142q0 -104 -73 -156.5t-155 -52.5q-133 0 -207 129 l-180 320l-180 -320q-74 -129 -207 -129q-82 0 -154.5 52.5t-72.5 156.5z" />
<glyph unicode="Y" d="M47 1278q0 90 65.5 156.5t159.5 66.5q150 0 220 -143l190 -395l190 395q70 143 220 143q94 0 159.5 -66.5t65.5 -156.5q0 -59 -60 -162l-339 -588v-301q0 -119 -63.5 -186.5t-172.5 -67.5t-172.5 68t-63.5 186v301l-340 588q-59 103 -59 162z" />
<glyph unicode="Z" horiz-adv-x="1478" d="M45 207q0 57 26.5 108.5t104.5 135.5l590 655h-459q-113 0 -169 49t-56 135t56.5 135.5t168.5 49.5h889q106 0 160.5 -57.5t54.5 -149.5q0 -94 -94 -199l-631 -700h533q215 0 215 -184.5t-215 -184.5h-943q-115 0 -173 57.5t-58 149.5z" />
<glyph unicode="[" horiz-adv-x="796" d="M129 -162v1442q0 195 240 195h217q188 0 188 -148q0 -72 -41 -109.5t-108 -37.5h-136v-1241h136q68 0 108.5 -38t40.5 -110q0 -147 -188 -147h-217q-240 -1 -240 194z" />
<glyph unicode="\" horiz-adv-x="796" d="M31 1368q0 68 46 104.5t103 36.5q68 0 95.5 -24.5t56.5 -110.5l377 -1067q57 -166 57 -201q0 -68 -46 -104.5t-104 -36.5q-68 0 -95 24.5t-56 110.5l-377 1067q-57 166 -57 201z" />
<glyph unicode="]" horiz-adv-x="796" d="M23 -209q0 72 40.5 110t108.5 38h135v1241h-135q-68 0 -108.5 37.5t-40.5 109.5q0 147 188 148h217q240 0 240 -195v-1442q0 -195 -240 -194h-217q-188 0 -188 147z" />
<glyph unicode="^" horiz-adv-x="1228" d="M137 705q0 39 27 90l315 573q47 88 135 88t136 -88l315 -573q27 -51 27 -90q0 -74 -105 -74q-51 0 -83 17.5t-58 64.5l-232 424l-231 -424q-27 -47 -58.5 -64.5t-82.5 -17.5q-105 0 -105 74z" />
<glyph unicode="_" horiz-adv-x="1024" d="M-59 -205q0 51 59 51h1024q59 0 59 -51t-59 -51h-1024q-59 0 -59 51z" />
<glyph unicode="`" horiz-adv-x="569" d="M-37 1477q0 51 42 88t87 37q33 0 59.5 -12.5t75.5 -55.5l170 -145q57 -47 58 -109q0 -51 -42 -88t-87 -37q-33 0 -59.5 12.5t-76.5 55.5l-170 145q-57 48 -57 109z" />
<glyph unicode="a" d="M86 305q0 145 123 232.5t420 105.5q123 8 172 29.5t49 75.5q0 104 -170 104q-96 0 -198.5 -72.5t-170.5 -72.5q-63 0 -98 33.5t-35 97.5q0 117 145.5 188.5t368.5 71.5q96 0 185.5 -13.5t180.5 -45t146.5 -97t55.5 -160.5v-469q0 -39 6 -103.5t6 -86.5q0 -74 -57.5 -112 t-139.5 -38q-188 0 -213 170q-113 -170 -377 -170q-184 0 -291.5 81t-107.5 251zM520 311q0 -47 38 -75.5t91 -28.5q86 0 143.5 46t57.5 107v121q-35 -37 -144.5 -55t-127.5 -27q-58 -25 -58 -88z" />
<glyph unicode="b" d="M104 178v1112q0 211 205 211t205 -211v-356h4q102 164 297 164q125 0 220 -57.5t146.5 -146.5t76 -179t24.5 -176q0 -260 -129 -413t-350 -153q-104 0 -200.5 49.5t-121.5 143.5h-4q0 -84 -48 -138.5t-136 -54.5q-189 0 -189 205zM508 535q0 -254 170 -254q98 0 140 70.5 t42 172.5q0 104 -45 173t-145 69q-72 0 -117 -61t-45 -170z" />
<glyph unicode="c" horiz-adv-x="1251" d="M82 536.5q0 278.5 167 420t433 141.5q213 0 351 -87t138 -202q0 -70 -43 -113t-108 -43q-45 0 -90 38t-98.5 75t-116.5 37q-117 0 -164 -76t-47 -182q0 -119 45 -198t147 -79q74 0 170.5 75t151.5 75q72 0 115 -48t43 -108q0 -37 -26 -82t-79 -93t-155.5 -81t-233.5 -33 q-266 0 -433 142.5t-167 421z" />
<glyph unicode="d" d="M82 539q0 86 24.5 176t75.5 179t146.5 146.5t220.5 57.5q195 0 297 -164h4v356q0 211 205 211t205 -211v-1112q0 -205 -189 -205q-88 0 -136 54.5t-48 138.5h-4q-25 -94 -121 -143.5t-201 -49.5q-221 0 -350 153t-129 413zM504 524q0 -102 42 -172.5t140 -70.5 q170 0 170 254q0 109 -45 170t-117 61q-100 0 -145 -69t-45 -173z" />
<glyph unicode="e" d="M82 536.5q0 278.5 167 420t433 141.5q166 0 293 -52.5t192.5 -131t97 -155.5t31.5 -145q0 -94 -46 -133t-148 -39h-598q8 -104 66.5 -163.5t158.5 -59.5q80 0 195.5 65.5t177.5 65.5q53 0 92 -43t39 -96q0 -98 -134 -168t-417 -70q-266 0 -433 142.5t-167 421zM504 651 h395q0 104 -55.5 152.5t-141.5 48.5q-80 0 -137 -48.5t-61 -152.5z" />
<glyph unicode="f" horiz-adv-x="872" d="M0 948q0 123 131 123h78v80q0 178 94 268t275 90q168 0 231 -43t63 -116q0 -78 -45 -113t-161 -35q-47 0 -48 -49v-82h107q131 0 131 -123t-131 -123h-107v-641q0 -211 -204.5 -211t-204.5 211v641h-78q-131 0 -131 123z" />
<glyph unicode="g" d="M92 582q0 219 126 367.5t341 148.5q106 0 202.5 -49.5t121.5 -143.5h4q0 84 48 138.5t136 54.5q188 0 189 -205v-862q0 -455 -601 -455q-141 0 -246.5 25.5t-158.5 66.5t-76.5 79t-23.5 75q0 68 42 111.5t111 43.5q43 0 141.5 -65.5t176.5 -65.5q125 0 175 55.5t50 174.5 v141h-4q-31 -74 -112 -110.5t-183 -36.5q-61 0 -122.5 16t-123 55t-107.5 95.5t-76 145.5t-30 200zM514 577.5q0 -225.5 176 -225.5q92 0 134 63.5t42 162t-42 162t-134 63.5q-176 0 -176 -225.5z" />
<glyph unicode="h" d="M104 182v1110q0 104 57.5 156.5t154 52.5t153.5 -52t57 -157v-360h4q113 166 318 166q209 0 310.5 -114t101.5 -300v-502q0 -104 -57.5 -156.5t-154 -52.5t-153.5 52.5t-57 156.5v404q0 180 -156 180q-76 0 -116 -55.5t-40 -153.5v-375q0 -104 -57 -156.5t-153.5 -52.5 t-154 52.5t-57.5 156.5z" />
<glyph unicode="i" horiz-adv-x="643" d="M111 182v707q0 104 57 156.5t153.5 52.5t153.5 -52.5t57 -156.5v-707q0 -104 -57 -156.5t-153.5 -52.5t-153.5 52.5t-57 156.5zM123 1374q0 84 57.5 141.5t141.5 57.5t141 -57.5t57 -141.5t-57 -141t-141 -57t-141.5 57t-57.5 141z" />
<glyph unicode="j" horiz-adv-x="681" d="M-33 -231q0 55 30 80.5t97 35.5q55 8 56 33v971q0 104 57 156.5t153.5 52.5t153.5 -52.5t57 -156.5v-965q0 -152 -94 -239.5t-278 -87.5q-232 0 -232 172zM162 1374q0 84 58.5 141.5t140 57.5t140 -57.5t58.5 -141.5t-58.5 -141t-140 -57t-140 57t-58.5 141z" />
<glyph unicode="k" horiz-adv-x="1214" d="M104 184v1106q0 211 205 211t205 -211v-571h4l238 291q72 88 162 88q74 0 130 -49.5t56 -126.5q0 -74 -78 -148l-137 -131l205 -293q80 -117 80 -188q0 -84 -61.5 -136.5t-149.5 -52.5q-80 0 -126 38t-116 159l-115 197l-92 -88v-95q0 -211 -205 -211t-205 211z" />
<glyph unicode="l" horiz-adv-x="643" d="M111 182v1110q0 104 57 156.5t153.5 52.5t153.5 -52t57 -157v-1110q0 -104 -57 -156.5t-153.5 -52.5t-153.5 52.5t-57 156.5z" />
<glyph unicode="m" horiz-adv-x="2048" d="M111 182v715q0 201 202 201q90 0 134.5 -49.5t54.5 -149.5h4q109 199 348 199q113 0 202 -52.5t115 -154.5q125 207 357 207q207 0 308 -114t101 -300v-502q0 -104 -57 -156.5t-153.5 -52.5t-153.5 52.5t-57 156.5v404q0 98 -34 139t-106 41q-57 0 -99 -53.5t-42 -139.5 v-391q0 -104 -57.5 -156.5t-153.5 -52.5t-153.5 52.5t-57.5 156.5v404q0 98 -34 139t-105 41q-57 0 -99.5 -53.5t-42.5 -139.5v-391q0 -104 -57 -156.5t-153.5 -52.5t-153.5 52.5t-57 156.5z" />
<glyph unicode="n" d="M104 182v715q0 201 203 201q90 0 134 -49.5t55 -149.5h4q109 199 348 199q209 0 310.5 -114t101.5 -300v-502q0 -104 -57.5 -156.5t-154 -52.5t-153.5 52.5t-57 156.5v404q0 180 -156 180q-76 0 -116 -55.5t-40 -153.5v-375q0 -104 -57 -156.5t-153.5 -52.5t-154 52.5 t-57.5 156.5z" />
<glyph unicode="o" d="M82 536.5q0 278.5 167 420t433 141.5t433 -141.5t167 -420t-167 -421t-433 -142.5t-433 142.5t-167 421zM504 524q0 -268 178 -268t178 268q0 291 -178 291t-178 -291z" />
<glyph unicode="p" d="M104 -213v1106q0 205 189 205q88 0 136 -54.5t48 -138.5h4q25 94 121 143.5t201 49.5q221 0 350 -152.5t129 -413.5q0 -86 -24.5 -176t-76 -179t-146.5 -146.5t-220 -57.5q-195 0 -297 164h-4v-350q0 -211 -205 -211t-205 211zM508 537q0 -109 45 -170.5t117 -61.5 q100 0 145 68.5t45 173.5q0 102 -42 173t-140 71q-170 0 -170 -254z" />
<glyph unicode="q" d="M82 532q0 260 129 413t350 153q104 0 200.5 -49.5t121.5 -143.5h4q0 84 48 138.5t136 54.5q188 0 189 -205v-1106q0 -211 -205 -211t-205 211v350h-4q-102 -164 -297 -164q-125 0 -220.5 57.5t-146.5 146.5t-75.5 179t-24.5 176zM504 547q0 -104 45 -173t145 -69 q72 0 117 61.5t45 170.5q0 254 -170 254q-98 0 -140 -71t-42 -173z" />
<glyph unicode="r" horiz-adv-x="985" d="M104 182v707q0 102 54.5 155.5t136.5 53.5q86 0 137 -52.5t51 -164.5v-82h4q55 152 121 225.5t154 73.5t130 -57.5t42 -137.5q0 -160 -115 -188l-114 -29q-92 -23 -135.5 -68t-43.5 -143v-293q0 -104 -57 -156.5t-153.5 -52.5t-154 52.5t-57.5 156.5z" />
<glyph unicode="s" horiz-adv-x="1214" d="M59 233q0 53 44 91t106 38q47 0 100 -38.5t123 -77.5t156 -39q63 0 98 25.5t35 58.5q0 70 -137 98l-125 27q-221 47 -309.5 128t-88.5 206q0 145 126 246.5t415 101.5q131 0 243.5 -23.5t189.5 -78t77 -132.5q0 -55 -39 -93t-100 -38q-55 0 -110.5 33t-121 65.5 t-151.5 32.5q-119 0 -119 -76q0 -33 25.5 -50t105.5 -36l178 -38q375 -82 375 -320q0 -160 -137 -265.5t-445 -105.5q-219 0 -366.5 66.5t-147.5 193.5z" />
<glyph unicode="t" horiz-adv-x="872" d="M0 948q0 123 131 123h78v135q0 211 204.5 211t204.5 -211v-135h123q131 0 131 -123t-131 -123h-123v-465v-30q0 -49 48 -49q117 0 161.5 -35t44.5 -113q0 -74 -63.5 -117t-230.5 -43q-180 0 -274.5 90.5t-94.5 268.5v493h-78q-131 0 -131 123z" />
<glyph unicode="u" d="M104 387v502q0 104 57.5 156.5t154 52.5t153.5 -52.5t57 -156.5v-404q0 -180 156 -180q76 0 116 55.5t40 153.5v375q0 104 57 156.5t153.5 52.5t154 -52.5t57.5 -156.5v-715q0 -201 -203 -201q-90 0 -134 49.5t-55 149.5h-4q-109 -199 -348 -199q-209 0 -310.5 114 t-101.5 300z" />
<glyph unicode="v" horiz-adv-x="1138" d="M31 920q0 80 55 129t139 49q98 0 138 -40t69 -151l141 -545h5l135 545q25 100 65.5 145.5t134.5 45.5q84 0 139.5 -49.5t55.5 -128.5q0 -76 -41 -191l-219 -610q-35 -96 -92.5 -121t-186.5 -25q-125 0 -181 25t-91 121l-219 610q-47 136 -47 191z" />
<glyph unicode="w" horiz-adv-x="1818" d="M45 924q0 72 53.5 123t143.5 51q152 0 182 -135l143 -603h4l111 533q25 127 67 166t160 39q117 0 158 -39t70 -166l123 -533h4l131 603q31 135 182 135q90 0 143.5 -51.5t53.5 -122.5q0 -66 -41 -189l-185 -565q-41 -125 -87 -161t-158 -36q-135 0 -198 36t-93 167 l-101 451h-4l-100 -451q-31 -131 -93.5 -167t-197.5 -36q-113 0 -159 36t-87 161l-184 565q-41 123 -41 189z" />
<glyph unicode="x" horiz-adv-x="1060" d="M45 150q0 72 72 178l155 229l-151 225q-55 82 -55 142q0 66 59 120t139 54q57 0 96 -24.5t76 -92.5l94 -180l97 184q35 66 73.5 89.5t96.5 23.5q80 0 139 -54.5t59 -119.5q0 -59 -55 -142l-152 -225l156 -229q72 -106 72 -178q0 -66 -49 -121.5t-142 -55.5q-63 0 -105 27 t-81 98l-109 205l-108 -205q-39 -72 -81 -98.5t-105 -26.5q-92 0 -141.5 55.5t-49.5 121.5z" />
<glyph unicode="y" horiz-adv-x="1138" d="M35 918q0 78 59.5 129t147.5 51q141 0 180 -158l153 -594h5l122 512q31 131 76 185.5t127 54.5t140.5 -47t58.5 -133q0 -43 -80 -273l-246 -719q-113 -330 -452 -329q-123 0 -186.5 46t-63.5 130q0 131 162 131q109 0 108 51q0 27 -20 82l-226 641q-65 185 -65 240z" />
<glyph unicode="z" horiz-adv-x="1175" d="M57 154q0 94 93 186l444 436h-334q-78 0 -118 33t-40 115q0 80 41 113.5t140 33.5h667q76 0 115 -49t39 -131q0 -51 -14.5 -83t-57.5 -75l-438 -438h367q78 0 117.5 -33t39.5 -114.5t-40 -114.5t-117 -33h-760q-70 0 -107 46.5t-37 107.5z" />
<glyph unicode="{" horiz-adv-x="796" d="M31 559q0 41 25.5 69.5t72.5 28.5q55 0 75.5 28t20.5 108v413q0 141 81 205t267 64h152q92 0 92 -98.5t-92 -98.5h-51q-88 0 -88 -119v-391q0 -197 -224 -207v-4q223 -10 224 -207v-391q0 -119 88 -119h51q92 0 92 -98t-92 -98h-152q-186 0 -267 63.5t-81 204.5v414 q0 80 -20.5 107.5t-75.5 27.5q-47 0 -72.5 28.5t-25.5 69.5z" />
<glyph unicode="|" horiz-adv-x="454" d="M80 135v1204q0 170 147.5 170t147.5 -170v-1204q0 -170 -147.5 -170t-147.5 170z" />
<glyph unicode="}" horiz-adv-x="796" d="M-20 -258q0 98 92 98h51q88 0 88 119v391q0 197 223 207v4q-223 10 -223 207v391q0 119 -88 119h-51q-92 0 -92 98.5t92 98.5h151q186 0 267 -63.5t81 -205.5v-413q0 -80 20.5 -108t76.5 -28q47 0 72.5 -28.5t25.5 -69.5t-25.5 -69.5t-72.5 -28.5q-55 0 -76 -27.5 t-21 -107.5v-414q0 -141 -80.5 -204.5t-267.5 -63.5h-151q-92 0 -92 98z" />
<glyph unicode="~" horiz-adv-x="1228" d="M84 502q0 109 82 195.5t207 86.5q96 0 254.5 -69.5t201.5 -69.5q59 0 124 61.5t104 61.5q88 0 88 -111q0 -109 -82 -195.5t-207 -86.5q-96 0 -255 69.5t-202 69.5q-59 0 -123.5 -61.5t-103.5 -61.5q-88 0 -88 111z" />
<glyph unicode="&#xa1;" horiz-adv-x="757" d="M150 868.5q0 94.5 66.5 162t162.5 67.5t162.5 -67.5t66.5 -162t-66.5 -162t-162.5 -67.5t-162.5 67.5t-66.5 162zM156 -176q0 211 92 633q12 57 40.5 81.5t90 24.5t90.5 -24.5t41 -81.5q92 -422 92 -633q0 -240 -223 -240t-223 240z" />
<glyph unicode="&#xa2;" horiz-adv-x="1368" d="M137 537q0 256 142.5 396t377.5 161v151q0 109 88.5 109t88.5 -109v-153q174 -18 283.5 -100.5t109.5 -182.5q0 -70 -43 -113t-109 -43q-45 0 -90 38t-98 75t-117 37q-117 0 -164 -76t-47 -182q0 -119 45 -198t148 -79q74 0 170 75t151 75q72 0 115 -48t43 -108 q0 -80 -99.5 -171t-297.5 -111v-203q0 -109 -88.5 -109t-88.5 109v203q-236 18 -378 159.5t-142 397.5z" />
<glyph unicode="&#xa3;" horiz-adv-x="1368" d="M98 698q0 47 34 82t79 35h59q-80 90 -80 221q0 195 164 307.5t391 112.5q256 0 416 -114.5t160 -264.5q0 -74 -50 -122t-126 -48q-113 0 -189 146q-31 55 -68.5 75.5t-99.5 20.5q-68 0 -122 -41t-54 -115q0 -76 68 -178h231q45 0 79 -35t34 -82t-34 -81.5t-79 -34.5h-202 q-29 -164 -199 -295l6 -4q102 72 189 71q66 0 158.5 -18.5t129.5 -18.5q43 0 98.5 18.5t86.5 18.5q82 0 126 -50t44 -120q0 -94 -77 -152.5t-237 -58.5q-115 0 -253 37t-201 37q-61 0 -143.5 -37t-125.5 -37q-74 0 -125 53.5t-51 125.5q0 47 29 83.5t79 80.5t76 87 q31 47 31 115q0 35 -6 64h-133q-45 0 -79 34.5t-34 81.5z" />
<glyph unicode="&#xa4;" horiz-adv-x="1368" d="M162 715q0 162 86 289l-47 47q-33 33 -33 67q0 41 31.5 74t72.5 33q49 0 80 -31l43 -43q135 86 289 86t289 -86l43 43q31 31 80 31q41 0 72.5 -33t31.5 -74q0 -35 -33 -67l-47 -47q86 -127 86 -289t-86 -289l47 -47q33 -33 33 -68q0 -41 -31.5 -73.5t-72.5 -32.5 q-49 0 -80 31l-43 43q-135 -86 -289 -86t-289 86l-43 -43q-31 -31 -80 -31q-41 0 -72.5 32.5t-31.5 73.5q0 35 33 68l47 47q-86 127 -86 289zM420 714.5q0 -108.5 77.5 -186t186.5 -77.5t186.5 77.5t77.5 186t-77.5 186.5t-186.5 78t-186.5 -78t-77.5 -186.5z" />
<glyph unicode="&#xa5;" horiz-adv-x="1368" d="M102 1274q0 74 55.5 128t143.5 54q137 0 201 -139l180 -393h4l180 393q63 139 201 139q88 0 143.5 -54t55.5 -128q0 -88 -74 -209l-156 -256h68q45 0 79 -35t34 -82t-34 -82t-79 -35h-209v-112h209q45 0 79 -35t34 -82t-34 -82t-79 -35h-209v-10q0 -113 -59.5 -179.5 t-151.5 -66.5t-151.5 66.5t-59.5 179.5v10h-209q-45 0 -78.5 35t-33.5 82t33.5 82t78.5 35h209v112h-209q-45 0 -78.5 35t-33.5 82t33.5 82t78.5 35h68l-156 256q-74 121 -74 209z" />
<glyph unicode="&#xa6;" horiz-adv-x="454" d="M80 135v301q0 170 147.5 170t147.5 -170v-301q0 -170 -147.5 -170t-147.5 170zM80 1038v301q0 170 147.5 170t147.5 -170v-301q0 -170 -147.5 -170t-147.5 170z" />
<glyph unicode="&#xa7;" horiz-adv-x="1366" d="M152 578q0 207 213 294q-139 80 -140 279q0 170 121 264t324 94q186 0 322 -80.5t136 -205.5q0 -61 -39.5 -99.5t-103.5 -38.5q-39 0 -77 28t-64.5 61.5t-69.5 61.5t-92 28q-137 0 -137 -103q0 -70 127 -123l254 -108q147 -63 217.5 -148.5t70.5 -210.5q0 -98 -50 -168.5 t-163 -126.5q139 -80 140 -278q0 -170 -122 -264t-331 -94q-193 0 -331 80.5t-138 205.5q0 61 40 99t103 38q39 0 77 -27.5t65.5 -61t73 -61.5t98.5 -28q145 0 145 103q0 70 -127 123l-254 108q-147 63 -217.5 148.5t-70.5 210.5zM434 623q0 -57 78 -95l309 -139 q66 39 88.5 66.5t22.5 64.5q0 57 -78 94l-309 140q-66 -39 -88.5 -66.5t-22.5 -64.5z" />
<glyph unicode="&#xa8;" horiz-adv-x="569" d="M-147 1378.5q0 75.5 55 131t131 55.5t131 -55.5t55 -131t-55 -131t-131 -55.5t-131 55.5t-55 131zM344 1378.5q0 75.5 55.5 131t131 55.5t131 -55.5t55.5 -131t-55.5 -131t-131 -55.5t-131 55.5t-55.5 131z" />
<glyph unicode="&#xa9;" horiz-adv-x="1638" d="M47 737.5q0 319.5 226.5 545.5t546 226t545.5 -226t226 -545.5t-226 -546t-545.5 -226.5t-546 226.5t-226.5 546zM256 737.5q0 -233.5 165 -398.5t398.5 -165t398 165t164.5 398.5t-164.5 398t-398 164.5t-398.5 -164.5t-165 -398zM438 743q0 197 110.5 322t297.5 125 q152 0 247 -80t95 -170q0 -43 -27.5 -71.5t-64.5 -28.5q-47 0 -74 25.5t-38 57t-48 57.5t-102 26q-84 0 -135.5 -70t-51.5 -188q0 -117 52.5 -191t138.5 -74q59 0 96 28t52 59.5t45 59t73 27.5t67.5 -24.5t24.5 -65.5q0 -76 -98.5 -172t-247.5 -96q-182 0 -297 127t-115 317 z" />
<glyph unicode="&#xaa;" horiz-adv-x="888" d="M55 979q0 186 377 205q123 6 123 61q0 63 -111 64q-63 0 -129.5 -44t-109.5 -44q-86 0 -86 90q0 61 99 103t237 42q63 0 121.5 -8t118 -26.5t95 -58.5t35.5 -97v-281q0 -25 4.5 -62.5t4.5 -52.5q0 -45 -38 -67.5t-94 -22.5q-125 0 -139 103q-74 -102 -246 -103 q-262 0 -262 199zM338 991q0 -31 24.5 -47t61.5 -16q55 0 93 27.5t38 62.5v80q-23 -23 -94.5 -34t-83.5 -15q-39 -13 -39 -58z" />
<glyph unicode="&#xab;" horiz-adv-x="1366" d="M174 579.5q0 79.5 10.5 110.5t34.5 49q63 49 213 138q55 33 86 32q102 0 103 -108q0 -80 -54 -111l-198 -110l198 -111q53 -31 54 -111q0 -109 -103 -108q-31 0 -86 33q-150 88 -213 137q-25 18 -35 49t-10 110.5zM692 579.5q0 79.5 10.5 110.5t34.5 49q63 49 213 138 q55 33 86 32q102 0 103 -108q0 -80 -54 -111l-198 -110l198 -111q53 -31 54 -111q0 -109 -103 -108q-31 0 -86 33q-150 88 -213 137q-25 18 -35 49t-10 110.5z" />
<glyph unicode="&#xac;" horiz-adv-x="1228" d="M35 821.5q0 63.5 39 99t104 35.5h852q98 0 131 -34.5t33 -128.5v-416q0 -63 -35 -103.5t-94 -40.5t-94 40t-35 104v309h-758q-66 0 -104.5 36t-38.5 99.5z" />
<glyph unicode="&#xad;" horiz-adv-x="796" d="M39 579.5q0 90.5 48 141.5t144 51h334q96 0 144.5 -51t48.5 -141.5t-48 -141.5t-145 -51h-334q-96 0 -144 51t-48 141.5z" />
<glyph unicode="&#xae;" horiz-adv-x="1638" d="M47 737.5q0 319.5 226.5 545.5t546 226t545.5 -226t226 -545.5t-226 -546t-545.5 -226.5t-546 226.5t-226.5 546zM256 737.5q0 -233.5 165 -398.5t398.5 -165t398 165t164.5 398.5t-164.5 398t-398 164.5t-398.5 -164.5t-165 -398zM512 430v629q0 94 113 94h239 q150 0 224.5 -56.5t74.5 -193.5q0 -106 -55 -165.5t-133 -63.5l141 -191q27 -37 27 -73q0 -33 -24.5 -53.5t-61.5 -20.5q-35 0 -55.5 15.5t-49.5 54.5l-190 268h-62v-244q0 -45 -26.5 -69.5t-67.5 -24.5t-67.5 24.5t-26.5 69.5zM700 821h170q104 0 104.5 92.5t-104.5 92.5 h-170v-185z" />
<glyph unicode="&#xaf;" horiz-adv-x="569" d="M-109 1378.5q0 57.5 34 90t89 32.5h541q55 0 89 -32.5t34 -90t-34 -90.5t-89 -33h-541q-55 0 -89 33t-34 90.5z" />
<glyph unicode="&#xb0;" horiz-adv-x="819" d="M92 1139q0 131 93.5 224t224.5 93t224 -93t93 -224t-93 -224.5t-224 -93.5t-224.5 93.5t-93.5 224.5zM264 1138.5q0 -59.5 43 -102.5t102.5 -43t102.5 43t43 102.5t-43 102.5t-102.5 43t-102.5 -43t-43 -102.5z" />
<glyph unicode="&#xb1;" horiz-adv-x="1228" d="M35 135.5q0 63.5 39 99t104 35.5h873q66 0 104.5 -35.5t38.5 -99t-39 -99.5t-104 -36h-873q-66 0 -104.5 36t-38.5 99.5zM35 745.5q0 63.5 39 99.5t104 36h301v135q0 66 36 104.5t99.5 38.5t99.5 -39t36 -104v-135h301q66 0 104.5 -36t38.5 -99.5t-39 -99.5t-104 -36 h-301v-135q0 -66 -36 -104.5t-99.5 -38.5t-99.5 39t-36 104v135h-301q-66 0 -104.5 36t-38.5 99.5z" />
<glyph unicode="&#xb2;" horiz-adv-x="888" d="M59 684q0 61 45.5 110.5t217.5 163.5l120 80q88 59 88 125q0 45 -29.5 71t-80.5 26q-49 0 -76 -26t-34 -57.5t-33.5 -57t-75.5 -25.5q-131 0 -131 118q0 96 97 170t265 74q195 0 288 -81t93 -193q0 -139 -133 -226l-231 -149v-4h266q115 0 114.5 -110.5t-114.5 -110.5 h-543q-51 0 -82 30.5t-31 71.5z" />
<glyph unicode="&#xb3;" horiz-adv-x="888" d="M66 786q0 57 32.5 91t89.5 34q47 0 74 -23.5t34 -51t33.5 -51t73.5 -23.5q137 0 138 106q0 66 -88 70q-119 6 -119 82q0 90 108 90q35 0 61.5 18.5t26.5 53.5q0 78 -120 78q-39 0 -59.5 -14.5t-55.5 -57.5q-39 -49 -94 -49q-57 0 -87 33.5t-30 80.5q0 88 96 145.5 t266 57.5q158 0 256.5 -66.5t98.5 -177.5q0 -131 -119 -165v-5q68 -18 104.5 -67t36.5 -115q0 -49 -16 -94t-57 -93t-127 -78t-207 -30q-154 0 -252 65.5t-98 155.5z" />
<glyph unicode="&#xb4;" horiz-adv-x="569" d="M115 1280q0 61 57 109l170 145q49 43 75.5 55.5t59.5 12.5q45 0 87 -37t42 -88q0 -61 -57 -109l-170 -145q-49 -43 -76 -55.5t-59 -12.5q-45 0 -87 37t-42 88z" />
<glyph unicode="&#xb5;" d="M104 -215v1104q0 104 57.5 156.5t154 52.5t153.5 -52.5t57 -156.5v-404q0 -180 156 -180q76 0 116 55.5t40 153.5v375q0 104 57 156.5t153.5 52.5t154 -52.5t57.5 -156.5v-715q0 -201 -203 -201q-90 0 -134 49.5t-55 149.5h-4q-25 -90 -84 -144.5t-125 -54.5 q-88 0 -125 62h-4v-250q0 -104 -57 -156.5t-153.5 -52.5t-154 52.5t-57.5 156.5z" />
<glyph unicode="&#xb6;" horiz-adv-x="1269" d="M8 1110q0 205 132 285t372 80h520q57 0 90 -34t33 -89v-1555q0 -55 -32.5 -89t-90 -34t-90.5 34t-33 89v1493h-198v-1493q0 -55 -33 -89t-90.5 -34t-90 34t-32.5 89v963q-221 0 -339 92t-118 258z" />
<glyph unicode="&#xb7;" horiz-adv-x="684" d="M164 592q0 74 52 126t126 52t126 -52t52 -126t-52 -126t-126 -52t-126 52t-52 126z" />
<glyph unicode="&#xb8;" horiz-adv-x="569" d="M29 -356q0 59 55 59q14 0 57 -10t76 -10q66 0 66 59q0 20 -13.5 35.5t-33.5 15.5h-62q-57 0 -57 45q0 27 17.5 55.5t80.5 108.5h139q-45 -39 -82 -102q74 6 80 6q74 0 125 -39t51 -115q0 -84 -71.5 -138t-231.5 -54q-196 0 -196 84z" />
<glyph unicode="&#xb9;" horiz-adv-x="690" d="M0 1184q0 49 29.5 67.5t89.5 18.5q33 0 88 35.5t80 72.5q53 78 129 78q111 0 110 -86v-680q0 -61 -38.5 -93t-102 -32t-102.5 32t-39 93v408h-146q-98 0 -98 86z" />
<glyph unicode="&#xba;" horiz-adv-x="888" d="M55 1118q0 168 108.5 253t280.5 85t281 -85t109 -253t-109 -253t-281 -85t-280.5 85t-108.5 253zM338 1112q0 -160 106.5 -160t106.5 160q0 172 -106.5 172t-106.5 -172z" />
<glyph unicode="&#xbb;" horiz-adv-x="1366" d="M227 358q0 80 54 111l198 111l-198 110q-53 31 -54 111q0 109 103 108q31 0 86 -32q150 -88 213 -138q25 -18 35 -49t10 -110.5t-10.5 -110.5t-34.5 -49q-63 -49 -213 -137q-55 -33 -86 -33q-103 -1 -103 108zM745 358q0 80 54 111l198 111l-198 110q-53 31 -54 111 q0 109 103 108q31 0 86 -32q150 -88 213 -138q25 -18 35 -49t10 -110.5t-10.5 -110.5t-34.5 -49q-63 -49 -213 -137q-55 -33 -86 -33q-103 -1 -103 108z" />
<glyph unicode="&#xbc;" horiz-adv-x="2048" d="M0 1184q0 49 29.5 67.5t89.5 18.5q33 0 88 35.5t80 72.5q53 78 129 78q111 0 110 -86v-680q0 -61 -38.5 -93t-102 -32t-102.5 32t-39 93v408h-146q-98 0 -98 86zM467 0q0 29 27 82l641 1296q43 88 72.5 113t74.5 25q37 0 67.5 -30t30.5 -56q0 -29 -26 -82l-641 -1297 q-43 -88 -73 -112.5t-75 -24.5q-37 0 -67.5 29.5t-30.5 56.5zM1128 297q0 63 62 133l319 354q43 51 76 68.5t84 17.5q74 0 115 -33.5t41 -95.5v-381q129 0 129 -98t-129 -98v-58q0 -61 -33 -97t-96.5 -36t-96 36t-32.5 97v58h-314q-125 0 -125 133zM1346 360h221v263h-4z " />
<glyph unicode="&#xbd;" horiz-adv-x="2048" d="M0 1184q0 49 29.5 67.5t89.5 18.5q33 0 88 35.5t80 72.5q53 78 129 78q111 0 110 -86v-680q0 -61 -38.5 -93t-102 -32t-102.5 32t-39 93v408h-146q-98 0 -98 86zM420 0q0 29 26 82l641 1296q43 88 73 113t75 25q37 0 67.5 -30t30.5 -56q0 -29 -26 -82l-641 -1297 q-43 -88 -73 -112.5t-75 -24.5q-37 0 -67.5 29.5t-30.5 56.5zM1184 102q0 61 45 110.5t217 164.5l121 80q88 59 88 125q0 45 -30 70.5t-81 25.5q-49 0 -75.5 -25.5t-34 -57.5t-34 -57.5t-75.5 -25.5q-131 0 -131 119q0 96 97.5 169.5t264.5 73.5q195 0 288 -80.5t93 -193.5 q0 -139 -133 -225l-231 -150v-4h266q115 0 115 -110.5t-115 -110.5h-543q-51 0 -81.5 30.5t-30.5 71.5z" />
<glyph unicode="&#xbe;" horiz-adv-x="2048" d="M72 786q0 57 32.5 91t90.5 34q47 0 73.5 -23.5t33.5 -51t33.5 -51t76.5 -23.5q137 0 137 106q0 66 -88 70q-119 6 -119 82q0 90 109 90q35 0 61.5 18.5t26.5 53.5q0 78 -121 78q-39 0 -59.5 -14.5t-55.5 -57.5q-39 -49 -94 -49q-57 0 -87 33.5t-30 80.5q0 88 96.5 145.5 t266.5 57.5q158 0 256 -66.5t98 -177.5q0 -131 -119 -165v-5q68 -18 104.5 -67t36.5 -115q0 -49 -16 -94t-57 -93t-127 -78t-207 -30q-156 0 -254 65.5t-98 155.5zM584 0q0 29 26 82l641 1296q43 88 73 113t75 25q37 0 67.5 -30t30.5 -56q0 -29 -27 -82l-641 -1297 q-43 -88 -72.5 -112.5t-74.5 -24.5q-37 0 -67.5 29.5t-30.5 56.5zM1128 297q0 63 62 133l319 354q43 51 76 68.5t84 17.5q74 0 115 -33.5t41 -95.5v-381q129 0 129 -98t-129 -98v-58q0 -61 -33 -97t-96.5 -36t-96 36t-32.5 97v58h-314q-125 0 -125 133zM1346 360h221v263h-4 z" />
<glyph unicode="&#xbf;" horiz-adv-x="1214" d="M76 -10q0 96 39 168.5t96 113.5t117.5 72t113 63.5t68.5 69.5q27 59 70 80t118 21q162 0 162 -162q0 -150 -190 -246q-100 -51 -130 -83t-30 -91q0 -113 141 -113q115 0 185 105q45 70 79.5 90t96.5 20q84 0 136 -43t52 -123q0 -123 -147.5 -239.5t-403.5 -116.5 q-274 0 -423.5 120t-149.5 294zM440 868.5q0 94.5 66.5 162t163 67.5t163 -67.5t66.5 -162t-66.5 -162t-163 -67.5t-163 67.5t-66.5 162z" />
<glyph unicode="&#xc0;" horiz-adv-x="1400" d="M14 164q0 66 74 274l313 873q35 96 87.5 143t138.5 47h147q86 0 138.5 -47t86.5 -143l314 -873q74 -209 73 -274q0 -80 -65.5 -135.5t-149.5 -55.5q-63 0 -118.5 30t-71.5 87l-33 109h-495l-33 -109q-16 -57 -71.5 -87t-119.5 -30q-84 0 -149.5 55.5t-65.5 135.5z M379 1890q0 51 42 88t87 37q33 0 59.5 -12t75.5 -55l170 -146q57 -47 57 -108q0 -51 -42 -88t-87 -37q-33 0 -59.5 12t-75.5 55l-170 146q-57 47 -57 108zM539 494h323l-160 538h-4z" />
<glyph unicode="&#xc1;" horiz-adv-x="1400" d="M14 164q0 66 74 274l313 873q35 96 87.5 143t138.5 47h147q86 0 138.5 -47t86.5 -143l314 -873q74 -209 73 -274q0 -80 -65.5 -135.5t-149.5 -55.5q-63 0 -118.5 30t-71.5 87l-33 109h-495l-33 -109q-16 -57 -71.5 -87t-119.5 -30q-84 0 -149.5 55.5t-65.5 135.5z M530 1694q0 61 58 108l170 146q49 43 75.5 55t59.5 12q45 0 87 -36.5t42 -88.5q0 -61 -57 -108l-170 -146q-49 -43 -76 -55t-60 -12q-45 0 -87 37t-42 88zM539 494h323l-160 538h-4z" />
<glyph unicode="&#xc2;" horiz-adv-x="1400" d="M14 164q0 66 74 274l313 873q35 96 87.5 143t138.5 47h147q86 0 138.5 -47t86.5 -143l314 -873q74 -209 73 -274q0 -80 -65.5 -135.5t-149.5 -55.5q-63 0 -118.5 30t-71.5 87l-33 109h-495l-33 -109q-16 -57 -71.5 -87t-119.5 -30q-84 0 -149.5 55.5t-65.5 135.5z M330 1712q0 66 168 197q88 70 121.5 87t81 17t81 -17.5t121.5 -86.5q168 -131 168 -197q0 -47 -31.5 -84t-83.5 -37q-63 0 -256 166q-193 -166 -256 -166q-51 0 -82.5 37t-31.5 84zM539 494h323l-160 538h-4z" />
<glyph unicode="&#xc3;" horiz-adv-x="1400" d="M14 164q0 66 74 274l313 873q35 96 87.5 143t138.5 47h147q86 0 138.5 -47t86.5 -143l314 -873q74 -209 73 -274q0 -80 -65.5 -135.5t-149.5 -55.5q-63 0 -118.5 30t-71.5 87l-33 109h-495l-33 -109q-16 -57 -71.5 -87t-119.5 -30q-84 0 -149.5 55.5t-65.5 135.5z M319 1747q0 76 62.5 139.5t153.5 63.5q78 0 162.5 -33t105.5 -33q37 0 82 33t86 33q45 0 77.5 -34t32.5 -83q0 -76 -62.5 -139.5t-152.5 -63.5q-78 0 -163 33t-105 33q-37 0 -82 -33t-86 -33q-45 0 -78 34t-33 83zM539 494h323l-160 538h-4z" />
<glyph unicode="&#xc4;" horiz-adv-x="1400" d="M14 164q0 66 74 274l313 873q35 96 87.5 143t138.5 47h147q86 0 138.5 -47t86.5 -143l314 -873q74 -209 73 -274q0 -80 -65.5 -135.5t-149.5 -55.5q-63 0 -118.5 30t-71.5 87l-33 109h-495l-33 -109q-16 -57 -71.5 -87t-119.5 -30q-84 0 -149.5 55.5t-65.5 135.5z M268 1792q0 76 54.5 131t132 55t132 -55t54.5 -131t-54.5 -131t-132 -55t-132 55t-54.5 131zM539 494h323l-160 538h-4zM760 1792q0 76 54 131t132 55t132.5 -55t54.5 -131t-54.5 -131t-132.5 -55t-132 55t-54 131z" />
<glyph unicode="&#xc5;" horiz-adv-x="1400" d="M14 164q0 66 74 274l313 873q35 96 87.5 143t138.5 47h147q86 0 138.5 -47t86.5 -143l314 -873q74 -209 73 -274q0 -80 -65.5 -135.5t-149.5 -55.5q-63 0 -118.5 30t-71.5 87l-33 109h-495l-33 -109q-16 -57 -71.5 -87t-119.5 -30q-84 0 -149.5 55.5t-65.5 135.5z M457 1804.5q0 100.5 70.5 172t173 71.5t173 -71.5t70.5 -172t-70.5 -172t-173 -71.5t-173 71.5t-70.5 172zM539 494h323l-160 538h-4zM592 1804q0 -45 31.5 -76.5t76.5 -31.5t77 31.5t32 76.5t-32 77t-77 32t-76.5 -32t-31.5 -77z" />
<glyph unicode="&#xc6;" horiz-adv-x="2009" d="M37 174q0 63 90 342l238 748q39 123 85 167t142 44h1147q102 0 153.5 -46.5t51.5 -126t-51.5 -126t-153.5 -46.5h-404v-206h340q102 0 153.5 -46.5t51.5 -126t-51 -125.5t-154 -46h-340v-236h404q102 0 153.5 -46t51.5 -126t-51.5 -126t-153.5 -46h-664q-188 0 -196 207 h-392q-37 -131 -88 -182.5t-149 -51.5q-94 0 -153.5 52.5t-59.5 148.5zM575 514h302v616h-123z" />
<glyph unicode="&#xc7;" horiz-adv-x="1517" d="M90 737q0 186 63.5 337t171 244t242.5 142t285 49q256 0 433 -126t177 -289q0 -88 -62.5 -145.5t-160.5 -57.5q-66 0 -99.5 22.5t-80.5 100.5q-45 72 -98.5 99.5t-133.5 27.5q-115 0 -190.5 -107.5t-75.5 -296.5q0 -186 74 -294.5t217 -108.5q66 0 110 29.5t113 125.5 q70 98 172 99q94 0 156.5 -58.5t62.5 -148.5q0 -123 -100 -221.5t-238.5 -146.5t-275.5 -48h-21q-20 -18 -47 -65q74 6 80 6q74 0 125 -39t51 -115q0 -84 -71.5 -138t-231.5 -54q-197 0 -196 84q0 59 55 59q14 0 57 -10t76 -10q66 0 66 59q0 20 -13.5 35.5t-33.5 15.5h-62 q-57 0 -57 45q0 41 80 139q-270 39 -444.5 232.5t-174.5 527.5z" />
<glyph unicode="&#xc8;" horiz-adv-x="1478" d="M168 281v913q0 145 65.5 213t202.5 68h750q102 0 153.5 -46.5t51.5 -126t-51.5 -126t-153.5 -46.5h-547v-206h438q102 0 153.5 -46.5t51.5 -126t-51 -125.5t-154 -46h-438v-236h569q102 0 153.5 -46t51.5 -126t-51 -126t-154 -46h-772q-137 0 -202.5 68t-65.5 213z M418 1890q0 51 42 88t87 37q33 0 59.5 -12t75.5 -55l170 -146q57 -47 57 -108q0 -51 -42 -88t-87 -37q-33 0 -59.5 12t-75.5 55l-170 146q-57 47 -57 108z" />
<glyph unicode="&#xc9;" horiz-adv-x="1478" d="M168 281v913q0 145 65.5 213t202.5 68h750q102 0 153.5 -46.5t51.5 -126t-51.5 -126t-153.5 -46.5h-547v-206h438q102 0 153.5 -46.5t51.5 -126t-51 -125.5t-154 -46h-438v-236h569q102 0 153.5 -46t51.5 -126t-51 -126t-154 -46h-772q-137 0 -202.5 68t-65.5 213z M569 1694q0 61 58 108l170 146q49 43 75.5 55t59.5 12q45 0 87 -36.5t42 -88.5q0 -61 -57 -108l-170 -146q-49 -43 -76 -55t-60 -12q-45 0 -87 37t-42 88z" />
<glyph unicode="&#xca;" horiz-adv-x="1478" d="M168 281v913q0 145 65.5 213t202.5 68h750q102 0 153.5 -46.5t51.5 -126t-51.5 -126t-153.5 -46.5h-547v-206h438q102 0 153.5 -46.5t51.5 -126t-51 -125.5t-154 -46h-438v-236h569q102 0 153.5 -46t51.5 -126t-51 -126t-154 -46h-772q-137 0 -202.5 68t-65.5 213z M369 1712q0 66 168 197q88 70 121.5 87t80.5 17t81 -17.5t122 -86.5q168 -131 168 -197q0 -47 -31.5 -84t-83.5 -37q-63 0 -256 166q-193 -166 -256 -166q-51 0 -82.5 37t-31.5 84z" />
<glyph unicode="&#xcb;" horiz-adv-x="1478" d="M168 281v913q0 145 65.5 213t202.5 68h750q102 0 153.5 -46.5t51.5 -126t-51.5 -126t-153.5 -46.5h-547v-206h438q102 0 153.5 -46.5t51.5 -126t-51 -125.5t-154 -46h-438v-236h569q102 0 153.5 -46t51.5 -126t-51 -126t-154 -46h-772q-137 0 -202.5 68t-65.5 213z M307 1792q0 76 55.5 131t131 55t131 -55t55.5 -131t-55.5 -131t-131 -55t-131 55t-55.5 131zM799 1792q0 76 55 131t131 55t131 -55t55 -131t-55 -131t-131 -55t-131 55t-55 131z" />
<glyph unicode="&#xcc;" horiz-adv-x="794" d="M76 1890q0 51 42 88t87 37q33 0 59.5 -12t75.5 -55l170 -146q57 -47 57 -108q0 -51 -42 -88t-87 -37q-33 0 -59.5 12t-75.5 55l-170 146q-57 47 -57 108zM162 227v1020q0 119 63.5 186.5t172 67.5t172 -67.5t63.5 -186.5v-1020q0 -119 -63.5 -186.5t-172 -67.5t-172 67.5 t-63.5 186.5z" />
<glyph unicode="&#xcd;" horiz-adv-x="794" d="M162 227v1020q0 119 63.5 186.5t172 67.5t172 -67.5t63.5 -186.5v-1020q0 -119 -63.5 -186.5t-172 -67.5t-172 67.5t-63.5 186.5zM227 1694q0 61 58 108l170 146q49 43 75.5 55t59.5 12q45 0 87 -36.5t42 -88.5q0 -61 -57 -108l-170 -146q-49 -43 -76 -55t-60 -12 q-45 0 -87 37t-42 88z" />
<glyph unicode="&#xce;" horiz-adv-x="794" d="M27 1712q0 66 168 197q88 70 121.5 87t80.5 17t81 -17.5t122 -86.5q168 -131 168 -197q0 -47 -31.5 -84t-83.5 -37q-63 0 -256 166q-193 -166 -256 -166q-51 0 -82.5 37t-31.5 84zM162 227v1020q0 119 63.5 186.5t172 67.5t172 -67.5t63.5 -186.5v-1020 q0 -119 -63.5 -186.5t-172 -67.5t-172 67.5t-63.5 186.5z" />
<glyph unicode="&#xcf;" horiz-adv-x="794" d="M-35 1792q0 76 54.5 131t132 55t132 -55t54.5 -131t-54.5 -131t-132 -55t-132 55t-54.5 131zM162 227v1020q0 119 63.5 186.5t172 67.5t172 -67.5t63.5 -186.5v-1020q0 -119 -63.5 -186.5t-172 -67.5t-172 67.5t-63.5 186.5zM457 1792q0 76 54 131t132 55t132 -55 t54 -131t-54 -131t-132 -55t-132 55t-54 131z" />
<glyph unicode="&#xd0;" horiz-adv-x="1593" d="M-33 739.5q0 63.5 39 99t105 35.5h30v320q0 145 65.5 213t203.5 68h436q313 0 491.5 -205t178.5 -532.5t-178.5 -532.5t-491.5 -205h-436q-137 0 -203 67.5t-66 213.5v323h-30q-66 0 -105 36t-39 99.5zM600 369h105q195 0 267 90t72 278.5t-72.5 278.5t-266.5 90h-105 v-232h64q66 0 104.5 -35.5t38.5 -99t-39 -99.5t-104 -36h-64v-235z" />
<glyph unicode="&#xd1;" horiz-adv-x="1705" d="M152 211v1046q0 121 68.5 186.5t201.5 65.5q172 0 256 -143l414 -709h4v617q0 104 61.5 169.5t168 65.5t167.5 -65.5t61 -169.5v-1084q0 -115 -72.5 -170t-193.5 -55q-96 0 -156.5 38t-125.5 147l-392 643h-4v-582q0 -119 -59 -182.5t-170 -63.5t-170 63.5t-59 182.5z M473 1747q0 76 62.5 139.5t152.5 63.5q78 0 163 -33t105 -33q35 0 80 33t88 33q45 0 78 -34t33 -83q0 -76 -62.5 -139.5t-152.5 -63.5q-78 0 -163 33t-105 33q-35 0 -80 -33t-88 -33q-45 0 -78 34t-33 83z" />
<glyph unicode="&#xd2;" horiz-adv-x="1703" d="M90 737q0 186 63.5 337t171 244t242.5 142t284.5 49t285 -49t243 -142t171 -243.5t63.5 -337.5q0 -195 -62.5 -345t-171 -241.5t-242.5 -138.5t-286 -47t-286 47t-242.5 138.5t-171 241.5t-62.5 345zM530 1890q0 51 42 88t87 37q33 0 59.5 -12t76.5 -55l170 -146 q57 -47 57 -108q0 -51 -42 -88t-87 -37q-33 0 -59.5 12t-75.5 55l-170 146q-58 47 -58 108zM561 737.5q0 -186.5 74 -295t217 -108.5t217 108.5t74 295t-74 295t-217 108.5t-217 -108.5t-74 -295z" />
<glyph unicode="&#xd3;" horiz-adv-x="1703" d="M90 737q0 186 63.5 337t171 244t242.5 142t284.5 49t285 -49t243 -142t171 -243.5t63.5 -337.5q0 -195 -62.5 -345t-171 -241.5t-242.5 -138.5t-286 -47t-286 47t-242.5 138.5t-171 241.5t-62.5 345zM561 737.5q0 -186.5 74 -295t217 -108.5t217 108.5t74 295t-74 295 t-217 108.5t-217 -108.5t-74 -295zM682 1694q0 61 57 108l170 146q49 43 76 55t59 12q45 0 87.5 -36.5t42.5 -88.5q0 -61 -58 -108l-170 -146q-49 -43 -75.5 -55t-59.5 -12q-45 0 -87 37t-42 88z" />
<glyph unicode="&#xd4;" horiz-adv-x="1703" d="M90 737q0 186 63.5 337t171 244t242.5 142t284.5 49t285 -49t243 -142t171 -243.5t63.5 -337.5q0 -195 -62.5 -345t-171 -241.5t-242.5 -138.5t-286 -47t-286 47t-242.5 138.5t-171 241.5t-62.5 345zM481 1712q0 66 168 197q88 70 122 87t81 17t81 -17.5t122 -86.5 q168 -131 168 -197q0 -47 -32 -84t-83 -37q-63 0 -256 166q-193 -166 -256 -166q-51 0 -83 37t-32 84zM561 737.5q0 -186.5 74 -295t217 -108.5t217 108.5t74 295t-74 295t-217 108.5t-217 -108.5t-74 -295z" />
<glyph unicode="&#xd5;" horiz-adv-x="1703" d="M90 737q0 186 63.5 337t171 244t242.5 142t284.5 49t285 -49t243 -142t171 -243.5t63.5 -337.5q0 -195 -62.5 -345t-171 -241.5t-242.5 -138.5t-286 -47t-286 47t-242.5 138.5t-171 241.5t-62.5 345zM471 1747q0 76 62.5 139.5t152.5 63.5q78 0 163 -33t105 -33 q37 0 82 33t86 33q45 0 78 -34t33 -83q0 -76 -62.5 -139.5t-152.5 -63.5q-78 0 -163 33t-105 33q-37 0 -82 -33t-86 -33q-45 0 -78 34t-33 83zM561 737.5q0 -186.5 74 -295t217 -108.5t217 108.5t74 295t-74 295t-217 108.5t-217 -108.5t-74 -295z" />
<glyph unicode="&#xd6;" horiz-adv-x="1703" d="M90 737q0 186 63.5 337t171 244t242.5 142t284.5 49t285 -49t243 -142t171 -243.5t63.5 -337.5q0 -195 -62.5 -345t-171 -241.5t-242.5 -138.5t-286 -47t-286 47t-242.5 138.5t-171 241.5t-62.5 345zM420 1792q0 76 54 131t132 55t132.5 -55t54.5 -131t-54.5 -131 t-132.5 -55t-132 55t-54 131zM561 737.5q0 -186.5 74 -295t217 -108.5t217 108.5t74 295t-74 295t-217 108.5t-217 -108.5t-74 -295zM911 1792q0 76 54.5 131t132.5 55t132 -55t54 -131t-54 -131t-132 -55t-132.5 55t-54.5 131z" />
<glyph unicode="&#xd7;" horiz-adv-x="1228" d="M109 215q0 43 38 82l283 283l-283 280q-39 39 -38 78q0 51 45 98t96 47q43 0 82 -39l282 -280l283 280q39 39 82 39q51 0 96 -47t45 -98q0 -39 -39 -78l-282 -280l282 -283q39 -39 39 -82q0 -51 -47 -96t-98 -45q-39 0 -78 39l-283 282l-282 -282q-39 -39 -78 -39 q-51 0 -98 45t-47 96z" />
<glyph unicode="&#xd8;" horiz-adv-x="1703" d="M47 27q0 49 74 125l104 108q-135 195 -135 477q0 186 63.5 337t171 244t242.5 142t285 49q260 0 453 -135l125 129q47 51 112 51q45 0 80 -31.5t35 -74.5q0 -49 -74 -125l-108 -113q139 -193 139 -473q0 -195 -62.5 -345t-171 -241.5t-242.5 -138.5t-286 -47 q-264 0 -457 131l-121 -125q-47 -51 -112 -51q-45 0 -80 32t-35 75zM561 737q0 -59 10 -121l451 465q-70 59 -170 60q-143 0 -217 -109t-74 -295zM682 393q66 -59 170 -59q143 0 217 108.5t74 294.5q0 63 -10 121z" />
<glyph unicode="&#xd9;" horiz-adv-x="1703" d="M143 571v676q0 119 63.5 186.5t172 67.5t172 -67.5t63.5 -186.5v-672q0 -254 238 -253.5t238 253.5v672q0 119 63.5 186.5t172 67.5t172 -67.5t63.5 -186.5v-676q0 -317 -190.5 -461.5t-518.5 -144.5t-518.5 144.5t-190.5 461.5zM530 1890q0 51 42 88t87 37 q33 0 59.5 -12t76.5 -55l170 -146q57 -47 57 -108q0 -51 -42 -88t-87 -37q-33 0 -59.5 12t-75.5 55l-170 146q-58 47 -58 108z" />
<glyph unicode="&#xda;" horiz-adv-x="1703" d="M143 571v676q0 119 63.5 186.5t172 67.5t172 -67.5t63.5 -186.5v-672q0 -254 238 -253.5t238 253.5v672q0 119 63.5 186.5t172 67.5t172 -67.5t63.5 -186.5v-676q0 -317 -190.5 -461.5t-518.5 -144.5t-518.5 144.5t-190.5 461.5zM682 1694q0 61 57 108l170 146 q49 43 76 55t59 12q45 0 87.5 -36.5t42.5 -88.5q0 -61 -58 -108l-170 -146q-49 -43 -75.5 -55t-59.5 -12q-45 0 -87 37t-42 88z" />
<glyph unicode="&#xdb;" horiz-adv-x="1703" d="M143 571v676q0 119 63.5 186.5t172 67.5t172 -67.5t63.5 -186.5v-672q0 -254 238 -253.5t238 253.5v672q0 119 63.5 186.5t172 67.5t172 -67.5t63.5 -186.5v-676q0 -317 -190.5 -461.5t-518.5 -144.5t-518.5 144.5t-190.5 461.5zM481 1712q0 66 168 197q88 70 122 87 t81 17t81 -17.5t122 -86.5q168 -131 168 -197q0 -47 -32 -84t-83 -37q-63 0 -256 166q-193 -166 -256 -166q-51 0 -83 37t-32 84z" />
<glyph unicode="&#xdc;" horiz-adv-x="1703" d="M143 571v676q0 119 63.5 186.5t172 67.5t172 -67.5t63.5 -186.5v-672q0 -254 238 -253.5t238 253.5v672q0 119 63.5 186.5t172 67.5t172 -67.5t63.5 -186.5v-676q0 -317 -190.5 -461.5t-518.5 -144.5t-518.5 144.5t-190.5 461.5zM420 1792q0 76 54 131t132 55t132.5 -55 t54.5 -131t-54.5 -131t-132.5 -55t-132 55t-54 131zM911 1792q0 76 54.5 131t132.5 55t132 -55t54 -131t-54 -131t-132 -55t-132.5 55t-54.5 131z" />
<glyph unicode="&#xdd;" d="M47 1278q0 90 65.5 156.5t159.5 66.5q150 0 220 -143l190 -395l190 395q70 143 220 143q94 0 159.5 -66.5t65.5 -156.5q0 -59 -60 -162l-339 -588v-301q0 -119 -63.5 -186.5t-172.5 -67.5t-172.5 68t-63.5 186v301l-340 588q-59 103 -59 162zM512 1694q0 61 57 108 l170 146q49 43 76 55t59 12q45 0 87.5 -36.5t42.5 -88.5q0 -61 -58 -108l-170 -146q-49 -43 -75.5 -55t-59.5 -12q-45 0 -87 37t-42 88z" />
<glyph unicode="&#xde;" horiz-adv-x="1593" d="M168 219v1036q0 119 59.5 182.5t170 63.5t170 -63.5t59.5 -182.5h235q143 0 254 -24.5t202 -79.5t139 -157.5t48 -248.5q0 -143 -48 -245.5t-139 -157.5t-201.5 -79.5t-254.5 -24.5h-235v-19q0 -119 -59.5 -182.5t-170 -63.5t-170 63.5t-59.5 182.5zM627 594h260 q63 0 111.5 39t48.5 110q0 74 -48.5 115t-134.5 41h-237v-305z" />
<glyph unicode="&#xdf;" d="M104 182v856q0 231 139.5 351t399.5 120q268 0 412.5 -105.5t144.5 -287.5q0 -221 -223 -285v-4q143 -8 224 -114.5t81 -255.5q0 -207 -122 -345.5t-326 -138.5q-223 0 -224 160q0 49 33 86t76 37q59 0 94 38t35 157q0 168 -76 215q-14 8 -63.5 25.5t-74 43t-24.5 74.5 q0 94 92 121q47 14 68 44t21 107q0 72 -34 115t-104 43q-127 0 -127 -145v-912q0 -104 -57 -156.5t-153.5 -52.5t-154 52.5t-57.5 156.5z" />
<glyph unicode="&#xe0;" d="M86 305q0 145 123 232.5t420 105.5q123 8 172 29.5t49 75.5q0 104 -170 104q-96 0 -198.5 -72.5t-170.5 -72.5q-63 0 -98 33.5t-35 97.5q0 117 145.5 188.5t368.5 71.5q96 0 185.5 -13.5t180.5 -45t146.5 -97t55.5 -160.5v-469q0 -39 6 -103.5t6 -86.5q0 -74 -57.5 -112 t-139.5 -38q-188 0 -213 170q-113 -170 -377 -170q-184 0 -291.5 81t-107.5 251zM360 1477q0 51 42 88t87 37q33 0 59.5 -12.5t76.5 -55.5l170 -145q57 -47 57 -109q0 -51 -42 -88t-87 -37q-33 0 -59.5 12.5t-75.5 55.5l-170 145q-58 48 -58 109zM520 311q0 -47 38 -75.5 t91 -28.5q86 0 143.5 46t57.5 107v121q-35 -37 -144.5 -55t-127.5 -27q-58 -25 -58 -88z" />
<glyph unicode="&#xe1;" d="M86 305q0 145 123 232.5t420 105.5q123 8 172 29.5t49 75.5q0 104 -170 104q-96 0 -198.5 -72.5t-170.5 -72.5q-63 0 -98 33.5t-35 97.5q0 117 145.5 188.5t368.5 71.5q96 0 185.5 -13.5t180.5 -45t146.5 -97t55.5 -160.5v-469q0 -39 6 -103.5t6 -86.5q0 -74 -57.5 -112 t-139.5 -38q-188 0 -213 170q-113 -170 -377 -170q-184 0 -291.5 81t-107.5 251zM512 1280q0 61 57 109l170 145q49 43 76 55.5t59 12.5q45 0 87.5 -37t42.5 -88q0 -61 -58 -109l-170 -145q-49 -43 -75.5 -55.5t-59.5 -12.5q-45 0 -87 37t-42 88zM520 311q0 -47 38 -75.5 t91 -28.5q86 0 143.5 46t57.5 107v121q-35 -37 -144.5 -55t-127.5 -27q-58 -25 -58 -88z" />
<glyph unicode="&#xe2;" d="M86 305q0 145 123 232.5t420 105.5q123 8 172 29.5t49 75.5q0 104 -170 104q-96 0 -198.5 -72.5t-170.5 -72.5q-63 0 -98 33.5t-35 97.5q0 117 145.5 188.5t368.5 71.5q96 0 185.5 -13.5t180.5 -45t146.5 -97t55.5 -160.5v-469q0 -39 6 -103.5t6 -86.5q0 -74 -57.5 -112 t-139.5 -38q-188 0 -213 170q-113 -170 -377 -170q-184 0 -291.5 81t-107.5 251zM311 1298q0 66 168 197q88 70 122 87t81 17t81 -17t122 -87q168 -131 168 -197q0 -47 -32 -83.5t-83 -36.5q-63 0 -256 165q-193 -166 -256 -165q-51 0 -83 36.5t-32 83.5zM520 311 q0 -47 38 -75.5t91 -28.5q86 0 143.5 46t57.5 107v121q-35 -37 -144.5 -55t-127.5 -27q-58 -25 -58 -88z" />
<glyph unicode="&#xe3;" d="M86 305q0 145 123 232.5t420 105.5q123 8 172 29.5t49 75.5q0 104 -170 104q-96 0 -198.5 -72.5t-170.5 -72.5q-63 0 -98 33.5t-35 97.5q0 117 145.5 188.5t368.5 71.5q96 0 185.5 -13.5t180.5 -45t146.5 -97t55.5 -160.5v-469q0 -39 6 -103.5t6 -86.5q0 -74 -57.5 -112 t-139.5 -38q-188 0 -213 170q-113 -170 -377 -170q-184 0 -291.5 81t-107.5 251zM301 1333q0 76 62.5 139.5t152.5 63.5q78 0 163 -33t105 -33q35 0 80 33t88 33q45 0 78 -34t33 -83q0 -76 -62.5 -139t-152.5 -63q-78 0 -163 32.5t-105 32.5q-35 0 -80 -32.5t-88 -32.5 q-45 0 -78 33.5t-33 82.5zM520 311q0 -47 38 -75.5t91 -28.5q86 0 143.5 46t57.5 107v121q-35 -37 -144.5 -55t-127.5 -27q-58 -25 -58 -88z" />
<glyph unicode="&#xe4;" d="M86 305q0 145 123 232.5t420 105.5q123 8 172 29.5t49 75.5q0 104 -170 104q-96 0 -198.5 -72.5t-170.5 -72.5q-63 0 -98 33.5t-35 97.5q0 117 145.5 188.5t368.5 71.5q96 0 185.5 -13.5t180.5 -45t146.5 -97t55.5 -160.5v-469q0 -39 6 -103.5t6 -86.5q0 -74 -57.5 -112 t-139.5 -38q-188 0 -213 170q-113 -170 -377 -170q-184 0 -291.5 81t-107.5 251zM250 1378.5q0 75.5 55 131t131 55.5t131.5 -55.5t55.5 -131t-55.5 -131t-131.5 -55.5t-131 55.5t-55 131zM520 311q0 -47 38 -75.5t91 -28.5q86 0 143.5 46t57.5 107v121q-35 -37 -144.5 -55 t-127.5 -27q-58 -25 -58 -88zM741 1378.5q0 75.5 55.5 131t131.5 55.5t131 -55.5t55 -131t-55 -131t-131 -55.5t-131.5 55.5t-55.5 131z" />
<glyph unicode="&#xe5;" d="M86 305q0 145 123 232.5t420 105.5q123 8 172 29.5t49 75.5q0 104 -170 104q-96 0 -198.5 -72.5t-170.5 -72.5q-63 0 -98 33.5t-35 97.5q0 117 145.5 188.5t368.5 71.5q96 0 185.5 -13.5t180.5 -45t146.5 -97t55.5 -160.5v-469q0 -39 6 -103.5t6 -86.5q0 -74 -57.5 -112 t-139.5 -38q-188 0 -213 170q-113 -170 -377 -170q-184 0 -291.5 81t-107.5 251zM479 1411q0 100 72 172t172 72t172 -72t72 -172t-72 -172t-172 -72t-172 72t-72 172zM520 311q0 -47 38 -75.5t91 -28.5q86 0 143.5 46t57.5 107v121q-35 -37 -144.5 -55t-127.5 -27 q-58 -25 -58 -88zM614 1411q0 -45 32 -76.5t77 -31.5t76.5 31.5t31.5 76.5t-31.5 77t-76.5 32t-77 -32t-32 -77z" />
<glyph unicode="&#xe6;" horiz-adv-x="2007" d="M45 305q0 145 123 232.5t420 105.5q121 8 170 29.5t49 75.5q0 104 -168 104q-96 0 -198.5 -72.5t-170.5 -72.5q-133 0 -133 151q0 100 153.5 170t360.5 70q217 0 342 -80q154 80 355 80q166 0 292.5 -52.5t192 -131t97.5 -155.5t32 -145q0 -94 -46 -133t-149 -39h-598 q8 -104 66.5 -163.5t159.5 -59.5q80 0 195.5 65.5t176.5 65.5q53 0 92 -43t39 -96q0 -98 -134 -168t-416 -70q-266 0 -430 131q-180 -131 -474 -131q-184 0 -291.5 81t-107.5 251zM479 311q0 -47 38 -75.5t91 -28.5q86 0 143.5 46t57.5 107v121q-35 -37 -144.5 -55 t-127.5 -27q-58 -25 -58 -88zM1169 651h396q0 104 -55.5 152.5t-141.5 48.5q-80 0 -137.5 -48.5t-61.5 -152.5z" />
<glyph unicode="&#xe7;" horiz-adv-x="1251" d="M82 537q0 279 167 420t433 141q213 0 351 -87t138 -202q0 -70 -43 -113t-108 -43q-45 0 -90 38t-98.5 75t-116.5 37q-117 0 -164 -76t-47 -182q0 -119 45 -198t147 -79q74 0 170.5 75t151.5 75q72 0 115 -48t43 -108q0 -37 -26 -82t-79 -93t-155.5 -81t-233.5 -33 q-20 0 -29 2q-35 -35 -55 -75q74 6 80 6q74 0 125 -39t51 -115q0 -84 -71.5 -138t-231.5 -54q-197 0 -197 84q0 59 56 59q16 0 57 -10t76 -10q66 0 65 59q0 20 -13 35.5t-34 15.5h-61q-57 0 -58 45q0 25 15.5 51.5t72.5 98.5q-205 35 -326.5 174t-121.5 375z" />
<glyph unicode="&#xe8;" d="M82 536.5q0 278.5 167 420t433 141.5q166 0 293 -52.5t192.5 -131t97 -155.5t31.5 -145q0 -94 -46 -133t-148 -39h-598q8 -104 66.5 -163.5t158.5 -59.5q80 0 195.5 65.5t177.5 65.5q53 0 92 -43t39 -96q0 -98 -134 -168t-417 -70q-266 0 -433 142.5t-167 421zM360 1477 q0 51 42 88t87 37q33 0 59.5 -12.5t76.5 -55.5l170 -145q57 -47 57 -109q0 -51 -42 -88t-87 -37q-33 0 -59.5 12.5t-75.5 55.5l-170 145q-58 48 -58 109zM504 651h395q0 104 -55.5 152.5t-141.5 48.5q-80 0 -137 -48.5t-61 -152.5z" />
<glyph unicode="&#xe9;" d="M82 536.5q0 278.5 167 420t433 141.5q166 0 293 -52.5t192.5 -131t97 -155.5t31.5 -145q0 -94 -46 -133t-148 -39h-598q8 -104 66.5 -163.5t158.5 -59.5q80 0 195.5 65.5t177.5 65.5q53 0 92 -43t39 -96q0 -98 -134 -168t-417 -70q-266 0 -433 142.5t-167 421zM504 651 h395q0 104 -55.5 152.5t-141.5 48.5q-80 0 -137 -48.5t-61 -152.5zM512 1280q0 61 57 109l170 145q49 43 76 55.5t59 12.5q45 0 87.5 -37t42.5 -88q0 -61 -58 -109l-170 -145q-49 -43 -75.5 -55.5t-59.5 -12.5q-45 0 -87 37t-42 88z" />
<glyph unicode="&#xea;" d="M82 536.5q0 278.5 167 420t433 141.5q166 0 293 -52.5t192.5 -131t97 -155.5t31.5 -145q0 -94 -46 -133t-148 -39h-598q8 -104 66.5 -163.5t158.5 -59.5q80 0 195.5 65.5t177.5 65.5q53 0 92 -43t39 -96q0 -98 -134 -168t-417 -70q-266 0 -433 142.5t-167 421zM311 1298 q0 66 168 197q88 70 122 87t81 17t81 -17t122 -87q168 -131 168 -197q0 -47 -32 -83.5t-83 -36.5q-63 0 -256 165q-193 -166 -256 -165q-51 0 -83 36.5t-32 83.5zM504 651h395q0 104 -55.5 152.5t-141.5 48.5q-80 0 -137 -48.5t-61 -152.5z" />
<glyph unicode="&#xeb;" d="M82 536.5q0 278.5 167 420t433 141.5q166 0 293 -52.5t192.5 -131t97 -155.5t31.5 -145q0 -94 -46 -133t-148 -39h-598q8 -104 66.5 -163.5t158.5 -59.5q80 0 195.5 65.5t177.5 65.5q53 0 92 -43t39 -96q0 -98 -134 -168t-417 -70q-266 0 -433 142.5t-167 421z M250 1378.5q0 75.5 55 131t131 55.5t131.5 -55.5t55.5 -131t-55.5 -131t-131.5 -55.5t-131 55.5t-55 131zM504 651h395q0 104 -55.5 152.5t-141.5 48.5q-80 0 -137 -48.5t-61 -152.5zM741 1378.5q0 75.5 55.5 131t131.5 55.5t131 -55.5t55 -131t-55 -131t-131 -55.5 t-131.5 55.5t-55.5 131z" />
<glyph unicode="&#xec;" horiz-adv-x="643" d="M0 1477q0 51 42 88t87 37q33 0 59.5 -12.5t75.5 -55.5l170 -145q57 -47 58 -109q0 -51 -42 -88t-88 -37q-33 0 -59.5 12.5t-75.5 55.5l-170 145q-57 48 -57 109zM111 182v707q0 104 57 156.5t153.5 52.5t153.5 -52.5t57 -156.5v-707q0 -104 -57 -156.5t-153.5 -52.5 t-153.5 52.5t-57 156.5z" />
<glyph unicode="&#xed;" horiz-adv-x="643" d="M111 182v707q0 104 57 156.5t153.5 52.5t153.5 -52.5t57 -156.5v-707q0 -104 -57 -156.5t-153.5 -52.5t-153.5 52.5t-57 156.5zM152 1280q0 61 57 109l170 145q49 43 75.5 55.5t59.5 12.5q45 0 87 -37t42 -88q0 -61 -57 -109l-170 -145q-49 -43 -76 -55.5t-59 -12.5 q-45 0 -87 37t-42 88z" />
<glyph unicode="&#xee;" horiz-adv-x="643" d="M-49 1298q0 66 168 197q88 70 121.5 87t81 17t81 -17t121.5 -87q168 -131 168 -197q0 -47 -31.5 -83.5t-82.5 -36.5q-63 0 -256 165q-193 -166 -256 -165q-51 0 -83 36.5t-32 83.5zM111 182v707q0 104 57 156.5t153.5 52.5t153.5 -52.5t57 -156.5v-707q0 -104 -57 -156.5 t-153.5 -52.5t-153.5 52.5t-57 156.5z" />
<glyph unicode="&#xef;" horiz-adv-x="643" d="M-111 1378.5q0 75.5 55.5 131t131.5 55.5t131 -55.5t55 -131t-55 -131t-131 -55.5t-131.5 55.5t-55.5 131zM111 182v707q0 104 57 156.5t153.5 52.5t153.5 -52.5t57 -156.5v-707q0 -104 -57 -156.5t-153.5 -52.5t-153.5 52.5t-57 156.5zM381 1378.5q0 75.5 55.5 131 t131 55.5t131 -55.5t55.5 -131t-55.5 -131t-131 -55.5t-131 55.5t-55.5 131z" />
<glyph unicode="&#xf0;" d="M82 537q0 139 46 248.5t121 172t159 95t170 32.5q115 0 210 -41q-20 98 -170 181l-174 -86q-80 -39 -114.5 -39t-58 23.5t-23.5 58.5q0 29 15.5 46t58.5 40l79 39l-2 4q-94 12 -130 43.5t-36 89.5q0 49 46.5 80.5t117.5 31.5q205 0 377 -67l154 74q80 39 114.5 39t58 -25 t23.5 -57q0 -29 -15 -46.5t-58 -39.5l-99 -48q115 -78 222.5 -280.5t107.5 -405.5q0 -727 -600 -727q-266 0 -433 142.5t-167 421.5zM504 524q0 -268 178 -268t178 268q0 291 -178 291t-178 -291z" />
<glyph unicode="&#xf1;" d="M104 182v715q0 201 203 201q90 0 134 -49.5t55 -149.5h4q109 199 348 199q209 0 310.5 -114t101.5 -300v-502q0 -104 -57.5 -156.5t-154 -52.5t-153.5 52.5t-57 156.5v404q0 180 -156 180q-76 0 -116 -55.5t-40 -153.5v-375q0 -104 -57 -156.5t-153.5 -52.5t-154 52.5 t-57.5 156.5zM301 1333q0 76 62.5 139.5t152.5 63.5q78 0 163 -33t105 -33q35 0 80 33t88 33q45 0 78 -34t33 -83q0 -76 -62.5 -139t-152.5 -63q-78 0 -163 32.5t-105 32.5q-35 0 -80 -32.5t-88 -32.5q-45 0 -78 33.5t-33 82.5z" />
<glyph unicode="&#xf2;" d="M82 536.5q0 278.5 167 420t433 141.5t433 -141.5t167 -420t-167 -421t-433 -142.5t-433 142.5t-167 421zM360 1477q0 51 42 88t87 37q33 0 59.5 -12.5t76.5 -55.5l170 -145q57 -47 57 -109q0 -51 -42 -88t-87 -37q-33 0 -59.5 12.5t-75.5 55.5l-170 145q-58 48 -58 109z M504 524q0 -268 178 -268t178 268q0 291 -178 291t-178 -291z" />
<glyph unicode="&#xf3;" d="M82 536.5q0 278.5 167 420t433 141.5t433 -141.5t167 -420t-167 -421t-433 -142.5t-433 142.5t-167 421zM504 524q0 -268 178 -268t178 268q0 291 -178 291t-178 -291zM512 1280q0 61 57 109l170 145q49 43 76 55.5t59 12.5q45 0 87.5 -37t42.5 -88q0 -61 -58 -109 l-170 -145q-49 -43 -75.5 -55.5t-59.5 -12.5q-45 0 -87 37t-42 88z" />
<glyph unicode="&#xf4;" d="M82 536.5q0 278.5 167 420t433 141.5t433 -141.5t167 -420t-167 -421t-433 -142.5t-433 142.5t-167 421zM311 1298q0 66 168 197q88 70 122 87t81 17t81 -17t122 -87q168 -131 168 -197q0 -47 -32 -83.5t-83 -36.5q-63 0 -256 165q-193 -166 -256 -165q-51 0 -83 36.5 t-32 83.5zM504 524q0 -268 178 -268t178 268q0 291 -178 291t-178 -291z" />
<glyph unicode="&#xf5;" d="M82 536.5q0 278.5 167 420t433 141.5t433 -141.5t167 -420t-167 -421t-433 -142.5t-433 142.5t-167 421zM301 1333q0 76 62.5 139.5t152.5 63.5q78 0 163 -33t105 -33q35 0 80 33t88 33q45 0 78 -34t33 -83q0 -76 -62.5 -139t-152.5 -63q-78 0 -163 32.5t-105 32.5 q-35 0 -80 -32.5t-88 -32.5q-45 0 -78 33.5t-33 82.5zM504 524q0 -268 178 -268t178 268q0 291 -178 291t-178 -291z" />
<glyph unicode="&#xf6;" d="M82 536.5q0 278.5 167 420t433 141.5t433 -141.5t167 -420t-167 -421t-433 -142.5t-433 142.5t-167 421zM250 1378.5q0 75.5 55 131t131 55.5t131.5 -55.5t55.5 -131t-55.5 -131t-131.5 -55.5t-131 55.5t-55 131zM504 524q0 -268 178 -268t178 268q0 291 -178 291 t-178 -291zM741 1378.5q0 75.5 55.5 131t131.5 55.5t131 -55.5t55 -131t-55 -131t-131 -55.5t-131.5 55.5t-55.5 131z" />
<glyph unicode="&#xf7;" horiz-adv-x="1228" d="M35 579.5q0 63.5 39 99.5t104 36h873q66 0 104.5 -36t38.5 -99.5t-39 -99.5t-104 -36h-873q-66 0 -104.5 36t-38.5 99.5zM422 147.5q0 79.5 56.5 136t136 56.5t136 -56.5t56.5 -136t-56.5 -136t-136 -56.5t-136 56.5t-56.5 136zM422 1012q0 80 56.5 136t136 56t136 -56 t56.5 -136t-56.5 -136.5t-136 -56.5t-136 56.5t-56.5 136.5z" />
<glyph unicode="&#xf8;" d="M45 0q0 43 53 96l88 88q-104 137 -104 353q0 279 167 420t433 141q197 0 340 -78l108 108q39 39 95 39q37 0 66.5 -25.5t27.5 -70.5q0 -43 -53 -96l-88 -88q104 -137 104 -350q0 -279 -167 -421.5t-433 -142.5q-203 0 -340 78l-109 -108q-39 -39 -94 -39 q-37 0 -66.5 25.5t-27.5 70.5zM479 524q0 -33 2 -45l322 322q-45 39 -121 39q-104 0 -153.5 -75t-49.5 -241zM561 270q45 -39 121 -39q104 0 153.5 71t49.5 222q0 49 -2 68z" />
<glyph unicode="&#xf9;" d="M104 387v502q0 104 57.5 156.5t154 52.5t153.5 -52.5t57 -156.5v-404q0 -180 156 -180q76 0 116 55.5t40 153.5v375q0 104 57 156.5t153.5 52.5t154 -52.5t57.5 -156.5v-715q0 -201 -203 -201q-90 0 -134 49.5t-55 149.5h-4q-109 -199 -348 -199q-209 0 -310.5 114 t-101.5 300zM360 1477q0 51 42 88t87 37q33 0 59.5 -12.5t76.5 -55.5l170 -145q57 -47 57 -109q0 -51 -42 -88t-87 -37q-33 0 -59.5 12.5t-75.5 55.5l-170 145q-58 48 -58 109z" />
<glyph unicode="&#xfa;" d="M104 387v502q0 104 57.5 156.5t154 52.5t153.5 -52.5t57 -156.5v-404q0 -180 156 -180q76 0 116 55.5t40 153.5v375q0 104 57 156.5t153.5 52.5t154 -52.5t57.5 -156.5v-715q0 -201 -203 -201q-90 0 -134 49.5t-55 149.5h-4q-109 -199 -348 -199q-209 0 -310.5 114 t-101.5 300zM512 1280q0 61 57 109l170 145q49 43 76 55.5t59 12.5q45 0 87.5 -37t42.5 -88q0 -61 -58 -109l-170 -145q-49 -43 -75.5 -55.5t-59.5 -12.5q-45 0 -87 37t-42 88z" />
<glyph unicode="&#xfb;" d="M104 387v502q0 104 57.5 156.5t154 52.5t153.5 -52.5t57 -156.5v-404q0 -180 156 -180q76 0 116 55.5t40 153.5v375q0 104 57 156.5t153.5 52.5t154 -52.5t57.5 -156.5v-715q0 -201 -203 -201q-90 0 -134 49.5t-55 149.5h-4q-109 -199 -348 -199q-209 0 -310.5 114 t-101.5 300zM311 1298q0 66 168 197q88 70 122 87t81 17t81 -17t122 -87q168 -131 168 -197q0 -47 -32 -83.5t-83 -36.5q-63 0 -256 165q-193 -166 -256 -165q-51 0 -83 36.5t-32 83.5z" />
<glyph unicode="&#xfc;" d="M104 387v502q0 104 57.5 156.5t154 52.5t153.5 -52.5t57 -156.5v-404q0 -180 156 -180q76 0 116 55.5t40 153.5v375q0 104 57 156.5t153.5 52.5t154 -52.5t57.5 -156.5v-715q0 -201 -203 -201q-90 0 -134 49.5t-55 149.5h-4q-109 -199 -348 -199q-209 0 -310.5 114 t-101.5 300zM250 1378.5q0 75.5 55 131t131 55.5t131.5 -55.5t55.5 -131t-55.5 -131t-131.5 -55.5t-131 55.5t-55 131zM741 1378.5q0 75.5 55.5 131t131.5 55.5t131 -55.5t55 -131t-55 -131t-131 -55.5t-131.5 55.5t-55.5 131z" />
<glyph unicode="&#xfd;" horiz-adv-x="1138" d="M35 918q0 78 59.5 129t147.5 51q141 0 180 -158l153 -594h5l122 512q31 131 76 185.5t127 54.5t140.5 -47t58.5 -133q0 -43 -80 -273l-246 -719q-113 -330 -452 -329q-123 0 -186.5 46t-63.5 130q0 131 162 131q109 0 108 51q0 27 -20 82l-226 641q-65 185 -65 240z M399 1280q0 61 58 109l170 145q49 43 75.5 55.5t59.5 12.5q45 0 87 -37t42 -88q0 -61 -57 -109l-170 -145q-49 -43 -76 -55.5t-60 -12.5q-45 0 -87 37t-42 88z" />
<glyph unicode="&#xfe;" d="M104 -213v1503q0 211 205 211t205 -211v-315h4q39 57 116 90t169 33q221 0 350 -152.5t129 -413.5q0 -86 -24.5 -176t-77 -179t-149.5 -146.5t-226 -57.5q-190 0 -287 164h-4v-350q0 -211 -205 -211t-205 211zM508 537q0 -109 45 -170.5t117 -61.5q100 0 145 68.5 t45 173.5q0 102 -42 173t-140 71q-170 0 -170 -254z" />
<glyph unicode="&#xff;" horiz-adv-x="1138" d="M35 918q0 78 59.5 129t147.5 51q141 0 180 -158l153 -594h5l122 512q31 131 76 185.5t127 54.5t140.5 -47t58.5 -133q0 -43 -80 -273l-246 -719q-113 -330 -452 -329q-123 0 -186.5 46t-63.5 130q0 131 162 131q109 0 108 51q0 27 -20 82l-226 641q-65 185 -65 240z M137 1378.5q0 75.5 54.5 131t132 55.5t132 -55.5t54.5 -131t-54.5 -131t-132 -55.5t-132 55.5t-54.5 131zM629 1378.5q0 75.5 54 131t132 55.5t132 -55.5t54 -131t-54 -131t-132 -55.5t-132 55.5t-54 131z" />
<glyph unicode="&#x152;" horiz-adv-x="2048" d="M78 707q0 381 168 591.5t428 210.5q139 0 232 -39.5t155 -138.5h4q0 63 38 103.5t105 40.5h596q102 0 153.5 -46.5t51.5 -126t-51 -126t-154 -46.5h-342v-206h297q102 0 153.5 -46.5t51.5 -126t-51 -125.5t-154 -46h-297v-236h340q102 0 153.5 -46t51.5 -126t-51 -126 t-154 -46h-594q-139 0 -139 133q-152 -168 -389 -168q-115 0 -218.5 42t-191.5 127t-140 232.5t-52 340.5zM537 731q0 -410 241 -409q250 0 250 409q0 217 -59.5 313.5t-190.5 96.5q-125 0 -183 -119t-58 -291z" />
<glyph unicode="&#x153;" horiz-adv-x="2048" d="M92 539q0 254 146.5 406.5t402.5 152.5q131 0 220 -32t171 -110q96 80 172 111t193 31q256 0 407.5 -151.5t151.5 -350.5q0 -84 -36 -119t-110 -35h-596q0 -96 56.5 -159.5t152.5 -63.5q72 0 134.5 32t109.5 64.5t82 32.5q63 0 103 -39t40 -90q0 -111 -137 -178.5 t-321 -67.5q-147 0 -236.5 28t-175.5 108q-80 -80 -169 -108t-214 -28q-236 0 -391.5 138.5t-155.5 427.5zM514 547q0 -63 5 -107.5t21.5 -90.5t52.5 -69.5t93 -23.5q55 0 91 25.5t51.5 72.5t20.5 88t5 101q0 272 -174 272q-166 0 -166 -268zM1221 651h350q-6 90 -48 145.5 t-124 55.5q-78 0 -126 -51.5t-52 -149.5z" />
<glyph unicode="&#x178;" d="M47 1278q0 90 65.5 156.5t159.5 66.5q150 0 220 -143l190 -395l190 395q70 143 220 143q94 0 159.5 -66.5t65.5 -156.5q0 -59 -60 -162l-339 -588v-301q0 -119 -63.5 -186.5t-172.5 -67.5t-172.5 68t-63.5 186v301l-340 588q-59 103 -59 162zM250 1792q0 76 55 131 t131 55t131.5 -55t55.5 -131t-55.5 -131t-131.5 -55t-131 55t-55 131zM741 1792q0 76 55.5 131t131.5 55t131 -55t55 -131t-55 -131t-131 -55t-131.5 55t-55.5 131z" />
<glyph unicode="&#x2c6;" horiz-adv-x="569" d="M-86 1298q0 66 168 197q88 70 122 87t81 17t80.5 -17t121.5 -87q168 -131 168 -197q0 -47 -31.5 -83.5t-82.5 -36.5q-63 0 -256 165q-193 -166 -256 -165q-51 0 -83 36.5t-32 83.5z" />
<glyph unicode="&#x2dc;" horiz-adv-x="569" d="M-96 1333q0 76 62.5 139.5t152.5 63.5q78 0 163 -33t105 -33q35 0 80 33t88 33q45 0 78 -34t33 -83q0 -76 -62.5 -139t-152.5 -63q-78 0 -163 32.5t-106 32.5q-35 0 -80 -32.5t-88 -32.5q-45 0 -77.5 33.5t-32.5 82.5z" />
<glyph unicode="&#x2000;" horiz-adv-x="1024" />
<glyph unicode="&#x2001;" horiz-adv-x="2048" />
<glyph unicode="&#x2002;" horiz-adv-x="1024" />
<glyph unicode="&#x2003;" horiz-adv-x="2048" />
<glyph unicode="&#x2004;" horiz-adv-x="681" />
<glyph unicode="&#x2005;" horiz-adv-x="512" />
<glyph unicode="&#x2006;" horiz-adv-x="339" />
<glyph unicode="&#x2007;" horiz-adv-x="339" />
<glyph unicode="&#x2008;" horiz-adv-x="256" />
<glyph unicode="&#x2009;" horiz-adv-x="409" />
<glyph unicode="&#x200a;" horiz-adv-x="112" />
<glyph unicode="&#x2010;" horiz-adv-x="796" d="M39 579.5q0 90.5 48 141.5t144 51h334q96 0 144.5 -51t48.5 -141.5t-48 -141.5t-145 -51h-334q-96 0 -144 51t-48 141.5z" />
<glyph unicode="&#x2011;" horiz-adv-x="796" d="M39 579.5q0 90.5 48 141.5t144 51h334q96 0 144.5 -51t48.5 -141.5t-48 -141.5t-145 -51h-334q-96 0 -144 51t-48 141.5z" />
<glyph unicode="&#x2012;" horiz-adv-x="796" d="M39 579.5q0 90.5 48 141.5t144 51h334q96 0 144.5 -51t48.5 -141.5t-48 -141.5t-145 -51h-334q-96 0 -144 51t-48 141.5z" />
<glyph unicode="&#x2013;" horiz-adv-x="1024" d="M20 579.5q0 153.5 181 153.5h622q180 0 180.5 -153.5t-180.5 -153.5h-622q-181 0 -181 153.5z" />
<glyph unicode="&#x2014;" horiz-adv-x="2048" d="M20 579.5q0 153.5 181 153.5h1646q180 0 180.5 -153.5t-180.5 -153.5h-1646q-181 0 -181 153.5z" />
<glyph unicode="&#x2018;" horiz-adv-x="684" d="M106 1083q0 109 36 194t93.5 131t116 69.5t113.5 23.5q51 0 76.5 -27.5t25.5 -62.5q0 -43 -26.5 -68.5t-94.5 -39.5q-119 -27 -118 -138q29 14 71 15q86 0 132.5 -58.5t46.5 -142.5q0 -92 -63.5 -156.5t-160.5 -64.5q-102 0 -175 78.5t-73 246.5z" />
<glyph unicode="&#x2019;" horiz-adv-x="684" d="M106 1280q0 92 63.5 156.5t160.5 64.5q102 0 175 -79t73 -246q0 -109 -36 -194t-93.5 -131t-116 -69.5t-113.5 -23.5q-51 0 -76.5 27.5t-25.5 62.5q0 43 26.5 68.5t94.5 39.5q119 27 118 138q-29 -14 -71 -15q-86 0 -132.5 58.5t-46.5 142.5z" />
<glyph unicode="&#x201a;" horiz-adv-x="684" d="M106 225q0 92 63.5 156.5t160.5 64.5q102 0 175 -78.5t73 -246.5q0 -109 -36 -194t-93.5 -131t-116 -69.5t-113.5 -23.5q-51 0 -76.5 27.5t-25.5 62.5q0 43 26.5 68.5t94.5 40.5q119 27 118 137q-29 -14 -71 -14q-86 0 -132.5 58t-46.5 142z" />
<glyph unicode="&#x201c;" horiz-adv-x="1251" d="M109 1083q0 109 35.5 194t93 131t116 69.5t113.5 23.5q51 0 76.5 -27.5t25.5 -62.5q0 -43 -26.5 -68.5t-93.5 -39.5q-119 -27 -119 -138q29 14 71 15q86 0 132.5 -58.5t46.5 -142.5q0 -92 -63.5 -156.5t-160.5 -64.5q-102 0 -174.5 78.5t-72.5 246.5zM672 1083 q0 109 35.5 194t93 131t116 69.5t113.5 23.5q51 0 77 -27.5t26 -62.5q0 -43 -27 -68.5t-94 -39.5q-119 -27 -119 -138q29 14 72 15q86 0 132 -58.5t46 -142.5q0 -92 -63.5 -156.5t-159.5 -64.5q-102 0 -175 78.5t-73 246.5z" />
<glyph unicode="&#x201d;" horiz-adv-x="1251" d="M109 1280q0 92 63.5 156.5t159.5 64.5q102 0 175 -79t73 -246q0 -109 -36 -194t-93.5 -131t-116 -69.5t-113.5 -23.5q-51 0 -76.5 27.5t-25.5 62.5q0 43 26.5 68.5t94.5 39.5q119 27 118 138q-29 -14 -71 -15q-86 0 -132 58.5t-46 142.5zM672 1280q0 92 63.5 156.5 t159.5 64.5q102 0 175 -79t73 -246q0 -109 -36 -194t-93.5 -131t-115.5 -69.5t-114 -23.5q-51 0 -76.5 27.5t-25.5 62.5q0 43 26.5 68.5t94.5 39.5q119 27 119 138q-29 -14 -72 -15q-86 0 -132 58.5t-46 142.5z" />
<glyph unicode="&#x201e;" horiz-adv-x="1251" d="M109 225q0 92 63.5 156.5t159.5 64.5q102 0 175 -78.5t73 -246.5q0 -109 -36 -194t-93.5 -131t-116 -69.5t-113.5 -23.5q-51 0 -76.5 27.5t-25.5 62.5q0 43 26.5 68.5t94.5 40.5q119 27 118 137q-29 -14 -71 -14q-86 0 -132 58t-46 142zM672 225q0 92 63.5 156.5 t159.5 64.5q102 0 175 -78.5t73 -246.5q0 -109 -36 -194t-93.5 -131t-115.5 -69.5t-114 -23.5q-51 0 -76.5 27.5t-25.5 62.5q0 43 26.5 68.5t94.5 40.5q119 27 119 137q-29 -14 -72 -14q-86 0 -132 58t-46 142z" />
<glyph unicode="&#x2022;" horiz-adv-x="1024" d="M147 737.5q0 151.5 106.5 258t258.5 106.5t258.5 -106.5t106.5 -258t-106.5 -258t-258.5 -106.5t-258.5 106.5t-106.5 258z" />
<glyph unicode="&#x2026;" horiz-adv-x="2048" d="M113 217q0 94 66.5 161.5t162.5 67.5t162.5 -67.5t66.5 -161.5t-66.5 -161.5t-162.5 -67.5t-162.5 67.5t-66.5 161.5zM795 217q0 94 67.5 161.5t161.5 67.5t161.5 -67.5t67.5 -161.5t-67.5 -161.5t-161.5 -67.5t-161.5 67.5t-67.5 161.5zM1477 217q0 94 66.5 161.5 t162.5 67.5t162.5 -67.5t66.5 -161.5t-66.5 -161.5t-162.5 -67.5t-162.5 67.5t-66.5 161.5z" />
<glyph unicode="&#x202f;" horiz-adv-x="409" />
<glyph unicode="&#x2039;" horiz-adv-x="833" d="M168 579.5q0 79.5 10 110.5t35 49q63 49 213 138q55 33 86 32q102 0 102 -108q0 -80 -53 -111l-199 -110l199 -111q53 -31 53 -111q0 -109 -102 -108q-31 0 -86 33q-150 88 -213 137q-25 18 -35 49t-10 110.5z" />
<glyph unicode="&#x203a;" horiz-adv-x="833" d="M219 358q0 80 53 111l199 111l-199 110q-53 31 -53 111q0 109 103 108q31 0 86 -32q150 -88 213 -138q25 -18 35 -49t10 -110.5t-10.5 -110.5t-34.5 -49q-63 -49 -213 -137q-55 -33 -86 -33q-103 -1 -103 108z" />
<glyph unicode="&#x205f;" horiz-adv-x="512" />
<glyph unicode="&#x20ac;" horiz-adv-x="1368" d="M33 578q0 86 133 86v36q0 55 2 82h-16q-55 0 -87 16.5t-32 67.5q0 57 34.5 74.5t94.5 17.5h35q59 225 223 361.5t418 136.5q485 0 485 -254q0 -66 -39 -108.5t-104 -42.5q-47 0 -128 36.5t-163 36.5q-166 0 -250 -166h315q29 0 47.5 -2t39 -10t29.5 -26.5t9 -49.5 q0 -53 -32.5 -70.5t-92.5 -17.5h-366q-4 -23 -4 -65q0 -35 2 -53h280q41 0 63.5 -4.5t42 -23t19.5 -54.5q0 -57 -31.5 -76t-93.5 -19h-245q74 -199 272 -198q74 0 165 43t136 43q57 0 91 -38t34 -95q0 -78 -53.5 -134.5t-136 -83t-158.5 -39t-146 -12.5q-268 0 -428.5 138.5 t-210.5 375.5h-30q-57 0 -90 18t-33 73z" />
<glyph unicode="&#x2122;" horiz-adv-x="2048" d="M35 1382q0 43 25.5 68t74.5 25h504q49 0 74.5 -25t25.5 -68t-25.5 -67.5t-74.5 -24.5h-129v-555q0 -55 -33 -89t-90 -34t-90 34t-33 89v555h-129q-49 0 -74.5 24.5t-25.5 67.5zM846 735v568q0 80 45 132t125 52q156 0 219 -158l133 -342l133 342q63 158 219 158 q80 0 125 -52.5t45 -131.5v-568q0 -55 -32.5 -89t-90 -34t-90 34t-32.5 89v404h-5l-155 -418q-41 -109 -117 -109t-117 109l-155 418h-4v-404q0 -55 -33 -89t-90.5 -34t-90 34t-32.5 89z" />
<glyph unicode="&#xe000;" horiz-adv-x="1100" d="M0 1100h1100v-1100h-1100v1100z" />
<glyph unicode="&#xfb01;" d="M0 948q0 123 145 123v80q0 178 94.5 268t274.5 90q168 0 231.5 -43t63.5 -116q0 -78 -46 -113t-161 -35q-47 0 -47 -49v-82h84q131 0 131 -123t-131 -123h-84v-641q0 -211 -205 -211t-205 211v641q-145 0 -145 123zM866 182v707q0 104 57.5 156.5t154 52.5t153.5 -52.5 t57 -156.5v-707q0 -104 -57 -156.5t-153.5 -52.5t-154 52.5t-57.5 156.5zM879 1374q0 84 58 141.5t140 57.5t140.5 -57.5t58.5 -141.5t-58.5 -141t-140.5 -57t-140 57t-58 141z" />
<glyph unicode="&#xfb02;" d="M0 948q0 123 145 123v80q0 178 94.5 268t274.5 90q168 0 231.5 -43t63.5 -116q0 -78 -46 -113t-161 -35q-47 0 -47 -49v-82h84q131 0 131 -123t-131 -123h-84v-641q0 -211 -205 -211t-205 211v641q-145 0 -145 123zM866 182v1110q0 104 57.5 156.5t154 52.5t153.5 -52 t57 -157v-1110q0 -104 -57 -156.5t-153.5 -52.5t-154 52.5t-57.5 156.5z" />
<glyph unicode="&#xfb03;" horiz-adv-x="2387" d="M1856 182v707q0 104 57 156.5t153.5 52.5t153.5 -52.5t57 -156.5v-707q0 -104 -57 -156.5t-153.5 -52.5t-153.5 52.5t-57 156.5zM1868 1374q0 84 57.5 141.5t141.5 57.5t141 -57.5t57 -141.5t-57 -141t-141 -57t-141.5 57t-57.5 141zM872 948q0 123 131 123h78v80 q0 178 94 268t275 90q168 0 231 -43t63 -116q0 -78 -45 -113t-161 -35q-47 0 -48 -49v-82h107q131 0 131 -123t-131 -123h-107v-641q0 -211 -204.5 -211t-204.5 211v641h-78q-131 0 -131 123zM0 948q0 123 131 123h78v80q0 178 94 268t275 90q168 0 231 -43t63 -116 q0 -78 -45 -113t-161 -35q-47 0 -48 -49v-82h107q131 0 131 -123t-131 -123h-107v-641q0 -211 -204.5 -211t-204.5 211v641h-78q-131 0 -131 123z" />
<glyph unicode="&#xfb04;" horiz-adv-x="2387" d="M1856 182v1110q0 104 57 156.5t153.5 52.5t153.5 -52t57 -157v-1110q0 -104 -57 -156.5t-153.5 -52.5t-153.5 52.5t-57 156.5zM872 948q0 123 131 123h78v80q0 178 94 268t275 90q168 0 231 -43t63 -116q0 -78 -45 -113t-161 -35q-47 0 -48 -49v-82h107q131 0 131 -123 t-131 -123h-107v-641q0 -211 -204.5 -211t-204.5 211v641h-78q-131 0 -131 123zM0 948q0 123 131 123h78v80q0 178 94 268t275 90q168 0 231 -43t63 -116q0 -78 -45 -113t-161 -35q-47 0 -48 -49v-82h107q131 0 131 -123t-131 -123h-107v-641q0 -211 -204.5 -211t-204.5 211 v641h-78q-131 0 -131 123z" />
</font>
</defs>
</svg>
