<?xml version="1.0" standalone="no"?>
<!DOCTYPE svg PUBLIC "-//W3C//DTD SVG 1.1//EN" "http://www.w3.org/Graphics/SVG/1.1/DTD/svg11.dtd" >
<svg xmlns="http://www.w3.org/2000/svg">
<metadata>
This is a custom SVG webfont generated by Font Squirrel.
Copyright   : Copyright  1990 2002 Adobe Systems Incorporated  All Rights Reserved  1981 2002 Heidelberger Druckmaschinen AG All rights reserved
Designer    : Linotype Staff
Foundry URL : httpwwwadobecomtype
</metadata>
<defs>
<font id="HelveticaNeueLTStd87HvCnOb" horiz-adv-x="532" >
<font-face units-per-em="2048" ascent="1462" descent="-586" />
<missing-glyph horiz-adv-x="500" />
<glyph unicode=" " />
<glyph unicode="!" horiz-adv-x="684" d="M184 0l66 307h319l-65 -307h-320zM305 418l80 565l102 479h332l-102 -479l-158 -565h-254z" />
<glyph unicode="&#x22;" horiz-adv-x="985" d="M307 748l152 714h266l-152 -714h-266zM731 748l152 714h266l-152 -714h-266z" />
<glyph unicode="#" horiz-adv-x="1064" d="M106 350l50 230h182l92 262h-149l49 229h182l123 350h227l-125 -350h148l125 350h225l-125 -350h150l-50 -229h-182l-92 -262h149l-49 -230h-182l-121 -350h-225l121 350h-148l-121 -350h-225l121 350h-150zM563 580h148l92 262h-148z" />
<glyph unicode="$" horiz-adv-x="1064" d="M115 340l20 94h332l-10 -47q-39 -186 108 -186q82 0 129 47t62 114q12 61 -12.5 105.5t-75 69t-112.5 51t-122.5 54.5t-106.5 79t-63.5 122.5t4.5 188.5q37 174 156 287t328 131l32 152h160l-33 -152q201 -16 273.5 -119.5t36.5 -267.5l-7 -35h-331q20 98 2 146 q-20 47 -94 47q-137 0 -168 -146q-14 -70 21.5 -118t100 -72.5t138 -59t135 -75.5t90.5 -125t4 -201q-90 -420 -514 -453l-39 -180h-160l39 180q-397 23 -323 369z" />
<glyph unicode="%" horiz-adv-x="1593" d="M243 932q5 51 21 125q41 195 131 294t275 99q139 0 202.5 -53.5t61.5 -141.5t-23 -198q-20 -94 -42.5 -155.5t-66.5 -121t-118 -88t-178 -28.5q-86 0 -142.5 21.5t-84 54t-34.5 87t-2 105.5zM369 -29l956 1479h207l-957 -1479h-206zM486.5 886q7.5 -52 54.5 -52 q51 0 75.5 46t55.5 187q27 137 18.5 175t-55.5 38q-92 0 -129 -223q-27 -119 -19.5 -171zM963.5 239.5q5.5 51.5 21.5 125.5q41 193 131 293t277 100q86 0 141 -21.5t83 -53.5t35 -87t2 -106.5t-22 -124.5q-20 -94 -42.5 -156t-66.5 -121t-118 -88t-178 -29 q-86 0 -142.5 21.5t-84 54.5t-35 87t-2 105.5zM1207 193.5q7 -52.5 55 -52.5q51 0 75.5 46t55.5 188q27 137 18.5 175t-55.5 38q-88 0 -129 -223q-27 -119 -20 -171.5z" />
<glyph unicode="&#x26;" horiz-adv-x="1290" d="M113.5 237.5q-13.5 71.5 7.5 141.5q31 145 117 234t258 200q-104 188 -74 324q35 166 166 254t305 88q168 0 260 -85t59 -243q-16 -84 -72.5 -158.5t-109.5 -116.5t-153 -108l133 -256q59 66 98 195h291q-76 -279 -262 -437l143 -270h-362l-48 90q-195 -119 -387 -119 q-121 0 -203.5 38t-117.5 97.5t-48.5 131zM446 406q-16 -72 27 -126.5t119 -54.5q92 0 172 74l-156 299q-137 -83 -162 -192zM709 1174q-16 -72 61 -203q49 35 75.5 57.5t55.5 61t39 81.5q10 51 -18.5 83t-77.5 32q-45 0 -85 -30.5t-50 -81.5z" />
<glyph unicode="'" d="M293 748l151 714h267l-152 -714h-266z" />
<glyph unicode="(" horiz-adv-x="645" d="M215 543q98 457 485 919h267q-141 -176 -259 -415.5t-173 -503.5q-53 -299 -39 -521.5t79 -398.5h-266q-188 467 -94 920z" />
<glyph unicode=")" horiz-adv-x="645" d="M-90 -377q319 401 430 920q55 297 41 521t-80 398h266q190 -467 92 -919q-96 -455 -483 -920h-266z" />
<glyph unicode="*" horiz-adv-x="835" d="M252 1108l96 176l234 -98l55 276h184l-63 -276l272 98l25 -176l-277 -86l123 -217l-176 -111l-113 221l-206 -221l-125 111l211 217z" />
<glyph unicode="+" horiz-adv-x="1228" d="M178 385l58 266h385l81 385h267l-82 -385h385l-58 -266h-385l-81 -385h-267l82 385h-385z" />
<glyph unicode="," d="M33 -346l35 160q68 0 106.5 48t61.5 150h-127l75 357h320l-64 -306q-18 -88 -43.5 -150.5t-69.5 -122.5t-118 -95t-176 -41z" />
<glyph unicode="-" horiz-adv-x="757" d="M166 453l59 278h619l-60 -278h-618z" />
<glyph unicode="." d="M106 0l78 369h320l-78 -369h-320z" />
<glyph unicode="/" horiz-adv-x="720" d="M-18 -29l790 1520h279l-791 -1520h-278z" />
<glyph unicode="0" horiz-adv-x="1064" d="M150.5 361.5q7.5 82.5 19.5 160.5t37 189q31 143 59.5 238t77.5 198.5t111.5 164t160 99.5t224.5 39q106 0 181 -20.5t117 -68.5t62.5 -104.5t17 -147.5t-16.5 -179t-40 -219q-31 -141 -59.5 -238.5t-78.5 -200t-112.5 -163t-160 -99.5t-224.5 -39q-92 0 -159.5 17.5 t-111.5 47.5t-68.5 81t-34 106.5t-2 138zM486 295.5q1 -64.5 21.5 -86t65.5 -21.5q84 0 130.5 100.5t113.5 420.5q35 168 50.5 258t14.5 156.5t-21.5 88t-65.5 21.5q-86 0 -132.5 -102.5t-111.5 -421.5q-35 -164 -50.5 -256.5t-14.5 -157z" />
<glyph unicode="1" horiz-adv-x="1064" d="M338 1006l47 217h43q299 0 385 227h242l-307 -1450h-345l213 1006h-278z" />
<glyph unicode="2" horiz-adv-x="1064" d="M70 0q25 121 79 227.5t130.5 190.5t131 132t126.5 103q141 106 212.5 178t89 109t31.5 102q23 86 6.5 138.5t-85.5 52.5q-37 0 -68 -18.5t-48.5 -41t-33.5 -66.5t-22.5 -68.5t-16.5 -71.5h-319l10 47q92 436 559 436q248 0 325.5 -108.5t36.5 -297.5q-33 -158 -97 -247.5 t-230 -223.5q-25 -20 -70 -55t-66.5 -51t-55 -44t-53 -45.5t-41 -38t-37 -38.5t-25.5 -35h514l-58 -266h-925z" />
<glyph unicode="3" horiz-adv-x="1064" d="M156 426h331q-49 -238 78 -238q70 0 111 47.5t65 165.5q29 137 0.5 184.5t-131.5 47.5h-82l45 217h95q80 0 125 53t69 164q35 166 -80 166q-133 0 -178 -209h-307q47 217 178 319q137 106 377 107q215 0 299 -96.5t39 -302.5q-23 -113 -94.5 -191t-173.5 -100l-2 -4 q123 -27 161.5 -110t3.5 -238q-47 -223 -195.5 -330t-352.5 -107q-236 0 -336 97.5t-45 357.5z" />
<glyph unicode="4" horiz-adv-x="1064" d="M104 281l58 266l657 874h369l-187 -874h136l-58 -266h-135l-59 -281h-320l60 281h-521zM434 547h248l102 485h-4z" />
<glyph unicode="5" horiz-adv-x="1064" d="M137 373l10 53h332l-10 -53q-39 -184 84 -185q78 0 121 75t78 237q55 252 -74 252q-113 0 -152 -115h-319l213 784h813l-57 -266h-549l-74 -272l2 -4q39 53 114.5 83.5t149.5 30.5q199 0 264.5 -120.5t10.5 -383.5q-57 -272 -198.5 -395t-387.5 -123q-227 0 -320.5 104.5 t-50.5 297.5z" />
<glyph unicode="6" horiz-adv-x="1064" d="M148.5 303q1.5 86 13.5 171t36.5 204t45 196.5t51.5 166.5t63.5 144.5t80.5 111t107.5 86t140.5 49t179 18.5q416 0 344 -371h-331q14 74 2 109q-16 45 -74 45q-86 0 -133 -84t-101 -326h5q94 127 286 127q172 0 237.5 -106.5t14.5 -343.5q-25 -117 -64.5 -206t-107 -165 t-172 -117t-244.5 -41q-104 0 -179 21.5t-117 66.5t-63.5 101.5t-20 142.5zM493.5 263q14.5 -75 86.5 -75q70 0 110.5 62.5t69.5 189.5q31 133 16.5 194.5t-92.5 61.5q-72 0 -110.5 -60.5t-63.5 -170.5q-31 -127 -16.5 -202z" />
<glyph unicode="7" horiz-adv-x="1064" d="M240 0q70 254 265 591t394 539h-594l64 291h923l-55 -256q-215 -246 -396.5 -580.5t-244.5 -584.5h-356z" />
<glyph unicode="8" horiz-adv-x="1064" d="M123 243q-6 83 18 181q29 133 108 229.5t204 112.5l2 4q-188 53 -133 305q78 375 518 375t362 -375q-27 -123 -97.5 -203.5t-172.5 -101.5l-2 -4q113 -18 159 -107.5t15 -234.5q-45 -211 -175 -332t-403 -121q-143 0 -234 34t-127 94.5t-42 143.5zM485 420 q-51 -231 88 -232q135 0 187 232q47 227 -90.5 227t-184.5 -227zM633.5 904q19.5 -40 83.5 -40q61 0 99 42t61 145q37 182 -82 182q-123 0 -160 -182q-21 -107 -1.5 -147z" />
<glyph unicode="9" horiz-adv-x="1064" d="M156 340h331q-14 -70 -2 -107q16 -45 76 -45q86 0 133 84t99 326h-5q-92 -127 -284 -127q-172 0 -237.5 106.5t-14.5 344.5q25 117 64.5 206t106 164.5t171 116.5t244.5 41q104 0 179 -21.5t117 -66.5t63.5 -101.5t20.5 -142.5t-13.5 -171t-37.5 -204 q-23 -102 -40 -172.5t-41.5 -150.5t-51 -134.5t-63.5 -109.5t-81 -89t-101.5 -62.5t-129 -41t-159.5 -12.5q-416 0 -344 369zM591 786.5q13 -61.5 91 -61.5q127 0 174 231q31 127 17.5 202t-85.5 75q-70 0 -111.5 -63.5t-68.5 -188.5q-30 -133 -17 -194.5z" />
<glyph unicode=":" d="M106 0l78 369h320l-78 -369h-320zM260 721l78 369h319l-77 -369h-320z" />
<glyph unicode=";" d="M33 -346l35 160q68 0 106.5 48t61.5 150h-127l75 357h320l-64 -306q-18 -88 -43.5 -150.5t-69.5 -122.5t-118 -95t-176 -41zM260 721l78 369h319l-77 -369h-320z" />
<glyph unicode="&#x3c;" horiz-adv-x="1228" d="M178 385l58 266l1120 402l-56 -267l-749 -268l635 -268l-58 -266z" />
<glyph unicode="=" horiz-adv-x="1228" d="M131 162l55 266h1037l-56 -266h-1036zM225 608l58 266h1036l-57 -266h-1037z" />
<glyph unicode="&#x3e;" horiz-adv-x="1228" d="M92 -16l58 266l749 268l-635 268l55 267l953 -402l-58 -266z" />
<glyph unicode="?" horiz-adv-x="1024" d="M293 1006l10 41q45 213 177 328.5t345 115.5q209 0 300.5 -104.5t52.5 -292.5q-20 -96 -68.5 -176t-104 -132.5t-108.5 -98.5t-94 -96t-53 -106l-15 -67h-307l14 65q39 178 129 279q29 31 107 92t123 120.5t63 149.5q33 150 -82 150q-66 0 -108.5 -62.5t-73.5 -205.5 h-307zM334 0l65 307h320l-66 -307h-319z" />
<glyph unicode="@" horiz-adv-x="1638" d="M215 731q45 213 189.5 388t348 273.5t421.5 98.5q291 0 469 -174t120 -447q-27 -123 -89 -226t-136 -167.5t-156 -109.5t-145 -63.5t-107 -18.5q-121 0 -106 108h-4q-119 -109 -268 -108q-119 0 -189.5 96t-38.5 252q43 199 199 351.5t348 152.5q160 0 219 -138l49 107 h179l-228 -512q-20 -49 -30 -82q-10 -43 30 -43q72 0 162 101.5t123 254.5q47 217 -82 345t-363 128q-256 0 -451.5 -163.5t-248.5 -407.5q-51 -244 84 -403.5t389 -159.5q240 0 471 129h182q-141 -154 -322 -238t-378 -84q-338 0 -524.5 216t-116.5 544zM748 666 q-16 -78 15.5 -127.5t100.5 -49.5q102 0 191.5 87.5t111.5 191.5q14 70 -21.5 117t-101.5 47q-100 0 -188 -84t-108 -182z" />
<glyph unicode="A" horiz-adv-x="1175" d="M4 0l684 1462h430l53 -1462h-356l6 279h-350l-111 -279h-356zM578 545h249l13 651h-4z" />
<glyph unicode="B" horiz-adv-x="1175" d="M106 0l312 1462h534q193 0 285 -91q65 -64 65 -171q0 -45 -12 -98q-27 -127 -108.5 -218t-190.5 -112v-4q31 -4 54.5 -11t55.5 -23.5t49 -41t35 -63.5q14 -32 14 -73q0 -10 -1 -20q-4 -54 -14 -130q-16 -74 -49 -137.5t-95.5 -128t-171 -102.5t-254.5 -38h-508zM504 254 h104q186 0 228 190q8 39 8 71q0 53 -24 84q-38 50 -122 50h-110zM637 879h94q168 0 205 172q5 21 4 39q0 40 -20 72q-31 46 -117 46h-96z" />
<glyph unicode="C" horiz-adv-x="1099" d="M173 348q5 96 18.5 182t39.5 211q20 96 37 161t45.5 151t60.5 142t83 117.5t111.5 96.5t144.5 58.5t186 23.5q233 0 327 -112q59 -71 59 -199q0 -73 -19 -164l-13 -62h-331q27 115 26 186q0 27 -4 48q-14 74 -96 74q-98 0 -146.5 -103.5t-111.5 -410.5q-25 -119 -39 -192 t-23 -141q-7 -55 -6 -89v-16q2 -36 14.5 -63.5t35 -36.5t59.5 -9q88 0 133 88t90 284h332l-12 -51q-27 -129 -68 -221t-111.5 -171t-183.5 -119t-268 -40q-109 0 -183.5 24.5t-114.5 79t-59 115.5q-14 48 -14 118q0 19 1 40z" />
<glyph unicode="D" horiz-adv-x="1175" d="M106 0l312 1462h510q258 0 338 -154q40 -78 40 -213q0 -131 -38 -317q-37 -172 -72 -285.5t-88 -215t-123 -158t-169 -88t-234 -31.5h-476zM504 254h92q86 0 136 34t95 142.5t91 325.5q44 199 44 301q0 35 -6 59q-20 92 -153 92h-96z" />
<glyph unicode="E" horiz-adv-x="1024" d="M106 0l312 1462h846l-60 -278h-502l-63 -293h471l-57 -279h-471l-72 -333h524l-59 -279h-869z" />
<glyph unicode="F" horiz-adv-x="985" d="M106 0l312 1462h846l-60 -278h-502l-63 -293h471l-57 -279h-471l-131 -612h-345z" />
<glyph unicode="G" horiz-adv-x="1138" d="M172 248q-2 32 -2 65q0 66 8 136q12 104 45 251q25 117 44.5 196t50 169t65.5 148.5t85 115.5t111.5 90t145.5 52.5t186 19.5q92 0 162 -18.5t111 -46t66.5 -70.5t35.5 -82q9 -35 9 -82q0 -54 -6 -95q-5 -34 -15 -79h-332q8 47 11 80q2 16 2 35t-2 41q-3 43 -27.5 65.5 t-69.5 22.5q-100 0 -152.5 -111t-117.5 -422q-62 -274 -62 -393v-21q6 -115 107 -114q84 0 137 75.5t86 231.5l10 47h-162l48 229h481l-166 -784h-236l21 139h-4q-102 -168 -350 -168q-109 0 -178.5 34t-104.5 90.5t-41 152.5z" />
<glyph unicode="H" horiz-adv-x="1175" d="M106 0l312 1462h344l-117 -547h275l116 547h344l-311 -1462h-344l133 625h-274l-133 -625h-345z" />
<glyph unicode="I" horiz-adv-x="569" d="M113 0l311 1462h344l-311 -1462h-344z" />
<glyph unicode="J" horiz-adv-x="1024" d="M113 375l18 90h320l-13 -64q-10 -45 -14 -73.5t-1 -61.5t24.5 -49t60.5 -16q68 0 100.5 58t59.5 181l217 1022h344l-217 -1022q-102 -469 -549 -469q-365 0 -365 280q0 56 15 124z" />
<glyph unicode="K" horiz-adv-x="1175" d="M106 0l312 1462h344l-123 -577h4l444 577h371l-518 -631l254 -831h-387l-148 551l-120 -141l-88 -410h-345z" />
<glyph unicode="L" horiz-adv-x="948" d="M106 0l312 1462h344l-252 -1183h498l-60 -279h-842z" />
<glyph unicode="M" horiz-adv-x="1593" d="M117 0l311 1462h504l-25 -960h4l379 960h498l-311 -1462h-320l242 1139h-4l-465 -1139h-266l6 1139h-4l-242 -1139h-307z" />
<glyph unicode="N" horiz-adv-x="1214" d="M106 0l312 1462h395l80 -950h4l203 950h319l-311 -1462h-389l-86 1008h-4l-215 -1008h-308z" />
<glyph unicode="O" horiz-adv-x="1175" d="M181 264q-4 44 -4 89q0 59 7 119q12 105 45 259t65 259.5t85 206.5t121.5 161.5t170 96.5t234.5 36q102 0 177 -22.5t121 -56.5t71.5 -93t34.5 -117q4 -31 4 -69q0 -34 -3 -75q-7 -87 -18.5 -155.5t-34 -171t-40 -171t-47 -156t-62.5 -144.5t-83 -116.5t-111.5 -93.5 t-145.5 -56.5t-186 -22.5q-133 0 -219.5 36t-129.5 95.5t-52 161.5zM524 317q2 -68 28 -92t77 -24q100 0 152.5 107.5t119.5 422.5q35 162 49 254q12 76 12 135v25q-3 68 -29 92.5t-79 24.5q-98 0 -149.5 -107.5t-118.5 -423.5q-35 -162 -49 -254q-13 -81 -13 -142v-18z" />
<glyph unicode="P" horiz-adv-x="1138" d="M106 0l312 1462h532q104 0 178 -29.5t110 -73.5t52 -107q14 -53 14 -100v-17q-3 -55 -16 -117q-98 -446 -565 -447h-152l-120 -571h-345zM627 825h94q170 0 209 185q7 38 7 68q0 46 -16 78q-28 52 -126 52h-88z" />
<glyph unicode="Q" horiz-adv-x="1175" d="M181 264q-4 44 -4 89q0 59 7 119q12 105 45 259t65 259.5t85 206.5t121.5 161.5t170 96.5t234.5 36q102 0 177 -22.5t121 -56.5t71.5 -93t34.5 -117q4 -31 4 -69q0 -34 -3 -75q-7 -87 -18.5 -155.5t-34.5 -171.5q-45 -215 -95 -354t-138 -236l129 -170l-240 -184 l-151 205q-23 -6 -80 -15q-49 -6 -100 -6q-133 0 -219.5 36t-129.5 95.5t-52 161.5zM524 317q2 -68 28 -92t77 -24q100 0 152.5 107.5t119.5 422.5q35 162 49 254q12 76 12 135v25q-3 68 -29 92.5t-79 24.5q-98 0 -149.5 -107.5t-118.5 -423.5q-35 -162 -49 -254 q-13 -81 -13 -142v-18z" />
<glyph unicode="R" horiz-adv-x="1175" d="M106 0l312 1462h577q205 0 276 -106q47 -71 47 -170q0 -49 -11 -105q-63 -297 -322 -356v-4q61 -8 101 -31.5t57.5 -51.5t20.5 -79q1 -19 1 -37q0 -29 -3 -54q-5 -40 -19 -112q-41 -211 -41 -269t35 -69l-4 -18h-371q-7 21 -7 58q0 81 33 239q27 134 28 203q0 29 -5 46 q-16 58 -100 58h-131l-129 -604h-345zM631 846h106q94 0 147.5 56t69.5 134q7 35 7 63q0 45 -18 75q-30 47 -128 47h-104z" />
<glyph unicode="S" horiz-adv-x="1099" d="M135 352l19 94h331l-10 -51q-9 -43 -8 -76q0 -39 11 -67q22 -51 106 -51q154 0 192 174q5 23 5 43q0 46 -25 80q-37 49 -101.5 73.5t-138.5 59.5t-134 79t-89 132q-14 44 -14 98.5t14 120.5q41 193 181 311.5t390 118.5q244 0 332 -109q61 -75 61 -186q0 -49 -12 -104 l-6 -35h-332q12 59 13 99q0 33 -9 54q-20 51 -94 52q-137 0 -170 -158q-4 -20 -4 -38q0 -46 26 -82q36 -50 100.5 -74.5t138 -60.5t134 -78t88.5 -128q15 -45 15 -98q0 -50 -12 -109q-98 -465 -598 -465q-411 1 -412 279q0 48 12 102z" />
<glyph unicode="T" horiz-adv-x="983" d="M264 1184l60 278h958l-59 -278h-308l-251 -1184h-345l252 1184h-307z" />
<glyph unicode="U" horiz-adv-x="1138" d="M166 283q-1 12 -1 23q0 84 25 177l209 979h344l-229 -1079q-9 -40 -9 -72q0 -111 107 -110q137 0 176 182l230 1079h344l-209 -979q-25 -117 -62.5 -202.5t-104 -159.5t-172 -112t-251 -38t-235.5 40t-124 109t-38 163z" />
<glyph unicode="V" horiz-adv-x="1099" d="M315 1462h369l-68 -1130h5l417 1130h369l-643 -1462h-438z" />
<glyph unicode="W" horiz-adv-x="1593" d="M270 0l54 1462h344l-95 -1040h5l372 1040h320l-58 -1040h5l344 1040h331l-565 -1462h-381l72 1038h-4l-363 -1038h-381z" />
<glyph unicode="X" horiz-adv-x="1138" d="M6 0l516 743l-170 719h381l53 -448h5l243 448h381l-487 -719l205 -743h-394l-71 481l-281 -481h-381z" />
<glyph unicode="Y" horiz-adv-x="1097" d="M317 1462h381l47 -542h5l284 542h369l-559 -887l-123 -575h-344l123 575z" />
<glyph unicode="Z" horiz-adv-x="985" d="M47 0l53 254l695 930h-457l59 278h852l-51 -241l-702 -942h501l-59 -279h-891z" />
<glyph unicode="[" horiz-adv-x="681" d="M92 -377l391 1839h518l-49 -229h-211l-292 -1380h210l-49 -230h-518z" />
<glyph unicode="\" horiz-adv-x="720" d="M305 1491h279l143 -1520h-278z" />
<glyph unicode="]" horiz-adv-x="681" d="M-88 -377l49 230h211l293 1380h-211l49 229h518l-391 -1839h-518z" />
<glyph unicode="^" horiz-adv-x="1228" d="M250 633l551 788h233l215 -788h-254l-137 510l-354 -510h-254z" />
<glyph unicode="_" horiz-adv-x="1024" d="M-55 -256l22 102h1024l-22 -102h-1024z" />
<glyph unicode="`" d="M291 1516h319l41 -291h-217z" />
<glyph unicode="a" horiz-adv-x="1024" d="M121 309q20 96 73.5 172t120.5 111q41 20 91.5 35.5t131 33t95.5 21.5q80 20 105.5 41.5t39.5 85.5q4 20 4 36q0 75 -86 75q-66 0 -99.5 -37t-51.5 -115h-295q45 213 188 297q119 72 324 72t282 -77q53 -52 53 -149q0 -46 -12 -102l-120 -569q-24 -111 -24 -175 q0 -44 11 -65h-319q-1 10 -1 23q0 39 9 104h-4q-49 -72 -129 -114t-164 -42q-237 0 -237 219q0 53 14 119zM446 342q-7 -32 -6 -57q0 -84 74 -84q57 0 103.5 36.5t62.5 114.5q8 45 43 195q-61 -29 -121.5 -49.5t-77.5 -32.5q-58 -37 -78 -123z" />
<glyph unicode="b" horiz-adv-x="1062" d="M92 0l311 1462h332l-102 -475h4q57 82 137 119q63 31 144 31q98 0 155 -42t72 -127q9 -54 9 -114q0 -34 -3 -70q-8 -98 -37 -239q-63 -303 -178 -438.5t-287 -135.5q-100 0 -148 48.5t-57 115.5h-4l-28 -135h-320zM504 299q8 -86 78 -86q59 0 101 55.5t60.5 118 t40.5 174.5q35 129 35 214q0 15 -1 29q-7 91 -89 91q-53 0 -92 -50t-58.5 -115.5t-43.5 -182.5q-32 -134 -33 -216q1 -17 2 -32z" />
<glyph unicode="c" horiz-adv-x="985" d="M141 327q4 69 13.5 128t27.5 139q27 125 67 218t104.5 169t163.5 116t231 40q246 0 317 -115q44 -70 44 -180q0 -69 -17 -152h-308q14 69 14 117q0 35 -7 58q-18 54 -84 55q-76 0 -119 -87.5t-84 -279.5q-38 -159 -38 -247q0 -16 1 -30q8 -88 86 -88q72 0 108.5 56.5 t71.5 206.5h307q-57 -254 -185 -367t-355 -113q-88 0 -152.5 18.5t-105.5 47.5t-64.5 77t-32.5 96q-5 32 -5 73q0 21 1 44z" />
<glyph unicode="d" horiz-adv-x="1062" d="M175 102q-25 61 -25 163q0 114 32 280q29 141 63 239.5t85 183.5t125.5 127t173.5 42q178 0 215 -150h4l102 475h332l-311 -1462h-320l29 135h-4q-37 -68 -96 -110q-78 -53 -179 -54q-172 0 -226 131zM483 321q4 -108 88 -108q70 0 111 79t80 255q34 130 34 224v24 q-5 100 -81 100q-82 0 -121 -78t-78 -256q-33 -120 -33 -219v-21z" />
<glyph unicode="e" horiz-adv-x="985" d="M141 327q4 69 13.5 128t27.5 139q27 125 67 218t104.5 169t163.5 116t231 40q86 0 150.5 -16.5t104 -43t62 -74t31.5 -94.5q5 -29 5 -67q0 -24 -2 -52q-5 -73 -15.5 -135.5t-30.5 -154.5h-559l-15 -68q-21 -90 -21 -148q0 -25 4 -44q13 -63 83 -64q63 0 99 47t65 156h307 q-94 -408 -516 -408q-88 0 -152.5 18.5t-105.5 47.5t-64.5 77t-32.5 96q-5 32 -5 73q0 21 1 44zM535 692h239q20 82 20 137q0 23 -3 41q-12 61 -78 62q-76 0 -114.5 -58.5t-63.5 -181.5z" />
<glyph unicode="f" horiz-adv-x="606" d="M135 0l187 879h-138l49 229h138l20 92q33 160 118 225.5t282 65.5q84 0 145 -6l-47 -223h-47q-66 0 -90.5 -17.5t-34.5 -66.5l-15 -70h154l-49 -229h-154l-186 -879h-332z" />
<glyph unicode="g" horiz-adv-x="1062" d="M80 -70h307q0 -49 21 -67q27 -23 75 -23q80 0 120 59.5t75 223.5l14 67h-4q-92 -164 -297 -163q-228 0 -228 288q0 107 32 254q25 115 54.5 202t79.5 177t129 139.5t181 49.5q195 0 223 -179h4l33 150h307l-227 -1069q-43 -201 -171 -308.5t-378 -107.5q-225 0 -302 84 q-56 61 -56 152q0 33 8 71zM500 391v-11q0 -57 18 -83q20 -29 66 -29q70 0 111.5 66.5t80.5 249.5q26 115 26 184q0 23 -2 41q-11 74 -81 74q-76 0 -118 -78t-73 -232q-26 -116 -28 -182z" />
<glyph unicode="h" horiz-adv-x="1062" d="M92 0l311 1462h332l-102 -475h4q106 150 287 150q235 0 235 -204q0 -46 -12 -104l-176 -829h-332l160 756q7 29 6 51q0 75 -74 76q-51 0 -93 -40t-60 -118l-154 -725h-332z" />
<glyph unicode="i" d="M100 0l236 1108h332l-236 -1108h-332zM360 1225l54 254h331l-53 -254h-332z" />
<glyph unicode="j" d="M-123 -356l49 227q16 -2 45 -2q70 4 92.5 32.5t38.5 110.5l234 1096h332l-242 -1135q-39 -182 -122 -257.5t-286 -75.5q-30 0 -141 4zM360 1225l54 254h331l-53 -254h-332z" />
<glyph unicode="k" horiz-adv-x="1062" d="M92 0l311 1462h332l-160 -751h5l331 397h365l-412 -446l215 -662h-362l-119 418l-111 -117l-63 -301h-332z" />
<glyph unicode="l" d="M100 0l312 1462h331l-311 -1462h-332z" />
<glyph unicode="m" horiz-adv-x="1630" d="M102 0l236 1108h319l-28 -131h4q113 160 301 160q217 0 235 -170q78 96 147.5 133t164.5 37q235 0 235 -204q0 -46 -12 -104l-176 -829h-332l160 756q7 29 6 51q0 75 -74 76q-51 0 -93 -40t-60 -118l-154 -725h-332l160 756q7 29 7 51q0 75 -75 76q-51 0 -93 -40 t-60 -118l-154 -725h-332z" />
<glyph unicode="n" horiz-adv-x="1062" d="M92 0l236 1108h319l-29 -131h5q113 160 301 160q235 0 235 -204q0 -46 -12 -104l-176 -829h-332l160 756q7 29 6 51q0 75 -74 76q-51 0 -93 -40t-60 -118l-154 -725h-332z" />
<glyph unicode="o" horiz-adv-x="1024" d="M141 362q8 78 31 189q29 135 69 233.5t104.5 182.5t166.5 127t242 43q119 0 196.5 -30t116.5 -77t49 -127q6 -44 6 -88q0 -35 -4 -70q-8 -78 -31 -188q-29 -135 -68.5 -233.5t-104 -182.5t-167 -127t-241.5 -43q-119 0 -197 30t-116.5 77t-49.5 127q-6 44 -5 88 q-1 34 3 69zM472 270q9 -82 83 -82t114 77t85 288q23 109 31 174q7 49 7 87v25q-3 46 -23.5 63.5t-59.5 17.5q-74 0 -117 -81t-86 -284q-35 -167 -36 -252q0 -19 2 -33z" />
<glyph unicode="p" horiz-adv-x="1062" d="M16 -360l312 1468h319l-29 -135h5q88 164 274 164q172 0 226 -132q25 -62 26 -163q0 -114 -33 -279q-29 -141 -62.5 -239.5t-84.5 -183.5t-126 -127t-173 -42q-178 0 -215 150h-4l-103 -481h-332zM503 313q5 -100 81 -100q82 0 120.5 78t77.5 256q33 120 34 219 q0 11 -1 21q-4 108 -88 108q-70 0 -111 -79t-79 -255q-34 -130 -35 -224q0 -12 1 -24z" />
<glyph unicode="q" horiz-adv-x="1062" d="M147 324q8 98 37 239q63 303 178 438.5t287 135.5q100 0 148.5 -48.5t56.5 -115.5h4l29 135h319l-311 -1468h-332l103 481h-4q-57 -82 -138 -119q-63 -31 -143 -31q-98 0 -155.5 42t-71.5 127q-9 54 -10 114q0 34 3 70zM480 305q7 -92 89 -92q53 0 92 50t58.5 115.5 t44.5 182.5q32 134 32 216q0 17 -1 32q-8 86 -78 86q-59 0 -101.5 -55.5t-60.5 -118t-41 -174.5q-35 -127 -35 -213q0 -15 1 -29z" />
<glyph unicode="r" horiz-adv-x="757" d="M92 0l236 1108h319l-33 -156h4q119 184 306 185q33 0 53 -4l-68 -312q-41 8 -90 8q-219 0 -262 -200l-133 -629h-332z" />
<glyph unicode="s" horiz-adv-x="948" d="M115 303l12 49h295q-9 -47 -9 -81q0 -26 5 -44q16 -51 90 -51q57 0 95 32t48 81q3 13 3 24q0 74 -101 111q-63 23 -100 38t-82 36.5t-67.5 40t-46.5 46t-31 57.5t-7 71t10 90q35 164 163 249t331 85q215 0 290 -87q54 -63 54 -152q0 -34 -8 -73l-8 -37h-295l4 21 q6 29 6 50q0 31 -12 46q-20 27 -76 27q-115 0 -135 -103q-2 -10 -2 -19q0 -27 17 -47q24 -28 67 -42t96 -32.5t104.5 -40t91 -62.5t55.5 -100q7 -27 7 -60q0 -41 -10 -92q-37 -170 -168 -266.5t-334 -96.5q-219 0 -303 82q-59 58 -60 159q1 42 11 91z" />
<glyph unicode="t" horiz-adv-x="645" d="M184 879l49 229h138l69 326h332l-70 -326h154l-49 -229h-154l-118 -560q-5 -22 -5 -39q0 -27 12 -40q19 -23 79 -23q18 0 47 4l-47 -221q-98 -12 -193 -12q-178 0 -225 55q-25 30 -25 97q0 59 19 147l125 592h-138z" />
<glyph unicode="u" horiz-adv-x="1062" d="M152 279l176 829h331l-159 -756q-7 -29 -7 -51q0 -75 74 -76q51 0 93 40t61 118l153 725h332l-235 -1108h-320l29 131h-4q-113 -160 -301 -160q-235 0 -236 204q1 47 13 104z" />
<glyph unicode="v" horiz-adv-x="985" d="M258 1108h344l-45 -817h4l305 817h332l-510 -1108h-393z" />
<glyph unicode="w" horiz-adv-x="1517" d="M250 0l4 1108h332l-68 -817h4l299 817h357l-58 -817h4l291 817h320l-475 -1108h-375l53 817h-4l-303 -817h-381z" />
<glyph unicode="x" horiz-adv-x="985" d="M8 0l420 573l-166 535h332l61 -330l205 330h332l-389 -535l174 -573h-332l-74 358l-231 -358h-332z" />
<glyph unicode="y" horiz-adv-x="985" d="M37 -356l49 233q53 -8 80 -8q117 0 166 123l-76 1116h344l-31 -776h4l295 776h332l-534 -1116q-102 -213 -197.5 -282.5t-288.5 -69.5q-100 0 -143 4z" />
<glyph unicode="z" horiz-adv-x="948" d="M63 0l54 254l547 600h-400l53 254h793l-53 -254l-559 -600h440l-53 -254h-822z" />
<glyph unicode="{" horiz-adv-x="681" d="M92 453l39 180q76 0 143.5 48t81.5 122l82 383q29 133 120 204.5t233 71.5h206l-49 -229h-82q-109 0 -143 -150l-66 -311q-20 -92 -88.5 -153.5t-160.5 -73.5l-2 -4q197 -27 151 -242l-63 -297q-31 -150 79 -149h82l-49 -230h-207q-137 0 -200.5 69.5t-32.5 207.5l78 368 q16 78 -28 131.5t-124 53.5z" />
<glyph unicode="|" horiz-adv-x="919" d="M498 -553v2216h235v-2216h-235z" />
<glyph unicode="}" horiz-adv-x="681" d="M-84 -377l49 230h82q111 0 141 149l68 311q18 92 87 153.5t163 74.5l2 4q-199 27 -152 241l62 297q35 150 -78 150h-82l49 229h207q137 0 200.5 -69.5t33.5 -206.5l-78 -369q-16 -78 27.5 -131t123.5 -53l-39 -180q-76 0 -143.5 -48.5t-83.5 -121.5l-80 -383 q-29 -133 -120 -205t-232 -72h-207z" />
<glyph unicode="~" horiz-adv-x="1228" d="M258 545q127 176 289 176q104 0 227 -70q4 -2 21.5 -12t22.5 -13t20.5 -11.5t22.5 -11.5t20.5 -8t23.5 -7t22.5 -4t24.5 -2q55 0 121 47t94 92l25 -229q-131 -176 -289 -177q-109 0 -227.5 70t-179.5 70q-55 0 -120 -47.5t-93 -92.5z" />
<glyph unicode="&#xa0;" />
<glyph unicode="&#xa1;" horiz-adv-x="684" d="M102 -348l103 479l155 565h254l-77 -565l-103 -479h-332zM352 807l66 307h319l-65 -307h-320z" />
<glyph unicode="&#xa2;" horiz-adv-x="1064" d="M184 176q-33 135 31 418q51 246 165 386t329 157l34 163h160l-35 -163q190 -18 243.5 -132t12.5 -315h-307q25 121 6.5 175.5t-84.5 54.5q-76 0 -118.5 -87.5t-83.5 -279.5q-45 -188 -37 -276.5t86 -88.5q72 0 108.5 56.5t71.5 206.5h307q-51 -233 -159.5 -346 t-292.5 -134l-39 -186h-160l39 186q-230 21 -277 205z" />
<glyph unicode="&#xa3;" horiz-adv-x="1064" d="M72 176q141 82 218 173t93 175q10 45 6 74h-219l41 193h137q-57 156 -29 292q35 164 175.5 265.5t343.5 101.5q258 0 344 -108.5t45 -313.5h-307l6 29q37 176 -97 176q-145 0 -178 -150q-8 -51 -1 -100t42 -192h352l-40 -193h-283q4 -27 -2 -57q-18 -82 -85 -155 t-192 -157l2 -4q53 23 109 23q45 0 102.5 -23.5t108.5 -23.5q100 0 229 75l51 -210q-168 -94 -350 -95q-51 0 -166.5 37t-181.5 37q-92 0 -227 -61z" />
<glyph unicode="&#xa4;" horiz-adv-x="1064" d="M72 317l133 111q-57 129 -24.5 282.5t145.5 282.5l-86 111l163 135l86 -111q147 86 302 86q156 0 264 -86l135 111l106 -135l-135 -111q59 -127 27 -282q-35 -158 -148 -281l88 -113l-163 -135l-88 111q-141 -86 -302 -86q-156 0 -260 88l-137 -113zM434.5 710.5 q-24.5 -110.5 28.5 -186t165.5 -75.5t196.5 75.5t108.5 186t-28.5 186.5t-165.5 76t-196.5 -76t-108.5 -186.5z" />
<glyph unicode="&#xa5;" horiz-adv-x="1064" d="M133 270l41 193h297l25 112l-9 39h-280l41 193h201l-134 614h351l59 -526h4l289 526h338l-395 -614h200l-41 -193h-280l-25 -39l-24 -112h296l-40 -193h-297l-58 -270h-319l57 270h-297z" />
<glyph unicode="&#xa6;" horiz-adv-x="919" d="M498 -387v776h233v-776h-233zM498 721v778h233v-778h-233z" />
<glyph unicode="&#xa7;" horiz-adv-x="1062" d="M94 33l12 51h320l-8 -33q-16 -66 8.5 -105.5t79.5 -39.5q111 0 139 137q10 43 -15.5 78t-71.5 57.5t-103.5 49t-112.5 54t-98 73.5t-60.5 105.5t0.5 151.5q18 94 86 174t150 121q-102 78 -70 236q37 178 173 263t325 85q238 0 316.5 -88t43.5 -252l-2 -16h-307l6 30 q23 109 -94 109q-59 0 -93 -31t-42 -69q-8 -41 17.5 -73t71.5 -51.5t104.5 -45t113.5 -53t98 -74t59.5 -109.5t-1.5 -158q-37 -178 -219 -303q90 -104 59 -262q-76 -356 -520 -356q-225 0 -311.5 96t-53.5 248zM459 657q-12 -59 26.5 -92t126.5 -68.5t140 -74.5 q98 70 110 141q14 61 -33 102.5t-129 75t-108 54.5q-53 -25 -89 -64t-44 -74z" />
<glyph unicode="&#xa8;" d="M221 1237l58 266h253l-57 -266h-254zM582 1237l57 266h254l-57 -266h-254z" />
<glyph unicode="&#xa9;" horiz-adv-x="1638" d="M215 731q66 315 336 537.5t585.5 222.5t489.5 -222t109 -538q-68 -315 -337.5 -537.5t-584.5 -222.5t-490.5 222.5t-107.5 537.5zM432 731.5q-51 -235.5 74 -395.5t350 -160t417.5 160t244.5 395q49 236 -76 395.5t-350.5 159.5t-417 -159.5t-242.5 -395zM569 731 q43 201 184.5 328t342.5 127q143 0 230 -84t75 -236h-201q-4 57 -44 92t-112 35q-98 0 -171.5 -74.5t-98.5 -187.5q-23 -106 21.5 -184t136.5 -78q72 0 130 37t79 96h213q-53 -152 -179 -239t-266 -87q-201 0 -292 129t-48 326z" />
<glyph unicode="&#xaa;" horiz-adv-x="665" d="M225 946q27 121 129 168q25 12 63 21.5t84 18.5t66 15q47 12 61.5 25.5t22.5 50.5q14 57 -47 58q-66 0 -86 -82h-229q31 135 121 186q76 43 233 43q152 0 207 -46t33 -151l-74 -344q-25 -115 -6 -143h-236q-12 39 -4 76h-4q-18 -41 -65 -66q-49 -25 -111 -24 q-199 -1 -158 194zM461 971q-8 -31 4 -51.5t39 -20.5q29 0 56.5 20.5t33.5 57.5l24 110q-33 -16 -67.5 -28t-46.5 -23q-35 -26 -43 -65z" />
<glyph unicode="&#xab;" horiz-adv-x="909" d="M178 393l84 398l367 225l-64 -307l-196 -117l145 -117l-65 -307zM580 393l84 398l366 225l-63 -307l-197 -117l145 -117l-65 -307z" />
<glyph unicode="&#xac;" horiz-adv-x="1228" d="M225 608l58 266h1036l-143 -673h-267l86 407h-770z" />
<glyph unicode="&#xad;" horiz-adv-x="757" d="M166 453l59 278h619l-60 -278h-618z" />
<glyph unicode="&#xae;" horiz-adv-x="1638" d="M215 731q66 315 336 537.5t585.5 222.5t489.5 -222t109 -538q-68 -315 -337.5 -537.5t-584.5 -222.5t-490.5 222.5t-107.5 537.5zM432 731.5q-51 -235.5 74 -395.5t350 -160t417.5 160t244.5 395q49 236 -76 395.5t-350.5 159.5t-417 -159.5t-242.5 -395zM561 307 l180 846h334q164 0 230.5 -67.5t37.5 -196.5q-23 -102 -92 -163.5t-159 -74.5l137 -344h-213l-119 336h-72l-71 -336h-193zM852 791h139q70 0 110 21.5t52 86.5q14 63 -27 85t-108 22h-121z" />
<glyph unicode="&#xaf;" d="M221 1282l39 180h635l-39 -180h-635z" />
<glyph unicode="&#xb0;" horiz-adv-x="819" d="M340 1139q29 129 138.5 220t238.5 91t200.5 -91t45.5 -220q-29 -129 -138.5 -220.5t-238.5 -91.5t-201 91.5t-45 220.5zM499.5 1138.5q-14.5 -63.5 20.5 -107.5t98.5 -44t116.5 44t67.5 107.5t-20 107.5t-98 44t-117 -44t-68 -107.5z" />
<glyph unicode="&#xb1;" horiz-adv-x="1228" d="M96 0l58 266h1036l-57 -266h-1037zM215 555l55 266h385l47 215h267l-47 -215h385l-56 -266h-385l-47 -215h-266l47 215h-385z" />
<glyph unicode="&#xb2;" horiz-adv-x="692" d="M141 573q49 209 308 390q92 63 137 106t56 64.5t20 62.5q20 94 -48 94q-76 0 -106 -139h-242l8 39q57 260 383 260q184 0 240.5 -65.5t30.5 -186.5q-18 -94 -66.5 -157.5t-191.5 -149.5q-127 -78 -166 -125h323l-39 -193h-647z" />
<glyph unicode="&#xb3;" horiz-adv-x="692" d="M188 850h267q-10 -49 -4 -88q6 -43 45 -43q76 0 96 104q14 68 -5.5 93.5t-84.5 25.5h-58l33 160h62q96 0 120 110q8 35 -5 56.5t-40 21.5q-29 0 -55.5 -26.5t-38.5 -79.5h-241q31 141 114 202q88 63 271 64q166 0 227 -57.5t33 -184.5q-31 -150 -195 -176v-4 q92 -14 122 -61t11 -133q-59 -274 -389 -275q-180 0 -251 60.5t-34 230.5z" />
<glyph unicode="&#xb4;" d="M401 1225l164 291h320l-267 -291h-217z" />
<glyph unicode="&#xb5;" horiz-adv-x="1062" d="M16 -360l312 1468h331l-159 -756q-29 -127 67 -127q51 0 93 40t61 118l153 725h332l-235 -1108h-320l29 131h-4q-43 -66 -101.5 -113t-111.5 -47q-27 0 -43 9l-72 -340h-332z" />
<glyph unicode="&#xb6;" horiz-adv-x="1228" d="M303 1069q39 182 161 287.5t292 105.5h618l-370 -1745h-267l328 1540h-135l-328 -1540h-266l207 973q-125 0 -201 104.5t-39 274.5z" />
<glyph unicode="&#xb7;" d="M174.5 559q18.5 88 93 149.5t162.5 61.5t136 -61.5t30 -149.5t-93 -149.5t-163 -61.5t-136 61.5t-29.5 149.5z" />
<glyph unicode="&#xb8;" d="M-66 -432l66 106q86 -31 135 -30q102 0 119 75q4 27 -19.5 45.5t-62.5 18.5q-25 0 -61 -12l-39 39l147 190h121l-98 -123q33 8 55 8q90 0 128 -46t24 -111q-18 -88 -99.5 -143.5t-197.5 -55.5q-51 0 -88 6t-84 19z" />
<glyph unicode="&#xb9;" horiz-adv-x="692" d="M322 1159l34 160h27q190 0 248 131h184l-184 -877h-266l122 586h-165z" />
<glyph unicode="&#xba;" horiz-adv-x="665" d="M234.5 920.5q1.5 76.5 19.5 177.5q37 172 120 262t267 90q133 0 195.5 -46t61.5 -124t-19 -178q-35 -170 -119 -260t-266 -90q-133 0 -197 46t-62.5 122.5zM479 946q6 -47 45 -47q41 0 64.5 44t48.5 157q25 111 19.5 157t-46.5 46q-39 0 -65.5 -46.5t-49 -155 t-16.5 -155.5z" />
<glyph unicode="&#xbb;" horiz-adv-x="909" d="M129 168l66 307l194 113l-143 121l63 307l273 -225l-84 -398zM530 168l66 307l195 113l-144 121l64 307l272 -225l-84 -398z" />
<glyph unicode="&#xbc;" horiz-adv-x="1593" d="M211 -63l1149 1548h203l-1149 -1548h-203zM281 1159l34 160h27q190 0 248 131h184l-184 -877h-266l122 586h-165zM905 152l41 192l397 516h291l-108 -516h90l-41 -192h-90l-33 -152h-254l33 152h-326zM1130 344h142l55 262h-4z" />
<glyph unicode="&#xbd;" horiz-adv-x="1593" d="M211 -63l1149 1548h203l-1149 -1548h-203zM281 1159l34 160h27q190 0 248 131h184l-184 -877h-266l122 586h-165zM887 0q49 209 307 389q131 92 167 134t48 100q20 94 -49 94q-74 0 -105 -139h-241l8 38q55 260 383 261q184 0 240.5 -66t29.5 -186q-18 -94 -66 -158 t-192 -150q-123 -74 -166 -124h324l-41 -193h-647z" />
<glyph unicode="&#xbe;" horiz-adv-x="1593" d="M176 850h266q-10 -49 -4 -88q6 -43 45 -43q76 0 97 104q14 68 -5.5 93.5t-85.5 25.5h-57l33 160h61q96 0 121 110q8 35 -5 56.5t-40 21.5q-29 0 -55.5 -26.5t-38.5 -79.5h-242q31 141 115 202q88 63 270 64q166 0 227.5 -57.5t32.5 -184.5q-31 -150 -194 -176v-4 q92 -14 121.5 -61t11.5 -133q-59 -274 -389 -275q-180 0 -251 60.5t-34 230.5zM293 -63l1149 1548h203l-1149 -1548h-203zM973 152l41 192l397 516h291l-109 -516h90l-41 -192h-90l-32 -152h-254l32 152h-325zM1198 344h141l56 262h-4z" />
<glyph unicode="&#xbf;" horiz-adv-x="1024" d="M84 20q20 96 67.5 176t102.5 132.5t108.5 98.5t94.5 96t53 106l14 67h307l-14 -65q-35 -178 -127 -279q-29 -31 -106.5 -92t-122.5 -120.5t-64 -149.5q-33 -150 80 -150q66 0 109 62.5t73 206.5h308l-9 -41q-45 -213 -177 -329t-345 -116q-209 0 -301 104.5t-51 292.5z M543 807l65 307h320l-66 -307h-319z" />
<glyph unicode="&#xc0;" horiz-adv-x="1175" d="M4 0l684 1462h430l53 -1462h-356l6 279h-350l-111 -279h-356zM578 545h249l13 651h-4zM682 1843h319l41 -291h-217z" />
<glyph unicode="&#xc1;" horiz-adv-x="1175" d="M4 0l684 1462h430l53 -1462h-356l6 279h-350l-111 -279h-356zM578 545h249l13 651h-4zM793 1552l163 291h320l-266 -291h-217z" />
<glyph unicode="&#xc2;" horiz-adv-x="1175" d="M4 0l684 1462h430l53 -1462h-356l6 279h-350l-111 -279h-356zM578 545h249l13 651h-4zM600 1552l207 291h344l84 -291h-242l-41 166l-108 -166h-244z" />
<glyph unicode="&#xc3;" horiz-adv-x="1175" d="M4 0l684 1462h430l53 -1462h-356l6 279h-350l-111 -279h-356zM578 545h249l13 651h-4zM588 1559q35 123 96 192q72 86 156 86q66 0 131 -31q84 -31 98 -30q25 0 41 10t22.5 21.5t14.5 29.5h164q-33 -113 -98.5 -195.5t-165.5 -82.5q-55 0 -132 30.5t-98 30.5 q-49 0 -72 -61h-157z" />
<glyph unicode="&#xc4;" horiz-adv-x="1175" d="M4 0l684 1462h430l53 -1462h-356l6 279h-350l-111 -279h-356zM578 545h249l13 651h-4zM612 1565l58 266h254l-58 -266h-254zM973 1565l57 266h254l-57 -266h-254z" />
<glyph unicode="&#xc5;" horiz-adv-x="1175" d="M4 0l684 1462h430l53 -1462h-356l6 279h-350l-111 -279h-356zM578 545h249l13 651h-4zM712.5 1749q22.5 102 109.5 175t189.5 73t160 -73t36.5 -175q-23 -102 -110.5 -175t-190 -73t-160 73t-35 175zM837.5 1749q-10.5 -51 17.5 -87t79 -36t95 36t54.5 87t-18.5 87 t-80 36t-94 -36t-53.5 -87z" />
<glyph unicode="&#xc6;" horiz-adv-x="1630" d="M18 0l865 1462h981l-60 -278h-461l-63 -293h430l-57 -279h-430l-72 -333h479l-59 -279h-799l59 279h-307l-149 -279h-357zM668 545h221l135 639h-16z" />
<glyph unicode="&#xc7;" horiz-adv-x="1099" d="M174 360.5q6 94.5 18.5 177.5t38.5 203q20 96 37 161t45.5 151t60.5 142t83 117.5t111.5 96.5t144.5 58.5t186 23.5q233 0 326.5 -111.5t40.5 -363.5l-13 -62h-331q37 160 22.5 234t-96.5 74q-98 0 -146.5 -103.5t-111.5 -410.5q-39 -182 -54.5 -270.5t-14.5 -161t29 -94 t85 -21.5q82 0 130 92t89 280h332l-12 -51q-25 -119 -63 -208t-100.5 -164.5t-161.5 -119.5t-233 -55l-77 -98q33 8 55 8q90 0 128 -46t23 -111q-18 -88 -99 -143.5t-197 -55.5q-51 0 -88 6t-82 19l-48 14l66 106q86 -31 135 -30q102 0 119 75q4 27 -19.5 45.5t-62.5 18.5 q-25 0 -61 -12l-39 39l125 161q-94 6 -160 35t-100.5 84t-50 115.5t-9.5 155z" />
<glyph unicode="&#xc8;" horiz-adv-x="1024" d="M106 0l312 1462h846l-60 -278h-502l-63 -293h471l-57 -279h-471l-72 -333h524l-59 -279h-869zM606 1843h320l41 -291h-217z" />
<glyph unicode="&#xc9;" horiz-adv-x="1024" d="M106 0l312 1462h846l-60 -278h-502l-63 -293h471l-57 -279h-471l-72 -333h524l-59 -279h-869zM717 1552l164 291h319l-266 -291h-217z" />
<glyph unicode="&#xca;" horiz-adv-x="1024" d="M106 0l312 1462h846l-60 -278h-502l-63 -293h471l-57 -279h-471l-72 -333h524l-59 -279h-869zM524 1552l207 291h344l84 -291h-241l-41 166l-109 -166h-244z" />
<glyph unicode="&#xcb;" horiz-adv-x="1024" d="M106 0l312 1462h846l-60 -278h-502l-63 -293h471l-57 -279h-471l-72 -333h524l-59 -279h-869zM537 1565l57 266h254l-57 -266h-254zM897 1565l57 266h254l-57 -266h-254z" />
<glyph unicode="&#xcc;" horiz-adv-x="569" d="M113 0l311 1462h344l-311 -1462h-344zM379 1843h319l41 -291h-217z" />
<glyph unicode="&#xcd;" horiz-adv-x="569" d="M113 0l311 1462h344l-311 -1462h-344zM489 1552l164 291h320l-266 -291h-218z" />
<glyph unicode="&#xce;" horiz-adv-x="569" d="M113 0l311 1462h344l-311 -1462h-344zM297 1552l207 291h344l84 -291h-242l-41 166l-108 -166h-244z" />
<glyph unicode="&#xcf;" horiz-adv-x="569" d="M113 0l311 1462h344l-311 -1462h-344zM309 1565l58 266h254l-58 -266h-254zM670 1565l57 266h254l-57 -266h-254z" />
<glyph unicode="&#xd0;" horiz-adv-x="1175" d="M106 0l138 649h-107l49 230h107l125 583h502q258 0 339.5 -153.5t8.5 -530.5q-39 -172 -76 -285.5t-90 -215t-124 -158t-170 -88t-235 -31.5h-467zM504 254h92q86 0 136 34t95 142.5t91 325.5q59 268 38.5 360t-153.5 92h-96l-70 -329h127l-49 -230h-127z" />
<glyph unicode="&#xd1;" horiz-adv-x="1214" d="M106 0l312 1462h395l80 -950h4l203 950h319l-311 -1462h-389l-86 1008h-4l-215 -1008h-308zM608 1559q35 123 97 192q72 86 155 86q66 0 131 -31q84 -31 99 -30q25 0 41 10t22 21.5t14 29.5h164q-33 -113 -98.5 -195.5t-165.5 -82.5q-55 0 -132 30.5t-97 30.5 q-49 0 -72 -61h-158z" />
<glyph unicode="&#xd2;" horiz-adv-x="1175" d="M181 264.5q-9 102.5 3.5 208t45 259t64.5 259t85 206.5t121.5 161.5t170 96.5t234.5 36q102 0 177 -22.5t121 -56.5t71.5 -93t34 -116.5t1.5 -144.5t-18.5 -155.5t-34 -171t-40 -171t-47 -156t-62.5 -144.5t-83 -116.5t-111.5 -93.5t-145.5 -56.5t-186 -22.5 q-133 0 -219.5 36t-129.5 95.5t-52 162zM524 317.5q2 -67.5 28 -92t77 -24.5q100 0 152.5 107.5t119.5 422.5q35 162 49.5 254t11 159.5t-29 92.5t-78.5 25q-98 0 -149.5 -107.5t-118.5 -423.5q-35 -162 -49.5 -254t-12.5 -159.5zM682 1843h319l41 -291h-217z" />
<glyph unicode="&#xd3;" horiz-adv-x="1175" d="M181 264.5q-9 102.5 3.5 208t45 259t64.5 259t85 206.5t121.5 161.5t170 96.5t234.5 36q102 0 177 -22.5t121 -56.5t71.5 -93t34 -116.5t1.5 -144.5t-18.5 -155.5t-34 -171t-40 -171t-47 -156t-62.5 -144.5t-83 -116.5t-111.5 -93.5t-145.5 -56.5t-186 -22.5 q-133 0 -219.5 36t-129.5 95.5t-52 162zM524 317.5q2 -67.5 28 -92t77 -24.5q100 0 152.5 107.5t119.5 422.5q35 162 49.5 254t11 159.5t-29 92.5t-78.5 25q-98 0 -149.5 -107.5t-118.5 -423.5q-35 -162 -49.5 -254t-12.5 -159.5zM793 1552l163 291h320l-266 -291h-217z" />
<glyph unicode="&#xd4;" horiz-adv-x="1175" d="M181 264.5q-9 102.5 3.5 208t45 259t64.5 259t85 206.5t121.5 161.5t170 96.5t234.5 36q102 0 177 -22.5t121 -56.5t71.5 -93t34 -116.5t1.5 -144.5t-18.5 -155.5t-34 -171t-40 -171t-47 -156t-62.5 -144.5t-83 -116.5t-111.5 -93.5t-145.5 -56.5t-186 -22.5 q-133 0 -219.5 36t-129.5 95.5t-52 162zM524 317.5q2 -67.5 28 -92t77 -24.5q100 0 152.5 107.5t119.5 422.5q35 162 49.5 254t11 159.5t-29 92.5t-78.5 25q-98 0 -149.5 -107.5t-118.5 -423.5q-35 -162 -49.5 -254t-12.5 -159.5zM600 1552l207 291h344l84 -291h-242 l-41 166l-108 -166h-244z" />
<glyph unicode="&#xd5;" horiz-adv-x="1175" d="M181 264.5q-9 102.5 3.5 208t45 259t64.5 259t85 206.5t121.5 161.5t170 96.5t234.5 36q102 0 177 -22.5t121 -56.5t71.5 -93t34 -116.5t1.5 -144.5t-18.5 -155.5t-34 -171t-40 -171t-47 -156t-62.5 -144.5t-83 -116.5t-111.5 -93.5t-145.5 -56.5t-186 -22.5 q-133 0 -219.5 36t-129.5 95.5t-52 162zM524 317.5q2 -67.5 28 -92t77 -24.5q100 0 152.5 107.5t119.5 422.5q35 162 49.5 254t11 159.5t-29 92.5t-78.5 25q-98 0 -149.5 -107.5t-118.5 -423.5q-35 -162 -49.5 -254t-12.5 -159.5zM588 1559q35 123 96 192q72 86 156 86 q66 0 131 -31q84 -31 98 -30q25 0 41 10t22.5 21.5t14.5 29.5h164q-33 -113 -98.5 -195.5t-165.5 -82.5q-55 0 -132 30.5t-98 30.5q-49 0 -72 -61h-157z" />
<glyph unicode="&#xd6;" horiz-adv-x="1175" d="M181 264.5q-9 102.5 3.5 208t45 259t64.5 259t85 206.5t121.5 161.5t170 96.5t234.5 36q102 0 177 -22.5t121 -56.5t71.5 -93t34 -116.5t1.5 -144.5t-18.5 -155.5t-34 -171t-40 -171t-47 -156t-62.5 -144.5t-83 -116.5t-111.5 -93.5t-145.5 -56.5t-186 -22.5 q-133 0 -219.5 36t-129.5 95.5t-52 162zM524 317.5q2 -67.5 28 -92t77 -24.5q100 0 152.5 107.5t119.5 422.5q35 162 49.5 254t11 159.5t-29 92.5t-78.5 25q-98 0 -149.5 -107.5t-118.5 -423.5q-35 -162 -49.5 -254t-12.5 -159.5zM612 1565l58 266h254l-58 -266h-254z M973 1565l57 266h254l-57 -266h-254z" />
<glyph unicode="&#xd7;" horiz-adv-x="1228" d="M160 205l383 313l-250 313l223 185l248 -316l379 316l145 -185l-381 -313l248 -313l-223 -185l-246 316l-381 -316z" />
<glyph unicode="&#xd8;" horiz-adv-x="1175" d="M150 -59l96 149q-49 61 -62.5 161.5t0 211t45.5 268.5q33 154 65 259.5t85 206.5t121.5 161.5t170 96.5t234.5 36q139 0 225 -39l84 129l123 -59l-98 -150q41 -49 59.5 -116.5t13.5 -158.5t-17.5 -169t-37.5 -197q-23 -102 -40 -170.5t-46.5 -156t-62.5 -144.5 t-83 -116.5t-111.5 -93.5t-145.5 -56.5t-186 -22.5q-147 0 -226 39l-84 -129zM530 279q14 -78 99 -78q100 0 152.5 107.5t119.5 422.5q25 109 33 166h-4zM551 563h4l401 619q-16 80 -102 80q-98 0 -149.5 -107.5t-118.5 -423.5q-29 -131 -35 -168z" />
<glyph unicode="&#xd9;" horiz-adv-x="1138" d="M166 282.5q-4 94.5 24 200.5l209 979h344l-229 -1079q-39 -182 98.5 -182t175.5 182l230 1079h344l-209 -979q-25 -117 -62.5 -202.5t-104 -159.5t-172 -112t-251 -38t-235.5 40t-124 108.5t-38 163zM664 1843h319l41 -291h-217z" />
<glyph unicode="&#xda;" horiz-adv-x="1138" d="M166 282.5q-4 94.5 24 200.5l209 979h344l-229 -1079q-39 -182 98.5 -182t175.5 182l230 1079h344l-209 -979q-25 -117 -62.5 -202.5t-104 -159.5t-172 -112t-251 -38t-235.5 40t-124 108.5t-38 163zM774 1552l164 291h319l-266 -291h-217z" />
<glyph unicode="&#xdb;" horiz-adv-x="1138" d="M166 282.5q-4 94.5 24 200.5l209 979h344l-229 -1079q-39 -182 98.5 -182t175.5 182l230 1079h344l-209 -979q-25 -117 -62.5 -202.5t-104 -159.5t-172 -112t-251 -38t-235.5 40t-124 108.5t-38 163zM582 1552l206 291h345l84 -291h-242l-41 166l-109 -166h-243z" />
<glyph unicode="&#xdc;" horiz-adv-x="1138" d="M166 282.5q-4 94.5 24 200.5l209 979h344l-229 -1079q-39 -182 98.5 -182t175.5 182l230 1079h344l-209 -979q-25 -117 -62.5 -202.5t-104 -159.5t-172 -112t-251 -38t-235.5 40t-124 108.5t-38 163zM594 1565l57 266h254l-57 -266h-254zM954 1565l58 266h254l-58 -266 h-254z" />
<glyph unicode="&#xdd;" horiz-adv-x="1097" d="M317 1462h381l47 -542h5l284 542h369l-559 -887l-123 -575h-344l123 575zM754 1552l164 291h319l-266 -291h-217z" />
<glyph unicode="&#xde;" horiz-adv-x="1138" d="M106 0l312 1462h344l-55 -262h188q104 0 177 -29.5t110 -73.5t52 -106.5t12 -118t-15 -116.5q-94 -446 -563 -447h-152l-65 -309h-345zM569 563h95q168 0 210 185q18 94 -9 146t-126 52h-88z" />
<glyph unicode="&#xdf;" horiz-adv-x="1099" d="M100 0l217 1026q53 252 182.5 358.5t385.5 106.5q231 0 309 -95.5t41 -271.5q-51 -240 -256 -295v-4q100 -8 144 -95t5 -269q-57 -272 -175.5 -372.5t-323.5 -100.5q-82 0 -119 12l47 221q29 -4 51 -4q76 0 119 58.5t72 195.5q27 133 3 182t-108 49h-32l49 230h37 q111 0 151 172q35 170 -84 170q-113 0 -149 -176l-234 -1098h-332z" />
<glyph unicode="&#xe0;" horiz-adv-x="1024" d="M121 309q20 96 73.5 172t120.5 111q41 20 91.5 35.5t131 33t95.5 21.5q80 20 105.5 41.5t39.5 85.5q23 111 -82 111q-66 0 -99.5 -37t-51.5 -115h-295q45 213 188 297q119 72 324 72t282.5 -77t40.5 -251l-120 -569q-41 -188 -13 -240h-319q-4 41 8 127h-4 q-49 -72 -129 -114t-164 -42q-295 0 -223 338zM446 342q-29 -141 68 -141q57 0 103.5 36.5t62.5 114.5q8 45 43 195q-61 -29 -121.5 -49.5t-77.5 -32.5q-58 -37 -78 -123zM537 1516h319l41 -291h-217z" />
<glyph unicode="&#xe1;" horiz-adv-x="1024" d="M121 309q20 96 73.5 172t120.5 111q41 20 91.5 35.5t131 33t95.5 21.5q80 20 105.5 41.5t39.5 85.5q23 111 -82 111q-66 0 -99.5 -37t-51.5 -115h-295q45 213 188 297q119 72 324 72t282.5 -77t40.5 -251l-120 -569q-41 -188 -13 -240h-319q-4 41 8 127h-4 q-49 -72 -129 -114t-164 -42q-295 0 -223 338zM446 342q-29 -141 68 -141q57 0 103.5 36.5t62.5 114.5q8 45 43 195q-61 -29 -121.5 -49.5t-77.5 -32.5q-58 -37 -78 -123zM647 1225l164 291h319l-266 -291h-217z" />
<glyph unicode="&#xe2;" horiz-adv-x="1024" d="M121 309q20 96 73.5 172t120.5 111q41 20 91.5 35.5t131 33t95.5 21.5q80 20 105.5 41.5t39.5 85.5q23 111 -82 111q-66 0 -99.5 -37t-51.5 -115h-295q45 213 188 297q119 72 324 72t282.5 -77t40.5 -251l-120 -569q-41 -188 -13 -240h-319q-4 41 8 127h-4 q-49 -72 -129 -114t-164 -42q-295 0 -223 338zM446 342q-29 -141 68 -141q57 0 103.5 36.5t62.5 114.5q8 45 43 195q-61 -29 -121.5 -49.5t-77.5 -32.5q-58 -37 -78 -123zM455 1225l207 291h344l84 -291h-242l-41 166l-109 -166h-243z" />
<glyph unicode="&#xe3;" horiz-adv-x="1024" d="M121 309q20 96 73.5 172t120.5 111q41 20 91.5 35.5t131 33t95.5 21.5q80 20 105.5 41.5t39.5 85.5q23 111 -82 111q-66 0 -99.5 -37t-51.5 -115h-295q45 213 188 297q119 72 324 72t282.5 -77t40.5 -251l-120 -569q-41 -188 -13 -240h-319q-4 41 8 127h-4 q-49 -72 -129 -114t-164 -42q-295 0 -223 338zM442 1231q35 123 97 192q72 86 155 86q66 0 131 -30q84 -31 99 -31q25 0 41 10t22 21.5t14 29.5h164q-33 -113 -98.5 -195.5t-165.5 -82.5q-55 0 -132 30.5t-97 30.5q-49 0 -72 -61h-158zM446 342q-29 -141 68 -141 q57 0 103.5 36.5t62.5 114.5q8 45 43 195q-61 -29 -121.5 -49.5t-77.5 -32.5q-58 -37 -78 -123z" />
<glyph unicode="&#xe4;" horiz-adv-x="1024" d="M121 309q20 96 73.5 172t120.5 111q41 20 91.5 35.5t131 33t95.5 21.5q80 20 105.5 41.5t39.5 85.5q23 111 -82 111q-66 0 -99.5 -37t-51.5 -115h-295q45 213 188 297q119 72 324 72t282.5 -77t40.5 -251l-120 -569q-41 -188 -13 -240h-319q-4 41 8 127h-4 q-49 -72 -129 -114t-164 -42q-295 0 -223 338zM446 342q-29 -141 68 -141q57 0 103.5 36.5t62.5 114.5q8 45 43 195q-61 -29 -121.5 -49.5t-77.5 -32.5q-58 -37 -78 -123zM467 1237l57 266h254l-57 -266h-254zM827 1237l58 266h254l-58 -266h-254z" />
<glyph unicode="&#xe5;" horiz-adv-x="1024" d="M121 309q20 96 73.5 172t120.5 111q41 20 91.5 35.5t131 33t95.5 21.5q80 20 105.5 41.5t39.5 85.5q23 111 -82 111q-66 0 -99.5 -37t-51.5 -115h-295q45 213 188 297q119 72 324 72t282.5 -77t40.5 -251l-120 -569q-41 -188 -13 -240h-319q-4 41 8 127h-4 q-49 -72 -129 -114t-164 -42q-295 0 -223 338zM446 342q-29 -141 68 -141q57 0 103.5 36.5t62.5 114.5q8 45 43 195q-61 -29 -121.5 -49.5t-77.5 -32.5q-58 -37 -78 -123zM573.5 1452q22.5 102 109.5 175t189.5 73t160 -73t36.5 -175q-23 -102 -111 -175t-190 -73t-159.5 73 t-35 175zM698.5 1452q-10.5 -51 17 -87t79 -36t95.5 36t54 87t-18.5 87t-79.5 36t-94 -36t-53.5 -87z" />
<glyph unicode="&#xe6;" horiz-adv-x="1517" d="M121 309q20 96 73.5 172t120.5 111q41 20 91.5 35.5t131 33t95.5 21.5q80 20 105.5 41.5t39.5 85.5q23 111 -82 111q-66 0 -99.5 -37t-51.5 -115h-295q45 213 188 297q119 72 301 72q94 0 156.5 -26t81 -50.5t24.5 -48.5q109 125 320 125q195 0 266.5 -129t9.5 -422 l-18 -86h-559l-14 -68q-31 -129 -18 -192.5t83 -63.5q63 0 99 47t65 156h307q-94 -408 -516 -408q-152 0 -221.5 45t-85.5 138q-111 -182 -344 -183q-326 0 -254 338zM446 342q-29 -141 68 -141q57 0 103.5 36.5t62.5 114.5q8 45 43 195q-61 -29 -121.5 -49.5t-77.5 -32.5 q-58 -37 -78 -123zM1061 692h239q29 117 17 178.5t-78 61.5q-76 0 -114.5 -58.5t-63.5 -181.5z" />
<glyph unicode="&#xe7;" horiz-adv-x="985" d="M140 302q3 75 13.5 138.5t28.5 153.5q27 125 67 218t104.5 169t163.5 116t231 40q246 0 317.5 -115t26.5 -332h-308q25 121 6.5 175.5t-83.5 54.5q-76 0 -119 -87.5t-84 -279.5q-45 -188 -37 -276.5t86 -88.5q72 0 108.5 56.5t71.5 206.5h307q-51 -240 -166.5 -352.5 t-316.5 -123.5l-76 -98q33 8 56 8q90 0 127.5 -46t23.5 -111q-18 -88 -99 -143.5t-198 -55.5q-51 0 -88 6t-82 19l-47 14l66 106q86 -31 135 -30q102 0 119 75q4 27 -19.5 45.5t-62.5 18.5q-25 0 -62 -12l-39 39l127 165q-86 6 -146.5 32t-92 72t-47 97t-12.5 126z" />
<glyph unicode="&#xe8;" horiz-adv-x="985" d="M141 326.5q4 68.5 13.5 128t27.5 139.5q27 125 67 218t104.5 169t163.5 116t231 40q86 0 150.5 -16.5t104 -43t62 -74t31 -94.5t3.5 -119.5t-15.5 -135t-30.5 -154.5h-559l-15 -68q-31 -129 -17.5 -192.5t83.5 -63.5q63 0 99 47t65 156h307q-94 -408 -516 -408 q-88 0 -152.5 18.5t-105.5 47.5t-64.5 77t-32 96t-4.5 116.5zM530 1516h320l41 -291h-217zM535 692h239q29 117 16.5 178.5t-77.5 61.5q-76 0 -114.5 -58.5t-63.5 -181.5z" />
<glyph unicode="&#xe9;" horiz-adv-x="985" d="M141 326.5q4 68.5 13.5 128t27.5 139.5q27 125 67 218t104.5 169t163.5 116t231 40q86 0 150.5 -16.5t104 -43t62 -74t31 -94.5t3.5 -119.5t-15.5 -135t-30.5 -154.5h-559l-15 -68q-31 -129 -17.5 -192.5t83.5 -63.5q63 0 99 47t65 156h307q-94 -408 -516 -408 q-88 0 -152.5 18.5t-105.5 47.5t-64.5 77t-32 96t-4.5 116.5zM535 692h239q29 117 16.5 178.5t-77.5 61.5q-76 0 -114.5 -58.5t-63.5 -181.5zM641 1225l164 291h319l-266 -291h-217z" />
<glyph unicode="&#xea;" horiz-adv-x="985" d="M141 326.5q4 68.5 13.5 128t27.5 139.5q27 125 67 218t104.5 169t163.5 116t231 40q86 0 150.5 -16.5t104 -43t62 -74t31 -94.5t3.5 -119.5t-15.5 -135t-30.5 -154.5h-559l-15 -68q-31 -129 -17.5 -192.5t83.5 -63.5q63 0 99 47t65 156h307q-94 -408 -516 -408 q-88 0 -152.5 18.5t-105.5 47.5t-64.5 77t-32 96t-4.5 116.5zM449 1225l206 291h344l84 -291h-241l-41 166l-109 -166h-243zM535 692h239q29 117 16.5 178.5t-77.5 61.5q-76 0 -114.5 -58.5t-63.5 -181.5z" />
<glyph unicode="&#xeb;" horiz-adv-x="985" d="M141 326.5q4 68.5 13.5 128t27.5 139.5q27 125 67 218t104.5 169t163.5 116t231 40q86 0 150.5 -16.5t104 -43t62 -74t31 -94.5t3.5 -119.5t-15.5 -135t-30.5 -154.5h-559l-15 -68q-31 -129 -17.5 -192.5t83.5 -63.5q63 0 99 47t65 156h307q-94 -408 -516 -408 q-88 0 -152.5 18.5t-105.5 47.5t-64.5 77t-32 96t-4.5 116.5zM461 1237l57 266h254l-57 -266h-254zM535 692h239q29 117 16.5 178.5t-77.5 61.5q-76 0 -114.5 -58.5t-63.5 -181.5zM821 1237l58 266h254l-58 -266h-254z" />
<glyph unicode="&#xec;" d="M100 0l236 1108h332l-236 -1108h-332zM291 1516h319l41 -291h-217z" />
<glyph unicode="&#xed;" d="M100 0l236 1108h332l-236 -1108h-332zM401 1225l164 291h320l-267 -291h-217z" />
<glyph unicode="&#xee;" d="M100 0l236 1108h332l-236 -1108h-332zM209 1225l207 291h344l84 -291h-242l-41 166l-108 -166h-244z" />
<glyph unicode="&#xef;" d="M100 0l236 1108h332l-236 -1108h-332zM221 1237l58 266h253l-57 -266h-254zM582 1237l57 266h254l-57 -266h-254z" />
<glyph unicode="&#xf0;" horiz-adv-x="1024" d="M136 343q7 75 30 179q117 555 473 555q84 0 145 -45l7 4q-59 106 -152 226l-184 -99l-82 99l186 100q-41 51 -94 108l248 160q45 -51 112 -129l176 94l91 -96l-187 -96q74 -96 118 -180t70.5 -188.5t23.5 -228.5t-36 -280q-29 -129 -66.5 -221t-102 -172t-166 -121 t-240.5 -41q-119 0 -198 29t-117.5 74t-50 119.5t-4.5 149.5zM470 264q11 -76 85 -76t113 71t80 265q43 188 32.5 262t-84.5 74q-72 0 -114.5 -73.5t-83.5 -262.5q-39 -184 -28 -260z" />
<glyph unicode="&#xf1;" horiz-adv-x="1062" d="M92 0l236 1108h319l-29 -131h5q113 160 301 160q289 0 223 -308l-176 -829h-332l160 756q29 127 -68 127q-51 0 -93 -40t-60 -118l-154 -725h-332zM463 1231q35 123 96 192q72 86 156 86q66 0 131 -30q84 -31 98 -31q25 0 41 10t22.5 21.5t14.5 29.5h164 q-33 -113 -98.5 -195.5t-165.5 -82.5q-55 0 -132 30.5t-98 30.5q-49 0 -71 -61h-158z" />
<glyph unicode="&#xf2;" horiz-adv-x="1024" d="M141.5 362.5q8.5 77.5 30.5 188.5q29 135 69 233.5t104.5 182.5t166.5 127t242 43q119 0 196.5 -30t116.5 -77t49 -127t2 -157.5t-31 -188.5q-29 -135 -68.5 -233.5t-104 -182.5t-167 -127t-241.5 -43q-119 0 -197 30t-116.5 77t-49 127t-2 157.5zM472 270q9 -82 83 -82 t114 77t85 288q23 109 32 174.5t5.5 111.5t-23.5 63.5t-59 17.5q-74 0 -117 -81t-86 -284t-34 -285zM537 1516h319l41 -291h-217z" />
<glyph unicode="&#xf3;" horiz-adv-x="1024" d="M141.5 362.5q8.5 77.5 30.5 188.5q29 135 69 233.5t104.5 182.5t166.5 127t242 43q119 0 196.5 -30t116.5 -77t49 -127t2 -157.5t-31 -188.5q-29 -135 -68.5 -233.5t-104 -182.5t-167 -127t-241.5 -43q-119 0 -197 30t-116.5 77t-49 127t-2 157.5zM472 270q9 -82 83 -82 t114 77t85 288q23 109 32 174.5t5.5 111.5t-23.5 63.5t-59 17.5q-74 0 -117 -81t-86 -284t-34 -285zM647 1225l164 291h319l-266 -291h-217z" />
<glyph unicode="&#xf4;" horiz-adv-x="1024" d="M141.5 362.5q8.5 77.5 30.5 188.5q29 135 69 233.5t104.5 182.5t166.5 127t242 43q119 0 196.5 -30t116.5 -77t49 -127t2 -157.5t-31 -188.5q-29 -135 -68.5 -233.5t-104 -182.5t-167 -127t-241.5 -43q-119 0 -197 30t-116.5 77t-49 127t-2 157.5zM455 1225l207 291h344 l84 -291h-242l-41 166l-109 -166h-243zM472 270q9 -82 83 -82t114 77t85 288q23 109 32 174.5t5.5 111.5t-23.5 63.5t-59 17.5q-74 0 -117 -81t-86 -284t-34 -285z" />
<glyph unicode="&#xf5;" horiz-adv-x="1024" d="M141.5 362.5q8.5 77.5 30.5 188.5q29 135 69 233.5t104.5 182.5t166.5 127t242 43q119 0 196.5 -30t116.5 -77t49 -127t2 -157.5t-31 -188.5q-29 -135 -68.5 -233.5t-104 -182.5t-167 -127t-241.5 -43q-119 0 -197 30t-116.5 77t-49 127t-2 157.5zM442 1231 q35 123 97 192q72 86 155 86q66 0 131 -30q84 -31 99 -31q25 0 41 10t22 21.5t14 29.5h164q-33 -113 -98.5 -195.5t-165.5 -82.5q-55 0 -132 30.5t-97 30.5q-49 0 -72 -61h-158zM472 270q9 -82 83 -82t114 77t85 288q23 109 32 174.5t5.5 111.5t-23.5 63.5t-59 17.5 q-74 0 -117 -81t-86 -284t-34 -285z" />
<glyph unicode="&#xf6;" horiz-adv-x="1024" d="M141.5 362.5q8.5 77.5 30.5 188.5q29 135 69 233.5t104.5 182.5t166.5 127t242 43q119 0 196.5 -30t116.5 -77t49 -127t2 -157.5t-31 -188.5q-29 -135 -68.5 -233.5t-104 -182.5t-167 -127t-241.5 -43q-119 0 -197 30t-116.5 77t-49 127t-2 157.5zM467 1237l57 266h254 l-57 -266h-254zM472 270q9 -82 83 -82t114 77t85 288q23 109 32 174.5t5.5 111.5t-23.5 63.5t-59 17.5q-74 0 -117 -81t-86 -284t-34 -285zM827 1237l58 266h254l-58 -266h-254z" />
<glyph unicode="&#xf7;" horiz-adv-x="1228" d="M178 385l58 266h1036l-58 -266h-1036zM434 84q16 82 86 140.5t154 58.5q82 0 128 -57.5t29 -141.5q-18 -84 -88.5 -141.5t-152.5 -57.5q-84 0 -129 58.5t-27 140.5zM618 952q16 82 86 140.5t154 58.5q82 0 128 -57.5t30 -141.5q-18 -84 -89 -141t-153 -57q-84 0 -129 58 t-27 140z" />
<glyph unicode="&#xf8;" horiz-adv-x="1024" d="M74 -59l114 147q-35 47 -45 123t-1.5 154.5t32.5 189.5q20 94 39.5 159.5t64 152.5t101.5 140.5t153.5 91.5t221.5 38q143 0 219 -39l110 141l103 -72l-113 -147q86 -123 12 -467q-20 -94 -39.5 -159.5t-63.5 -152.5t-101.5 -140.5t-153.5 -91.5t-221 -38q-143 0 -219 39 l-111 -141zM473 250q12 -61 80 -62q78 0 119 87t82 278l16 76h-4zM489 477h5l292 381q-12 61 -79 62q-78 0 -119 -87.5t-82 -277.5z" />
<glyph unicode="&#xf9;" horiz-adv-x="1062" d="M152 279l176 829h331l-159 -756q-29 -127 67 -127q51 0 93 40t61 118l153 725h332l-235 -1108h-320l29 131h-4q-113 -160 -301 -160q-289 1 -223 308zM557 1516h320l41 -291h-218z" />
<glyph unicode="&#xfa;" horiz-adv-x="1062" d="M152 279l176 829h331l-159 -756q-29 -127 67 -127q51 0 93 40t61 118l153 725h332l-235 -1108h-320l29 131h-4q-113 -160 -301 -160q-289 1 -223 308zM668 1225l163 291h320l-266 -291h-217z" />
<glyph unicode="&#xfb;" horiz-adv-x="1062" d="M152 279l176 829h331l-159 -756q-29 -127 67 -127q51 0 93 40t61 118l153 725h332l-235 -1108h-320l29 131h-4q-113 -160 -301 -160q-289 1 -223 308zM475 1225l207 291h344l84 -291h-242l-41 166l-108 -166h-244z" />
<glyph unicode="&#xfc;" horiz-adv-x="1062" d="M152 279l176 829h331l-159 -756q-29 -127 67 -127q51 0 93 40t61 118l153 725h332l-235 -1108h-320l29 131h-4q-113 -160 -301 -160q-289 1 -223 308zM487 1237l58 266h254l-58 -266h-254zM848 1237l57 266h254l-57 -266h-254z" />
<glyph unicode="&#xfd;" horiz-adv-x="985" d="M37 -356l49 233q53 -8 80 -8q117 0 166 123l-76 1116h344l-31 -776h4l295 776h332l-534 -1116q-102 -213 -197.5 -282.5t-288.5 -69.5q-100 0 -143 4zM629 1225l164 291h319l-266 -291h-217z" />
<glyph unicode="&#xfe;" horiz-adv-x="1062" d="M16 -360l387 1822h332l-104 -489h4q37 68 103.5 116t158.5 48q172 0 226.5 -132.5t-7.5 -441.5q-29 -141 -62.5 -239.5t-84.5 -183.5t-126 -127t-173 -42q-178 0 -215 150h-4l-103 -481h-332zM503 313.5q5 -100.5 81 -100.5q82 0 120.5 78t77.5 256q37 133 33 240.5 t-88 107.5q-70 0 -111 -79t-79 -255q-39 -147 -34 -247.5z" />
<glyph unicode="&#xff;" horiz-adv-x="985" d="M37 -356l49 233q53 -8 80 -8q117 0 166 123l-76 1116h344l-31 -776h4l295 776h332l-534 -1116q-102 -213 -197.5 -282.5t-288.5 -69.5q-100 0 -143 4zM449 1237l57 266h254l-58 -266h-253zM809 1237l57 266h254l-57 -266h-254z" />
<glyph unicode="&#x152;" horiz-adv-x="1593" d="M173 348q5 94 18.5 179t37.5 204q16 80 26.5 123t33 124t45 130t56.5 116.5t76 108.5t95 81t123 58.5t150 18.5q164 0 241 -100l17 71h761l-59 -278h-475l-64 -293h449l-57 -279h-449l-72 -333h494l-59 -279h-777l17 76q-117 -104 -285 -105q-100 0 -170 26t-105.5 79 t-54 115.5t-13.5 156.5zM524 317q10 -117 109 -116q72 0 110.5 39t65.5 104q20 55 94 387q68 330 70 387q2 66 -20.5 105t-94.5 39q-29 0 -54.5 -8.5t-47 -31t-36.5 -43t-32.5 -64.5t-28 -74.5t-26 -93t-23.5 -100.5t-24 -116q-68 -322 -62 -414z" />
<glyph unicode="&#x153;" horiz-adv-x="1517" d="M170 543q29 137 67.5 235.5t102 184.5t163 130t232.5 44q211 0 273 -142q127 141 325 142q154 0 230.5 -71t80 -192.5t-27.5 -283.5l-19 -90h-546l-15 -68q-31 -129 -18.5 -192.5t78.5 -63.5q57 0 93 47t64 156h308q-51 -207 -175 -307q-119 -100 -309 -101 q-229 0 -272 146q-113 -145 -344 -146q-213 0 -285 132.5t-6 439.5zM467 276.5q8 -88.5 86 -88.5q76 0 118 86t83 277q45 190 37.5 279.5t-84.5 89.5q-76 0 -119 -87.5t-84 -279.5q-45 -188 -37 -276.5zM1092 692h227q29 117 17.5 178.5t-72.5 61.5q-72 0 -109.5 -58.5 t-62.5 -181.5z" />
<glyph unicode="&#x178;" horiz-adv-x="1097" d="M317 1462h381l47 -542h5l284 542h369l-559 -887l-123 -575h-344l123 575zM573 1565l58 266h254l-58 -266h-254zM934 1565l57 266h254l-57 -266h-254z" />
<glyph unicode="&#x2c6;" d="M209 1225l207 291h344l84 -291h-242l-41 166l-108 -166h-244z" />
<glyph unicode="&#x2dc;" d="M197 1231q35 123 96 192q72 86 156 86q66 0 131 -30q84 -31 98 -31q25 0 41 10t22.5 21.5t14.5 29.5h164q-33 -113 -98.5 -195.5t-166.5 -82.5q-55 0 -132 30.5t-97 30.5q-49 0 -72 -61h-157z" />
<glyph unicode="&#x2000;" horiz-adv-x="997" />
<glyph unicode="&#x2001;" horiz-adv-x="1996" />
<glyph unicode="&#x2002;" horiz-adv-x="997" />
<glyph unicode="&#x2003;" horiz-adv-x="1996" />
<glyph unicode="&#x2004;" horiz-adv-x="665" />
<glyph unicode="&#x2005;" horiz-adv-x="497" />
<glyph unicode="&#x2006;" horiz-adv-x="331" />
<glyph unicode="&#x2007;" horiz-adv-x="331" />
<glyph unicode="&#x2008;" horiz-adv-x="247" />
<glyph unicode="&#x2009;" horiz-adv-x="399" />
<glyph unicode="&#x200a;" horiz-adv-x="110" />
<glyph unicode="&#x2010;" horiz-adv-x="757" d="M166 453l59 278h619l-60 -278h-618z" />
<glyph unicode="&#x2011;" horiz-adv-x="757" d="M166 453l59 278h619l-60 -278h-618z" />
<glyph unicode="&#x2012;" horiz-adv-x="757" d="M166 453l59 278h619l-60 -278h-618z" />
<glyph unicode="&#x2013;" horiz-adv-x="1024" d="M98 465l56 254h1024l-56 -254h-1024z" />
<glyph unicode="&#x2014;" horiz-adv-x="2048" d="M98 465l56 254h2048l-56 -254h-2048z" />
<glyph unicode="&#x2018;" d="M266 748l64 305q18 88 43.5 150.5t69.5 122.5t118 95t176 41l-35 -159q-68 0 -106.5 -48.5t-60.5 -150.5h127l-76 -356h-320z" />
<glyph unicode="&#x2019;" d="M266 748l33 159q68 0 107.5 48.5t62.5 150.5h-127l76 356h319l-65 -305q-18 -86 -43 -149.5t-70 -124t-119 -95t-174 -40.5z" />
<glyph unicode="&#x201a;" d="M33 -346l35 160q68 0 106.5 48t61.5 150h-127l75 357h320l-64 -306q-18 -88 -43.5 -150.5t-69.5 -122.5t-118 -95t-176 -41z" />
<glyph unicode="&#x201c;" horiz-adv-x="985" d="M264 748l64 305q18 88 43.5 150.5t69.5 122.5t118 95t176 41l-35 -159q-68 0 -106.5 -48.5t-61.5 -150.5h127l-75 -356h-320zM721 748l63 305q18 88 44 150.5t70 122.5t118 95t176 41l-35 -159q-68 0 -106.5 -48.5t-61.5 -150.5h127l-76 -356h-319z" />
<glyph unicode="&#x201d;" horiz-adv-x="985" d="M264 748l33 159q68 0 107.5 48.5t62.5 150.5h-127l76 356h319l-65 -305q-18 -86 -43 -149.5t-70 -124t-119 -95t-174 -40.5zM721 748l33 159q68 0 107.5 48.5t62.5 150.5h-127l75 356h320l-66 -305q-18 -86 -42.5 -149.5t-69.5 -124t-119 -95t-174 -40.5z" />
<glyph unicode="&#x201e;" horiz-adv-x="985" d="M31 -346l35 160q68 0 106.5 48t60.5 150h-127l76 357h320l-64 -306q-18 -88 -43.5 -150.5t-69.5 -122.5t-118 -95t-176 -41zM487 -346l35 160q68 0 107 48t61 150h-127l76 357h319l-63 -306q-18 -88 -44 -150.5t-70 -122.5t-118 -95t-176 -41z" />
<glyph unicode="&#x2022;" horiz-adv-x="1024" d="M303 731q33 152 163 258.5t279 106.5q152 0 236 -107.5t51 -257.5q-33 -152 -163 -258t-279 -106q-152 0 -236 107t-51 257z" />
<glyph unicode="&#x2026;" horiz-adv-x="2048" d="M182 0l78 369h320l-78 -369h-320zM864 0l78 369h320l-78 -369h-320zM1546 0l78 369h320l-78 -369h-320z" />
<glyph unicode="&#x202f;" horiz-adv-x="399" />
<glyph unicode="&#x2039;" d="M190 393l84 398l367 225l-63 -307l-197 -117l145 -117l-65 -307z" />
<glyph unicode="&#x203a;" d="M141 168l66 307l194 117l-143 117l64 307l272 -225l-84 -398z" />
<glyph unicode="&#x205f;" horiz-adv-x="497" />
<glyph unicode="&#x20ac;" horiz-adv-x="1064" d="M43 438l123 193h96q18 98 33 151h-178l123 193h104q86 256 270 377q150 98 371 98q141 0 240 -39q78 -31 123 -86l-162 -242q-20 59 -66 93q-61 45 -149 45q-94 0 -156 -45q-92 -63 -127 -201h442l-122 -193h-369q-16 -63 -33 -151h320l-123 -193h-225q-18 -94 20 -166 q49 -72 156 -71q84 0 178 45q96 47 178 135l-63 -291q-72 -51 -166 -82q-113 -37 -242 -37q-203 0 -301 95q-63 59 -91 158.5t-14 213.5h-190z" />
<glyph unicode="&#x2122;" horiz-adv-x="2027" d="M330 1257l43 205h692l-43 -205h-213l-137 -639h-266l137 639h-213zM1024 618l180 844h357l57 -512h4l274 512h357l-180 -844h-230l123 578h-4l-313 -578h-201l-68 578h-4l-123 -578h-229z" />
<glyph unicode="&#xe000;" horiz-adv-x="1110" d="M0 1110h1110v-1110h-1110v1110z" />
<glyph unicode="&#xfb01;" horiz-adv-x="1138" d="M135 0l187 879h-138l49 229h138l20 92q33 160 118 225.5t282 65.5q84 0 145 -6l-47 -223h-47q-66 0 -90.5 -17.5t-34.5 -66.5l-15 -70h154l-49 -229h-154l-186 -879h-332zM707 0l235 1108h332l-236 -1108h-331zM967 1225l53 254h332l-54 -254h-331z" />
<glyph unicode="&#xfb02;" horiz-adv-x="1138" d="M135 0l187 879h-138l49 229h138l20 92q33 160 118 225.5t282 65.5q84 0 145 -6l-47 -223h-47q-66 0 -90.5 -17.5t-34.5 -66.5l-15 -70h154l-49 -229h-154l-186 -879h-332zM707 0l311 1462h332l-312 -1462h-331z" />
<glyph unicode="&#xfb03;" horiz-adv-x="1744" d="M1312 0l236 1108h332l-236 -1108h-332zM1572 1225l54 254h331l-53 -254h-332zM741 0l187 879h-138l49 229h138l20 92q33 160 118 225.5t282 65.5q84 0 145 -6l-47 -223h-47q-66 0 -90.5 -17.5t-34.5 -66.5l-15 -70h154l-49 -229h-154l-186 -879h-332zM135 0l187 879h-138 l49 229h138l20 92q33 160 118 225.5t282 65.5q84 0 145 -6l-47 -223h-47q-66 0 -90.5 -17.5t-34.5 -66.5l-15 -70h154l-49 -229h-154l-186 -879h-332z" />
<glyph unicode="&#xfb04;" horiz-adv-x="1744" d="M1312 0l312 1462h331l-311 -1462h-332zM741 0l187 879h-138l49 229h138l20 92q33 160 118 225.5t282 65.5q84 0 145 -6l-47 -223h-47q-66 0 -90.5 -17.5t-34.5 -66.5l-15 -70h154l-49 -229h-154l-186 -879h-332zM135 0l187 879h-138l49 229h138l20 92q33 160 118 225.5 t282 65.5q84 0 145 -6l-47 -223h-47q-66 0 -90.5 -17.5t-34.5 -66.5l-15 -70h154l-49 -229h-154l-186 -879h-332z" />
</font>
</defs>
</svg>
